<mxfile host="Electron" agent="Mozilla/5.0 (Windows NT 10.0; Win64; x64) AppleWebKit/537.36 (KHTML, like Gecko) draw.io/24.7.8 Chrome/128.0.6613.36 Electron/32.0.1 Safari/537.36" version="24.7.8" pages="3">
  <diagram name="并发和并行" id="Zzc0QdnHF54bV1MfymoB">
    <mxGraphModel dx="1877" dy="629" grid="1" gridSize="10" guides="1" tooltips="1" connect="1" arrows="1" fold="1" page="1" pageScale="1" pageWidth="827" pageHeight="1169" math="0" shadow="0">
      <root>
        <mxCell id="0" />
        <mxCell id="1" parent="0" />
        <mxCell id="Vjxe_0oO2wVu7SaKX2D6-1" value="" style="shape=image;verticalLabelPosition=bottom;labelBackgroundColor=default;verticalAlign=top;aspect=fixed;imageAspect=0;image=https://www.eeboard.com/wp-content/uploads/2013/12/STM32.jpg;" vertex="1" parent="1">
          <mxGeometry x="-50" y="100.13" width="150" height="149.63" as="geometry" />
        </mxCell>
        <mxCell id="Vjxe_0oO2wVu7SaKX2D6-2" value="" style="endArrow=classic;html=1;rounded=0;" edge="1" parent="1">
          <mxGeometry width="50" height="50" relative="1" as="geometry">
            <mxPoint x="120" y="200" as="sourcePoint" />
            <mxPoint x="890" y="200" as="targetPoint" />
          </mxGeometry>
        </mxCell>
        <mxCell id="Vjxe_0oO2wVu7SaKX2D6-3" value="&lt;font style=&quot;font-size: 20px;&quot;&gt;0&lt;/font&gt;" style="text;html=1;align=center;verticalAlign=middle;resizable=0;points=[];autosize=1;strokeColor=none;fillColor=none;" vertex="1" parent="1">
          <mxGeometry x="100" y="209.75" width="30" height="40" as="geometry" />
        </mxCell>
        <mxCell id="Vjxe_0oO2wVu7SaKX2D6-4" value="&lt;font style=&quot;font-size: 20px;&quot;&gt;t&lt;/font&gt;" style="text;html=1;align=center;verticalAlign=middle;resizable=0;points=[];autosize=1;strokeColor=none;fillColor=none;" vertex="1" parent="1">
          <mxGeometry x="870" y="209.75" width="30" height="40" as="geometry" />
        </mxCell>
        <mxCell id="Vjxe_0oO2wVu7SaKX2D6-5" value="&lt;b&gt;&lt;font style=&quot;font-size: 20px;&quot;&gt;单核&lt;/font&gt;&lt;/b&gt;" style="text;html=1;align=center;verticalAlign=middle;whiteSpace=wrap;rounded=0;" vertex="1" parent="1">
          <mxGeometry x="-10" y="230" width="60" height="30" as="geometry" />
        </mxCell>
        <mxCell id="Vjxe_0oO2wVu7SaKX2D6-6" value="" style="endArrow=classic;html=1;rounded=0;strokeWidth=5;" edge="1" parent="1">
          <mxGeometry width="50" height="50" relative="1" as="geometry">
            <mxPoint x="120" y="160" as="sourcePoint" />
            <mxPoint x="200" y="160" as="targetPoint" />
          </mxGeometry>
        </mxCell>
        <mxCell id="Vjxe_0oO2wVu7SaKX2D6-7" value="" style="endArrow=classic;html=1;rounded=0;strokeWidth=5;strokeColor=#FF0000;" edge="1" parent="1">
          <mxGeometry width="50" height="50" relative="1" as="geometry">
            <mxPoint x="200" y="160" as="sourcePoint" />
            <mxPoint x="280" y="160" as="targetPoint" />
          </mxGeometry>
        </mxCell>
        <mxCell id="Vjxe_0oO2wVu7SaKX2D6-8" value="" style="endArrow=classic;html=1;rounded=0;strokeWidth=5;strokeColor=#00FF00;" edge="1" parent="1">
          <mxGeometry width="50" height="50" relative="1" as="geometry">
            <mxPoint x="280" y="160" as="sourcePoint" />
            <mxPoint x="360" y="160" as="targetPoint" />
          </mxGeometry>
        </mxCell>
        <mxCell id="Vjxe_0oO2wVu7SaKX2D6-9" value="" style="endArrow=classic;html=1;rounded=0;strokeWidth=5;strokeColor=#3333FF;" edge="1" parent="1">
          <mxGeometry width="50" height="50" relative="1" as="geometry">
            <mxPoint x="360" y="160" as="sourcePoint" />
            <mxPoint x="440" y="160" as="targetPoint" />
          </mxGeometry>
        </mxCell>
        <mxCell id="Vjxe_0oO2wVu7SaKX2D6-10" value="" style="endArrow=classic;html=1;rounded=0;strokeWidth=5;" edge="1" parent="1">
          <mxGeometry width="50" height="50" relative="1" as="geometry">
            <mxPoint x="440" y="160" as="sourcePoint" />
            <mxPoint x="520" y="160" as="targetPoint" />
          </mxGeometry>
        </mxCell>
        <mxCell id="Vjxe_0oO2wVu7SaKX2D6-11" value="" style="endArrow=classic;html=1;rounded=0;strokeWidth=5;strokeColor=#FF0000;" edge="1" parent="1">
          <mxGeometry width="50" height="50" relative="1" as="geometry">
            <mxPoint x="520" y="160" as="sourcePoint" />
            <mxPoint x="600" y="160" as="targetPoint" />
          </mxGeometry>
        </mxCell>
        <mxCell id="Vjxe_0oO2wVu7SaKX2D6-12" value="" style="endArrow=classic;html=1;rounded=0;strokeWidth=5;strokeColor=#00FF00;" edge="1" parent="1">
          <mxGeometry width="50" height="50" relative="1" as="geometry">
            <mxPoint x="600" y="160" as="sourcePoint" />
            <mxPoint x="680" y="160" as="targetPoint" />
          </mxGeometry>
        </mxCell>
        <mxCell id="Vjxe_0oO2wVu7SaKX2D6-13" value="" style="endArrow=classic;html=1;rounded=0;strokeWidth=5;strokeColor=#3333FF;" edge="1" parent="1">
          <mxGeometry width="50" height="50" relative="1" as="geometry">
            <mxPoint x="680" y="160" as="sourcePoint" />
            <mxPoint x="760" y="160" as="targetPoint" />
          </mxGeometry>
        </mxCell>
        <mxCell id="Vjxe_0oO2wVu7SaKX2D6-14" value="&lt;font style=&quot;font-size: 18px;&quot;&gt;任务1&lt;/font&gt;" style="text;html=1;align=center;verticalAlign=middle;whiteSpace=wrap;rounded=0;" vertex="1" parent="1">
          <mxGeometry x="130" y="120" width="60" height="30" as="geometry" />
        </mxCell>
        <mxCell id="Vjxe_0oO2wVu7SaKX2D6-15" value="&lt;font style=&quot;font-size: 18px;&quot;&gt;任务2&lt;/font&gt;" style="text;html=1;align=center;verticalAlign=middle;whiteSpace=wrap;rounded=0;" vertex="1" parent="1">
          <mxGeometry x="210" y="120" width="60" height="30" as="geometry" />
        </mxCell>
        <mxCell id="Vjxe_0oO2wVu7SaKX2D6-16" value="&lt;font style=&quot;font-size: 18px;&quot;&gt;任务3&lt;/font&gt;" style="text;html=1;align=center;verticalAlign=middle;whiteSpace=wrap;rounded=0;" vertex="1" parent="1">
          <mxGeometry x="290" y="120" width="60" height="30" as="geometry" />
        </mxCell>
        <mxCell id="Vjxe_0oO2wVu7SaKX2D6-17" value="&lt;font style=&quot;font-size: 18px;&quot;&gt;任务4&lt;/font&gt;" style="text;html=1;align=center;verticalAlign=middle;whiteSpace=wrap;rounded=0;" vertex="1" parent="1">
          <mxGeometry x="370" y="120" width="60" height="30" as="geometry" />
        </mxCell>
        <mxCell id="Vjxe_0oO2wVu7SaKX2D6-18" value="&lt;font style=&quot;font-size: 18px;&quot;&gt;任务1&lt;/font&gt;" style="text;html=1;align=center;verticalAlign=middle;whiteSpace=wrap;rounded=0;" vertex="1" parent="1">
          <mxGeometry x="440" y="120" width="60" height="30" as="geometry" />
        </mxCell>
        <mxCell id="Vjxe_0oO2wVu7SaKX2D6-20" value="&lt;font style=&quot;font-size: 18px;&quot;&gt;任务2&lt;/font&gt;" style="text;html=1;align=center;verticalAlign=middle;whiteSpace=wrap;rounded=0;" vertex="1" parent="1">
          <mxGeometry x="520" y="120" width="60" height="30" as="geometry" />
        </mxCell>
        <mxCell id="Vjxe_0oO2wVu7SaKX2D6-21" value="&lt;font style=&quot;font-size: 18px;&quot;&gt;任务3&lt;/font&gt;" style="text;html=1;align=center;verticalAlign=middle;whiteSpace=wrap;rounded=0;" vertex="1" parent="1">
          <mxGeometry x="600" y="120" width="60" height="30" as="geometry" />
        </mxCell>
        <mxCell id="Vjxe_0oO2wVu7SaKX2D6-22" value="&lt;font style=&quot;font-size: 18px;&quot;&gt;任务4&lt;/font&gt;" style="text;html=1;align=center;verticalAlign=middle;whiteSpace=wrap;rounded=0;" vertex="1" parent="1">
          <mxGeometry x="680" y="120" width="60" height="30" as="geometry" />
        </mxCell>
        <mxCell id="Vjxe_0oO2wVu7SaKX2D6-23" value="10ms" style="text;html=1;align=center;verticalAlign=middle;whiteSpace=wrap;rounded=0;" vertex="1" parent="1">
          <mxGeometry x="120" y="170" width="60" height="30" as="geometry" />
        </mxCell>
        <mxCell id="Vjxe_0oO2wVu7SaKX2D6-24" value="50ms" style="text;html=1;align=center;verticalAlign=middle;whiteSpace=wrap;rounded=0;" vertex="1" parent="1">
          <mxGeometry x="200" y="170" width="60" height="30" as="geometry" />
        </mxCell>
        <mxCell id="Vjxe_0oO2wVu7SaKX2D6-25" value="400ms" style="text;html=1;align=center;verticalAlign=middle;whiteSpace=wrap;rounded=0;" vertex="1" parent="1">
          <mxGeometry x="280" y="170" width="60" height="30" as="geometry" />
        </mxCell>
        <mxCell id="Vjxe_0oO2wVu7SaKX2D6-26" value="5ms" style="text;html=1;align=center;verticalAlign=middle;whiteSpace=wrap;rounded=0;" vertex="1" parent="1">
          <mxGeometry x="360" y="170" width="60" height="30" as="geometry" />
        </mxCell>
        <mxCell id="Vjxe_0oO2wVu7SaKX2D6-27" value="10ms" style="text;html=1;align=center;verticalAlign=middle;whiteSpace=wrap;rounded=0;" vertex="1" parent="1">
          <mxGeometry x="440" y="170" width="60" height="30" as="geometry" />
        </mxCell>
        <mxCell id="Vjxe_0oO2wVu7SaKX2D6-28" value="50ms" style="text;html=1;align=center;verticalAlign=middle;whiteSpace=wrap;rounded=0;" vertex="1" parent="1">
          <mxGeometry x="530" y="170" width="60" height="30" as="geometry" />
        </mxCell>
        <mxCell id="Vjxe_0oO2wVu7SaKX2D6-29" value="400ms" style="text;html=1;align=center;verticalAlign=middle;whiteSpace=wrap;rounded=0;" vertex="1" parent="1">
          <mxGeometry x="600" y="170" width="60" height="30" as="geometry" />
        </mxCell>
        <mxCell id="Vjxe_0oO2wVu7SaKX2D6-30" value="5ms" style="text;html=1;align=center;verticalAlign=middle;whiteSpace=wrap;rounded=0;" vertex="1" parent="1">
          <mxGeometry x="680" y="170" width="60" height="30" as="geometry" />
        </mxCell>
        <mxCell id="Vjxe_0oO2wVu7SaKX2D6-31" value="" style="rounded=1;whiteSpace=wrap;html=1;fillColor=none;strokeColor=#6c8ebf;dashed=1;" vertex="1" parent="1">
          <mxGeometry x="-50" y="70" width="980" height="270" as="geometry" />
        </mxCell>
        <mxCell id="Vjxe_0oO2wVu7SaKX2D6-32" value="&lt;font style=&quot;font-size: 30px;&quot;&gt;&lt;b&gt;并发&lt;/b&gt;&lt;/font&gt;" style="text;html=1;align=center;verticalAlign=middle;whiteSpace=wrap;rounded=0;" vertex="1" parent="1">
          <mxGeometry x="390" y="290" width="100" height="30" as="geometry" />
        </mxCell>
        <mxCell id="Vjxe_0oO2wVu7SaKX2D6-33" value="&lt;b&gt;&lt;font color=&quot;#ff0000&quot;&gt;时间片轮转调度算法&lt;/font&gt;&lt;/b&gt;" style="text;html=1;align=center;verticalAlign=middle;whiteSpace=wrap;rounded=0;" vertex="1" parent="1">
          <mxGeometry x="800" y="160" width="115" height="30" as="geometry" />
        </mxCell>
        <mxCell id="Vjxe_0oO2wVu7SaKX2D6-35" value="" style="shape=image;verticalLabelPosition=bottom;labelBackgroundColor=default;verticalAlign=top;aspect=fixed;imageAspect=0;image=data:image/png,iVBORw0KGgoAAAANSUhEUgAAAUkAAAE9CAYAAACGOZB/AAAAAXNSR0IArs4c6QAAAARnQU1BAACxjwv8YQUAAAAJcEhZcwAADsMAAA7DAcdvqGQAAP+lSURBVHhe7P2Hty3HeeUJ5vMW78F7TxgSJEHvJEosqVTSdK2Z1T1rprpnzV8z/8+s6a7qqlap5EVRJEXvQAOA8P4BD8Dz/s3+7f19kXHuuwBFgLWm1nTvvJER8fmIjIyMzDzn3B1Xrl69uhR2VP5/4P/AdmCgZIyMISP8H6PmvzX00fnfx5H5l4zFf2mPbC+3kx2k/+Y7dO6LD4IPoD9dP/53j+6J5D1ith8179Vv0P//rU//f9Gm9/M3c/5b7enfbX+9/1gMfhMfvHfPeSX5m9Q30QbItyuDuTyjPc0e30t2CxB730B/QyveV/+9GL/R6fvgg+r9lmDA7fgd+nofex+mN/7rQ9GNAD9MlBj5XeJ3ae93HFtPVv/tHtTfHeaJebS3C+TbpWCH5sjfsuevKF1erl68sFy6eG7ZvQtzl5YrVy6LpXRVqQ9mW9446bpMPgS8z2xdZe9XhLpjQ+YatB8pr5ZFu+akr/pETy9IejVRmHVVplpMc4aNWa7xPrQdqwdoLTlTQXO20g0TryqE2c9Wn1rpVKl5s0Tzmra1DvoqCs/xrAZLbvYRbOhX/sHwXtpb6FuGcdfmOFZca9OUdRegvEFTPrHBqMp/xhoyRVU5RfontMQTw1BcR8U7pQikXGjd+Bg1gdJWi4glD6ellXexykNOgps6YFgLzZWMxjWeZCvCGTamNoDUqp8as4wD4W9TL7SyO6mCVt/gmTY0DNuUsPtP+ZUrzGM7Fi0SlwuXlmXPgeuX/YdvXPbsO7Ts3KVJbdL9AJOkLCpdOPXucurkW8uBfTuXnVcvLpcunNUceWG5euWi0pXJReGayWQKQttV82mC2lIscvNU3uHKmkJPw90AaDv89GDqdwyJvjN5ULS2ZchW69iObFBmRx2+i9FtWarwolM8GN7FTlDlali3rwRjwyko9dC7UnA3RM3UdEvxt8iaoKrJpQNhnVQZMCmttAaMolU2TFAYesnHcShs5+ODwMPTE49rpiUg/KVevT7Ym5EE45ok1Qz5TRlIM33tUuI3MzXlOV7B4MEWmVjif5XXKelzokHfwEXP5avhx398m1Z121NdZ7RrpmDX/pIa0K8ga9vhxU50yOFdvbzGM3il0/WWH+NQ6Vr+Jlaa8i1885Tm/qPeUukLNXP01aoPfR5TLiMLQ6C+U+d5x3VVfWU/qAw1+vCK5inNXxcvirBjuXjp8vLu6UvLjXc8tNx272PL9Tfftezdt8+8xgeYJDF+Ybly9sRy/sw7y/49TIgXtLg8v1y9dF5BMFGyoiw33bDRwPkkVe6JjTw0T5YUobscOsQ0ekqA6F1s2pS63rLb8YwtOTyKtk1h5meAN2WD52JkLAQGrXNSd84ktM6cq7jplTcotlpjYl9rZ/ZBNgv/dlgn6LJVxbXyu4bsOuay7zMlxbjsunLqpOYLW6qFFtyCQQrfVftrhnKqVWskpPAMy89Jkx25TzPSbIE6WfNAJipOcibXpiGjk9W+Ij3rxGpPEPgMLXqhJw57R8aTSNmBXzkU10ueuhcoKqYr4HViIl9pLjmvepX5A60HnYtCT4awiUXTnPfxDUrRcORj+A5b0CsbQ5t681TJKaG6aDtk+9KFC8vZc+eWC1pCntdkefrC7mXfDfcvR297dLnj3keW/QcPxkYZ3HaS3Epo34EmxKtK5971JLlvj6R3anWpyVHeNVkqMUk2UMbZaEGXKzWvaV3eWZOkUTQ6kaxlXKn6kJlzOp0idRfWfOjPvC4LLm7Hm/LuqCYZs+xWbKVvNbCdXtOuOUxbAH87O7OP7ejgt6E3jbxps85/DbyX/e38b415uza8l71G8Tk1hvp72Sp0dUySoMtKPs2avhVNn/maQOy/aOM03SZ3serIDV9Vdr3stXwn15msyItIfUMv5My9TVdiZeuJsicscjLy0EMgq7L+eDR3+fJlTRMyOA0j7gTXamxS9vJonMPhZrVMaTomKo5a2cRCFcVTSXqXzp9fTp0+s5w+e06T5YXl9CVNkkfuXY7e/shyz4OPLQcPHZIcxmLtmklyozJhDUWrxavnlyunjy9nTh5fDu7X7fZOnkcyQWqVySSp5axhJe243cXhmJjIpnqXnXoFWRMc2FhVttw2ddueaM7J2E25QRkfFphSYawgWgbM+SzfsuSzzHa9uVUHNG3GVtp2tsB7+d6K97K3nexsa8YW+qi2rf8aeL9Y5hzMcu9Hn3n/EkzynC4b46gx2+zynDPDoFe0zdNOrJmuRDYmXFKh+R0C9bZl88U3nYmkeE0j9+RGsWmUkSVGMyorGjKD1fzknsjGowLosNYJ0nzqdfvLlHVFt7hXmCRZSXZfSi4TYfroCitpx4MIk2TmA/TbLrJRj45pyEKCgmg0NIXsWHZr4YXfC1pFnjx1ajl5+uxy6sy55d0zV5cjt+p2+75PLnff/9HlAJOkrcTSxiQ5CtugHWsJKcFzy+UTby6nlA7u37Xs2UVHXlquXuSWm9vtS6sL7Wq1rjINoGF01mqRSZTNNLeaHEaXww+vbbGryZNq61myyvpDtn2HlDxr8E6ZCBNT9QJFZyVTfiKn/VWueuH5mRParmpXJoK1klK0siueMnybNNC1HORIJG+45IERtxT6aG5vq/O2SI7ftAkKEqabQE1pWh11lJZs30XxCeFy0zbRPAB/rjdmPfg98ONHm5W0s69YyB6s0QE/ihbFfYIKO9HIzaLa9lOdsFkDtjPBY26KAx2Xh9zEk9wOgnc1eYUn1irnI5GihijUmp2gVQDI21bB+uaFRpvY3DZKW3L+cgs900HK9gnNASp3CMoj7p03ZE030fSUm0e1aKZnpPlRQtGgdpn+3OljwQsV3Y5bJ3YaOc8L6CRIA2uTqFEWrLeLu1PpXKiVJJMkiUny+jseXu68/1PLPQ8wSR6WVuIA/+KVJIhKJslL776xnHjnjeXQgd3L3l2Xlx2aGK9cPKukiXJjknS3ZHksCsH6qiBHo0mm1YkKXWUjBpy6M5CJFnvRhkzy0Yl5ELHKI4ofykbebDkWdFretFUqClUv/fQYZSZXoJaoff2CyGzvBA3mYU20QR7Eskfq+HwC2FP5Ai20IrzQsEfcLBIgbbThPdCHfkNSlTwPowgHw5McO/dVYrObVFXvFYUI0GbYxGwXpF7EiQ7CGzHSNzgL0b7CKMk6fgF1TZJcfHV8sdFp00XkZhrV7EBimIEoamAnK5PRZiX/FbOEUp/HQMUhmOYO5PxouTUYdN2npkOQDH/kLabcbZtWXuaJRkbKs7/YN9RX9oNeDFrQ3etq2kT/mQ6NgaW/FfgjpZzxZmXTzQ9rE6ojaf/6i40kaDmFcm6ajgrxq2yIt6MmO1fbPraUWaNpBWjEx/FC8NLFi15BnjilSfJMJskb73x0uevBT2uS/FhutzHohA8i+Q2YBXbMk+Tbry+HdLudSfKi7rTPaJI850nS66zqBJDzinIcmwnauKruOAGSG0uHKFnNqhYy3IGVTO7JzsxKMTrOHx9s5Mt2RPCqcg2C9rsdTMYeAWF0nJgVByGo5dhABESiKgXrAzOxMyry0bKTDTumnhOm5VtyDjcnS+usWGtmmjBuk0q+dXKSUErfmO64SByP+ECOgQc79ZYBsQVGe421XVtR7oetoYd7Utk0T+3kooT/PqlxHd30EysHTqjYsiYiERIYM1hsP9HNeMKb9dAIO3EoQw4ZPioybhtnWAi5ddLyCYo9JW4lEcFItxnENxMFky+yrKZ08ZWM245f5CrFiDDsyl/TsENOHEUnBNfLVk9EqGTsRpn48JuLTKjrJKnaPDMZqWOLZadlBXRbkrzts3cJPjF0veKxGQtF3vSyGekVkcgeXqt2u2Kj+nXXbuU7lwu63T/NbTaT5GlNlmeX5SYmyY+wkmSSZCUJEv9vOUnieJ0kT06TJG+3r1w8o1vumiQVlE+uYT756i0Na1CLPH86SKzxVe2BzITkUN3oyMiRUhnEny9DAizIpIoDed+GKHkaw47+LIIoA7dMOXOl7AnWF63c237OAQ59KbY1/JmEEH0WsmFSywvFZAO0PMqk0Dr+q/4MqiliwyOZU3FVH9l8dMPXCaKqpeFPspFHvyMIHLXtCINRBPQqx3EfZ5tCM8GsaPlG6bWOMals9I9lI97V5BWzzYgIncxFJkkmhcS2YU9IveOuegx54rBdbUQNjxSaxS2HvFeSXGhqkjSvMGS97z4hlqzs2h52BtqAaMjFf50HbLiBblMmrjpSCJstsBgVx6+y+oO2eL5jmNmw944HlHh2sE0VTFOa43WZGFN0X7FVf2DTdfFRRcitFsE5RUuWLH2JDfgYJAEbQLLsheg/Wyw78e/CoKequi4CO3ftWXYoXbx4ZTnBbbYmyRM1Sd5816PL3awkH5xXkrHri817AeOgfAUhBTA6kgJVroQeBKS6mjtBd77qUGw57epsruSGktBrusgMfqeyVzazUZ7Thjnl7Eq+ZGAMO7vIESae0Hfu3BU909DZpRCgwSs9UtmF1in+Jl/kokOb6bMNd3HzLRu6c8XieCyPjOg0TLFBD6/5kY+PpvPp//iHz2rIV1j8VNphmmTVF6bRP441MVmmYklcoTm3XLcff8iVfCfR3Tf46GPZvNpG/zlP3O738kmugvoKn6VbOrRnF7ZFM690OsF3+8yf9SsuJ+JKObGkT9ZY6BfUkVPdvLJTtoih5bUreuy1zJAvngqZD7DN1rJuZyVq+K1EHfusnPvc8yKl5bBBDD7dJSv7uEBml+iJcbUNPTGW7U7YqiQhkzJWSfhpf5F1Kr0Vadw62RV6ghNsHzs2bEoStErUZ1+tE1S5EnY7Tl84leJNic7utEqOHIs50u+BBBOspRU5mN24Nh5KXxFcVz5W66AGQ4xOllVk0EcOugmu25SqHZOaGkKITpaDCdcDo3iC44FTNPzkORA0BkQNUNFz4tHx6Z6sS7AjnosTX3VoTmJZn4LLStisJEfW850DZfrBfbHe+phluSTHYjB4M9A7xvbpk6hkh7zjqyQf+OcTraToIrf6ia/YIBbH07KSrLVBfGnDPvQ51UJHZuFjS3XtTJvQ9DCIo2I2Eq+XSy1DGxxbq8R+YklK+wTpZkLj1or+iv20C/3U3cdFDyl+M5kU3SX48d1juPvV9UHrfnRFu4rVFipGaBZGLv03o4+/YTtKInCXM/SIEV1kTYcRrda1GnrkJiCv+JEXl1gzmcIMaAt8BG27DRhV6Ji6fSXX4yVjGE7FSFF5VJID6E6WX20YyNFOSUemksvlp1ecJQ9cXgOMrNqTRwfIio4s/bdLR4MxVogFbMRKW2sfq+S/AG1sLrlMdQp2NEAM5zOPJH5MhJ4OzSC/IpInFNWhW1fiWGx91DqP7a1JWAXWokB5nMxDvg6I46AqWpVzslQqX4S/QXcCyd0+wcNispUxSD0nyeojaC3zp0ODrxzkpqtcdKPtpVLyq177cLvtMyk60Z3l3P9Tso4Y8AzoQsv7BKMAXYMvNB0vCkbZUe4Y4JEjP2JP8sk00VxWn8VebLQcsW+0x3nFZVny7ndVSsZy0CAZTV/hGCcZctehd92pY2mkHHmV4RFjxbkVbaePDbK+kEu2ebbPSV18J+AYLRFZ7cjZxQKgrast6p4kPUnAa7pq+Lbtsl956zfoAdsTO3TXylbx2rZpjSq1+Qnp72jagutwKgbsuZQYu8+ZMK8ZawL1jEtbE1l0tbt1M8SUm8dOsJFhaPDpqd8COGqLBUhNn3huxIZsynSEHzArlq0y8Kj5VkEDpVl9MLoj3RYDgVXfCiXrt47dYJPZ9YGLHfsXnTKiySuVbiQKIVkuD5KV2vYE882jDeH5qs8VUFue104rgrLb6Ko9uNKUskVqEt6rHc33fggp8VfyQ8KF1OCNtgusMjautNUGBlwGHfqbuiTkuOWj3A//DWRLHoV5UNu2U8rXJNnDjlcPbpSV2PkvzVvplBJnrTbgWzd8+t0yHI8Oogw5buvE4pyC8Ht1Aoix/QYpY8FW7BP78dL81EpWO5Ika4XHGQwDORXreMTOpL9RxwaGVAi5d2mPhVIHHRMKbc8r+PZT/LYNKLcLQLwdU1L4SMRnJ7OEyLReJ+DYnefY6I+aaahFKpj1xqpSyXZFQ6s0jdlX5hXkyOGV0IbGJn7LSXLFcCDbCnGKDEbfWtRJIqzBFKgXLQMzE2f0larh0LsDG/0CJvKgdAr2PW2G+N2xyI+Oooop2xsGjRbfILds2bUNu1/9u2i5blMBORdKX38jhkLi1d7EmUM/VV/ob5w0+vPV1INl7W9gS4hXvP1iioUKEzW0xFgDTDR7VB0d1y1nSdPG5KCtb9mQiJQQVwPoJGbsSY4T3nY3+bZNOyZlSmlX6gaynETQmejYSj/8sgmvSGu7atcyzlPuPoRgsQb1nLEYqn4TRMJqbIvWttaChdoPMiazA5hBzfyiCaOUARCo2DWOl9uOpIj+mI7p1SdlYcTmZFIgNjLjAjYsx3ZfyI1mKYeWPq0+clrj6DbEVxRHu8zvRD8Qa2w0iJMapMQeOkD2MnFZIDLRR48pLMKeR2wlFFM3Gg9N9U2SUDpbZBsfeJKMpy1GcaI0O0tnVqWwXTBDBGErJIVe+aS3Weq0avUGObQ6CAgVNuRIM3MgvPY3REqFWH2wNxgTWnEg3rqdZpeMI5lMubklYC2Y1ETL4FfB5MSQOEgSKlkwdVvkp62JQwQ+tpgYVhPt1MW4wL8myXlDr/wiCc0oulk2UwN70MPLxVLJW9ynBMq3U20oNRu4WoQEUGp9AkYnMpuKNrVJmjKYozKBE54klpVbYC17Ihm88u1i50qyw2ZbmoOYAAyOsTarSD4JRvHh+bik7DFBcZanbp4Lrq+8thNaVnBFlYJlKzVcl4x2uWBuEWj+bDtRVULFrLnfCkW36DWIIiKrCu1aJ0nzm+d+qf5omJSLO+VEmbHvc2lDeMWHmCS34BoHK6EPQBoQOuXRmTSmGpQr5eUha3rxOs0lmuoGuoQPBiVXOyirtA168K3J/hMIEqtJI3SzSOXDhBIHWYHYc7aoGUSdyLdAAtYjTqFlMmAm43A8CITJbgca+RVU1zYVQejJrHk+GeQfmY7OoqWWk6VWCWWDFdR6y7fSfWy4hVGC4o9/qICYZZWgc0L1SngcL8zYVnJvliMv/22/dLYCGdrGZnmBsle52iBBT9vrWOHYsVk4Pqg6WSu2ECsh6zrFR2ixmWQN28hO6uYnT5tMtu3uD3uIuBB7ly9jzxzHY3mvpDBgLy1tO8hxbPqNPhL+bnTpxH47SRwjWZry5INkufAMGXHfYMwxScLjZJXzXrvYQAxZs1IeMSQn7h6L6FjCrJYtOWXD7/CXWPpjXvZr6cDatYNOO/GXl3NMkuVb/fSb8LubJCekEWvIBDunnGzFdGPZpyFSjmYLi8MV1hJhsJuQQeTOU6O5FCNB5+nPt5i+hfDEGx5mHWOngjuxAoPvAYBTk8LLIKyOh06H1wQBZmuUeyLcyUeLyvbAKhzMRlzWzvE1I+j2Jp415gGqSuGFlPg53Mq9dTxKdtOTdk4qJIZvchczkN3Xkh2TA8l9L2YkRItcKNqIhYpoq5+azMygGzN4rWytgs20rbJHyX/JB8ovPhRFEQXTlZfOum0CnQ09oePbAAPL9EivOrLpNimVdfy6yUJ77Y0/87Ub/cV4UpnJwxOI+tZ8+5CWArKObHpsW2+NwEaRUSl6IQGLCm5T0RrjGIHVWFD+50nR57E1Es8wXrAcf0NHSeJDx1KBfdt/IohuJMLLVNVygexW32wiNMgbnvDNpOr5h7HmiEpWpa1mCvH8gbCdRbvMhuMQhW4USDkNXemR1V6klbqWhjEa0xWxXXMjPWJMQGvtcBHcAZYUXdkAJ33orkVRtcQ+WoBS8UgbJkxP8hRiB644efKAgl6x3gsd8xCzKm3znorbWkXDNl2oXLD+YKBThQFiycDu45Q+pCw94rB6aHZo4RQpr/JFz27EYU7JUOtoImqtqqUEP+03mz27gc1aYJtteMCe4xel5iuf+2TDYhxS8KQDa9OslSda5Edd+mu56PiyTjjpB4GqUxVMJl5m0Sj3c090ssoiFVusbkf45J1ouWCz68h2gr9BWYE123W5IpaIcyOaPUGWF6NC+RfgWr+bVQKIsfTVhpcNP2v7W7ZMVRn5LnW0aLiNTJBacbO4mftxa7tmfMBJEqNVlKMeCMDO6sg5sEqggyGWoS+YJqJPkkrYDbURpWFjYKWRoiobFq8RJJhGJKoSz3gAX+hqBuuK6AnYGbZqxSPIq3MAybELUB3TqFCvsmC7JQu6PtMtbj12JimrtjZhW0w2rJ/Vhq+6fVYV03TX0WHgUNROKXQMIFqyVCwD2YyiocNfdIE58pnbd0uZ7/5TnYfxl3xbWPoDki1/VhKiN9mlTUV/TxBKMq9SvZpXGV1PPt6opzR8CvEVOnmOS06XCiky7WCKbV5thRl6w21ha53JPxSv0LgNKmCq+cPsNWi+0saFefJR+iRiBENmJCytiX10VnkYsz3aAmY5kDvGdTJqX9Kyjcagi0Zc8+p5FSwbncqmJeJ4Nmk4vrYjcb4MkA/4J6aObY55O3zglWQ3zMGSJj+mCXGeMog8hWoAStbvSacScihonxJ2kDVphX2GZ9awwUC9rCwTXse58klBd232ILyWygSTSabp7MITrdMM+wlS4kBlcmp/jawUsDHLJiEfzPaqbHYmoKo4914iRR12uh2DU/IpK5NOwkY5diEbfm5BoWQFqhGHlwsaaK21v4MhLyAz2oc4JryZmZNcf01rPfNoiye4CdDanrApP8hlraGYaWO3E7miA+u5BEQrocTUMnXB0R+U2fqK9DldgSfH74CS0n2y6IIo4jEmYPsk7olGWzQY29hQRUgf1/HqsQS9kgXFo5xPFZCghzfiKXtdH+O16EHJbkA0PpMwxtaKVTbRUHXbkOPrkD7tVx5wDZrpsdEplHhs28OH27VKJKOv6oKIvmVwmj6NSMm+Dz7gJEkjiItDJww/fRAq2EFfA9loyKQXg5RDvzZ2EVrVQCCyoDvAjTerB0w6x0ekDMxmykr8ldPEqKQqNubJJRIpjZOkQLE7PfHQP7HjQWwBswuh5WpX8W7wQUdb/dpVYY0taN8gvNS9d3k2PtVtFsMxjmjrIxFq83uwau9+WjEsOs6t8VIgyabbG9mIxLsR51XZxIiplS3WttgABmPPNOTNGQqCnZat9N+sG0nt9YcdYCswLFL2rW8Ook5GV4rPREk7u97JaHsWQCSTJDmkPLO1kPm9SmVDGR6mold29WcdRMzr8RsbjVWvz5VImaYUStlqcyU3m9pqA1BMIiYoilPxjYt6fx7Nhsu4q+nbNh/9StSVbKNoQXJ3kemuRt71Pk/TX5koc5wNK743PuAkKcgDAWxc1UgOIg/kuXLl5A8fDNmSC0JM92QgGMrcNcNAfr6J5XJVvcsz9NBXu2vDI1Y2lKW48iORtqwHG88Iw8d6yYvnK7YPlDjy5Su0NrdVvDiwovjOomd6aB0nCT1+pXk+ORrRCcE8NgTank1qVzYpO25htkOFjVidWB0iZpvw+aM0K8Ua/YKtxMuHxVEr/6ZFh3q3YfCB2NjxZt1MTLZXxyyhIGEGldRNm8vhl8saK6Ya2MqKqYd2+qztO5jSdY6sNyFClYeQqjYmoBALVk4SmbekOfb6I06Pe1XE7v4xzNexJnVfmdi89OHMx8hqA9vQtmKi4bPylrfNenk561NMPXFQnq0PvxFx3RJVHmEpb/3G6rfaIhrHxrymlT8nytDRo+xkccP2+q190YBl2OWv9KhQI06NsRpnBOxHGY69aANzecUHnySFBJdyHCjpqsBGEK4SawlFPA3o4PqguVElF5bKfbVxveymUjrzhKRU4pZ1B+RNdDp13kD27QrE8ibmTmyfOlTUQnQ7I7Pa0q7jKrEV2KiiYNVOha38nOKrqRYdF2NR0ueRQd/tNJ8eIFmsZLRx0pej8REb+E2rJFEPXMsiIrlqrnktF1mEsS35vog0D8AjVbV50Hrg234NYiShYbaNxX8smjvZAzlGodAna7syofrNunJItqXNfqxSlsoPsD3aUryYio/2Aygmpa/MsQ3Z1zlhUfzZrHbUrUDemegIIIcYNCsW13RsNJ8Y6tgIsR0URX/rqmkzdYzsVG9GY9CndhZtchM9oSJLZSDtvtYGu6288EtqEyXjcVWkrYDuC6ZtzUhMUM1hgVWTo4/x3GlGYpvxoSbJcrsN1sDan4PsxoZkhMbA7YO9XfBFUz5sdPLJjp0t9muSBKH34K1tDkLwAS6fbaN9mgdQkh0+NK1C0cSroiURtRyJP3yVgBDWNMkK3V6udnMMAB4lRzTZyeq5U/RTi2y3mXgHbCt9eJlVBTbRc0IgniwVU/bpWMo38SReJKGbvIHIM6BhYijGTJ4UKEHzqqnjtH36wRUlNNpSfHefsHM+YV6BOUx2gm2Itk74thYedG+gfbhSesRW8jDwWzHDh5SYagWkDVjeskmxzbg0O7TBt4CwroTbpi/KYqMWXhIq4/YViAaw5QmDuOqCYzq7FEtjU28AFW3ulxFXaF0CzScRT7NbY5DaDmmANsTGJh29MiRQgms/ZXnmNzqODUsSsw+2wROBPqlzbbVF3mWwlt93knQD3gc46GQgb53WK36vVExJim1OyMQ8bICyYxml1UdkIDeNlIFjjk8CThInBIVZd80L2KriLJUmtN0MGKMExLHd9pfVRugWspxorSc43uoLH7Q6yZoXWlJiRh1+7EBqeWBPJQe/WUWxbOvj1x+8DWvA/hT7mFhEG1LDHrFxQl7x5JqviIXZkxICxNKPPAxs90TCJrI51o2+eaVHre2tk400LI4tFfSHjfJg2HaVkUN32LBuWJark8PtJjbl1i45ezUvStbpia2cbMef222atiEhOhuIXuqm4XOk1beTNrQo9/Fxu6qMu7hkFw+WQXdKBjFIgCoUl5VvyAgd66zPGG/MdF8kKNtSIkA//RoeQWXsdb9b1P5h+vbbccVmqEFsBz1GfK4XrWE967Z0AJ2+Grodgywg6XHCPyPb0N1q/TdMku8PjE0G3diqb8TatJwMI4Xq8iZKeTKHbjoxBwv6bGsOI92avTvBHTDJixPxKcjZxGRrRWyCNXJsxtM4SJNJsGqtaH0fQKUKbxtgL8mrRpyVrvXgVyjpG9I6mBsZEARa9tArEIvNQmsb5lOHXi7Kj2W4GNhWk0Ib/eykfQxHjJ0ZK71hciWbxV4KsNNu/VFzdMV3MrXoLhVQ9y6clIvXCNvI2EjZKPFVxRaskJUoibAmJWz0ZmMVtFE01SGh277JSnoLSth24Mp3TTzOvYWfUlta0f2knRMZSFsjO2TKGmgdJOK55dBtKsRkxBcbham46YfxKSZ/LZNgig9RuSlD03tA3yJvKWSHEUH0HEdLCYl3A0OGaY+Y61zaYmor3neSTIdsh5VuBwmbGJzysGz1St/QKK4CflsnGk0hZxUJMgBqEKhuvg3WZOcrKA3CT/PC784lqWrAsi2R10igeW85J2y5BK3oTUPX+vFrYNhIPbKqObaQkU/nl86E0MqG5ZHuyorxplI50n2bBcntEm2U6Teu9hDEyTBKbB1v9yH8pI7d0btOjj3HDg1Wy9gMlpHtujTav/Nww2YX6w37Ix7S4CSXamx3jgXkt6x+8cVKlhitZNpaHj6EkENXKZvqiVN0ibUPx9SOXIxf5NwfXAiU7LuPjSVyTDBnLa86p9W0adr7xJSYdFHoOCqMnBdVHrIW1c7oo1r7tiGFYUtI+10MXfE2P8cfILNFDl/aepVa1rKHV23utnVqW+iv/QI2fWz/0gjDax2kip/V/ntheCrZfBIg9NnsHFd/pGq1S1sn4W3wvpPk+yNOCGq429JgB6COSdgNlV0NrQ9K0JbEFS2dWATBfSZs6FQAFi1ad1rf2oKV70LR4mNrGj6tG3lv5O7wiFD30CUE/LnAX3zOwFSFIr0M1gw4JW2xiVXoFTc0fJbffgaGeSSHvJIvQNzWTD6waadF9ATjt7DEXYIDdlapSVVvgk1VbELsAMVPv3BcxknWuqssJGrYKLIgSZtPTGZphw2Os4+1uEM8UomBBBPTziMZ8xwZYqoEawuwiUx/fxcd25J8+joyplsSJiewaOwmYD8JX0mh0460pWkYGPFjFXnxqZkyxof3LltXf+jl1l6nLgK22ZqNRDxTwDh2+nNc1sVo6uknaC0bS/ZQupZDt49Nycdj7LRsDJu80iBhA11slL3ICyp7UoMfilA+W690TFMdHdAXs2shum1QJAb1X/248r8EH2KSnLE6Szi/CQl4NNzRN9yLTqFz8qyJOjAvRaE7OFmDA5fjAh/5VQD9pCIA24QQYvwVzCo6B9w2RSvXrnoFHTTZcMUCFIYdQHyKwht/AW0VIu6Q0k+pDztO2qg6MYiR985c95uKZSpK7ESwbsvmbyTgctE3GGAQ08dds9uBMOKHQV/MSSF9QeoI177F2DroReui0NKBPdgWm4EAdV8sJt+AopIp5MTgCoiNERaG7Gz2SJm+Rq5kVwOmZWKEV/6dWoY+i71hg7ISze16+4yMiwK6NUEKlkw4Lb4tPGbHFbR2/JW6LbUT24pBKCFX3TotO6Vp7M8wV7I9QUIg5tLypFcOjJb31vRmm178ORXNE3fRtkN1mdCrzibYQrLsNvA7miQL7ogaPE1iEy1L3MAhuVFpGFJJK5Bxv9vQKGzAfjKqXLcf7EDaoDuzi+6YdGTHZq0ByqStB7AxdLDV7GEAQh2o9s9m2aKZDK1EKlGHMPs1C1rVt2JQy79ffPQJGeUkwZ9d7VUIZPrf8uEPI8SlbPhEVmXSxiAkYKuoLaza2UxiEGZlK+nyE732NNsE7h9zlbCBPcU5NOynbFTMsVd8ZabJV9skg0ZqsYY1kYch32sdppyhMqmN4+0EJbrxRUrbge0Qo24xM1GSwmtY15tQNtMmJvSVFl+gfXAeiajqbDfx1YlvetLg+bjn3Mz4gBM+5RI1JO2N6GwHuYpjTPhUKsamucoxE3NtdwzDi9JEc82UQQPIUoXm1apoXtny4kWwbNuwLPrEsNK3ovsHBfyyC821wva668z1oRFnDnhu9AgitKYTHCcR/4iog80WjFwFyjGTFVYVN/0IFEet6cMnzMqF2WefFKZbhB2TtyBWfFde5W4Lm2FeatBLzDn1cWviFF6qqRDLqJtWbSVGBngNchCv5YtUKqGAblsYDKC2OQKLZopCWxt7ydvfkH8PYF9bxxoSE0Qmp6abh1no/imw6BFWErUq10XCFPJOsZ58ogPscxEAJmmHy/XCUAx0yu4AtKLTa5ZtWKfKYNQt6TymykYlkHa75Dz9Q0IGuqDqKJrto+bx4jGj/gqPNjABie++XfuwbUDrn0hro/Aladr4VAJ/DkCK9ol9ixvw+tkr7q1SOlaTQtSSi5N9mANz3fpstpGE8tonQUr0V9sGxJE2YMi8cT60XPYVSezbozjI2162yJLgRzby2+NDTpLlzBk7oHzcgza56opjxCISgWcAb4YeaTojDS3CilVIKIPY7vKgmVj5VC6+Y7OdTc0WKymn+YB0p7pj+Rs58t55H51g6FCJEXbKmIyj0/n6f1sE+sYJNVHtq+WFYSd0Ily9FkT3ZhkTTB6wavjo9p1TH5cZrjfReskrQAqm2d44waESfXx0sl6oqVctKypX+It82Yql5IbJouGD20mTS19ExhfJAuZkt1prGsRQm9ck+x9KsbMCIv7WFBATp1fLkyvpzzat0/TQOkaAHfeDN8HqlFlF8xIEfRtKgsPEVvRsZRcxaOrDoWfU8Z72ILI1odpK0ab62jbS2k7LRIRKFcoyrEoBfZRj1wyzSqDPn7AqdjNIpTecTYBk+VRpGVv0QhlqJft++FCTJEEmUO+ce3MDoE3BAFf74M9wpNHrumQ2bhvN6RNQJcnmuYKaYBELidc62GMlUZphBzFVskraHK8SZUR7+GDH9qhCt+nZGLIM0AxclLv9SPWgNcqHzVqnByK87DjRvSKiXrIcJcfXtpToqZiDLhl4PSmxs5yrkqGP8Jc+DS0xAmIBsbkmfMVM+UUOHh7slrpJoRn56qj57l9y9Gt1I7o/rxkl5RmCaZdJSuEl0w697OJLOnlJVasJZAsdB/4o93M4lx37hLg0jz3lxEpCAH7Vx4RPvOs4XOVVkRnHswH0bKW21GbMvE3Epoyam0lQK0V8TdLmVQxuo/tEqWhspk/9vsYdG+rJ8CAUkX7xNtlqzPrmSy7fLBItAiMH9l+TqcVnSASpWc8iEvRLPmHTd+pp85ZzTKCU2FbawCAl5hS3BrSJjNAPCGJIHO8VDA2msA1fCDcThRvkpJgtXnVkir6B4lUXej+327RhM4Nkl1L6I7Ro9T65BToJUM0p9tzx6FjPpHJcupC2PUgRrjxptL9AiQPvi8Tgp596JRlvHsIuGTYHP1VYzQ9p3SPmk01/SFiOQtE6JjYrNFy1QOjFGzSjvebkNlV94hOl+ifuOreoUPpFG/QqONsKiPLr/vJFpydmknxPq6e0J7AaNQTLR9t31RX45JGd7QyGYDukoqedVFeZsBNjn9xxmPI40eO44EhMt65vnJFBGdHqUyplz3WvnC2QXDzbjtoAJO9S8N+w1RX7qBwqYpWCnhyrGgvDlXMx7V/w8ZdMpAI43cbWc39wPF2bdJ2gtKSrxrChlKBDG4stAzptai2w2toOH2qSjPHtHZij3YhN2CzTmKal7I5Bc5v410YKyKkaG6Gn/6rxpQ8Pm8A8Bg/M0gU93YAi0YUrFZoYs68AI8kQHr7BJOdwKg0do71kgHmlIiHYPtEZINDsN/VGeUlu26FIUrLeu277+ut6KCVrm5HHr2PUtvqPbxPgRS22BgsmNrTHVkSEKqEDk+LwAa3ysklhxOX9hCZMCnga7SQn4X9MQHBycvgEqXbqb/XNPurOg3DIN8nQ6zjZTtIqUbyuDfmVz992ur1fZaPfkTRahflx5ravsaFr/ZUOhm+MjMdhxSNBdjl60QVhxE0omyi7lZo28sELdZjZzlQBFjp5Lqrj1+aEqHZswhZbm3HoGPSx92aSkvS5I+j2DPuToQkfbpKUEzrVPhxYpVHegqkBfTATWILrhmCTRrgrZlOl68ZZBfl+pjfZm5+JKrWJ7kDMjLq31EE6lVvDtCwpdpw24l7rJgntI/prnUR7LOsturm1Vq0NwEHGyWbG6qPZka26XaUNQ682qHMs8FxAHhpVpY7PsrC9F4/nxdyioYSgldtf2oOsJ1X6DEiuJ6oiWMuyojHw/b1xsW2tbMXrat+PBqZj0XIpFs8nEXrSJE6eP8q/2+UNY2Z3Jl7zA+zFFrbtIRtlmEJsrbF14riA9KuSxNFALbrIIZH+R6b9h5exa1mltkvZhgT87ty5yy84PVYEYt2AVaQr+vxrUgHO7DBjyGR2oVVk45TxeWc/rSebPr6xV2ID7cbSZtKGNXdc2qh3P4WOzDYQYyxsXMUOF7q1XTbTkZjf9jEPJz6yg9N2sG1SARudwAZz4DdPktvrDbOj4FzCHTAk7UgDrjNIVmLKEYwmwI4LG9iGNCGdkH6JZEzHl3mWodYxhFeCTqa3jbLngwBNPPixkwR8UNCI8ERPQjk0+GSqc+4roctGKVqBQzJmqtD6w4/y3rseXTfDfjLBhiNYD3lQTka9YPmV4vKmQLIRI4W1JdEP0o7uMxU7mWJR150Dl4voVKWJXl4G17kFmiaJ8tspOkqSiy3426NMSVzySqto2bJx0ctOWc6+nsthwZkZZWPdFVSWUMzFQoymGDZ2QkgrWq4y89c6mHUqgECkSSwoWadUs+yw7Gpn2JzNhZUCdHSKNvIqu17Etam50LQPELGqS3CdH0JCYl7IRHaN00AcvXkB0klgooyf5EaXB2HF+0+S2yi8H+KUg94HsxM8jKXRafiKXL1CRx/RrEYSAinIAByrC1MC6P5oiTu9iEbicWnQE1f7TC0ILT6T1jgMV6AllYQFHAN0y/nP6Ji9YvHWtJTx5xhLsU4p05OnfyI/6fcAcwqtFJyo9yDslPhKTqBEvVyVnbJVOk4lWSID7i+v4vBZxLUgpGx7aCKGLIWirbarbrpQ7YBsKdPrmMGKkJhp17riUWoBMsuvfZg+YQyVvlHylKxDCqFXbk1bx6u5uIdbdbC2QdTQXV1lDSbUlDZeZlm4cq+8a3WIIfstfXzYD20Rmg4Gb3ho3ZQNVJUxLrHv5HHaeXRH/PaVenuyHxciEqylFSUn9Au3ravDrUDGL+jcN7lLIIR8zKnbVzFUuWFdJ/mqtvdKnEAYLzbWetv4b/zmleR7wKa1wzYBaAfFSMflxJvIo9yNWhvWeeAGSBi7nbgq+GQsI/Yw9AuWQwZxBuBWP5M+AwA6rJYpuRT7hFtjoJ7PmuGGg7flB2iRRhYbtY06MrUZig+GKTbCQFeZg18DADL60FMp+5AEcoprnhhJeGVQcKs2vyG0nGtB5KLnE0MJcXRx6YlYqaWRcxOcbybi9rGzZCCqN/NhKeHTVItW/5CQUZ541yhpVwY8bRddf5GHq13RvZmPgOjmA3z1yU85cYbdQrO8TFAuWbcZmv1Q6jqnz9rnlO2fAA3o5bd8tw+/7GDzsYbSMZetGg+doI0Pp3tb4brkQw2nPxva/tFP7InNLlxiHOdf0YK0Q1S3FdlKlJXgr7or1nr4jT5utmHd6nsSVPHiZwtsxBJJpUduHctQjUzHDz8x0l/1aKfaD8+QMvqJQMnG3hsfeJLcDt3YBN5BBE0D3YhO7w3sVXLHkJshTPYqB2YPmUYkEh4HumNQlTxZ5RUTFcE6HIAtbaM6Dq5JNQiVbCekIb8ShbY17Q3Lzv4rRkobOsPEQAZOEUuXamJq4Wprir0z33Q5G/FapcrDsurIeAusN9Kk31DVdrsyUhCfXWZHicCrPOxBK+Kglbjg+ErN5dojO686wFoKEkPJwGwBl0MwyzJFEnL8oc0TGnTvJ53JNnH1A0DnKVvGtpI3iput2wHbIpRX2S6X9QnRM7tTdpZdx472lDcMzBWi0N4xVCwmp+40MNXLILXEMekC16sstEfTStZsCI5vtZdd1VWmOvvopBk2ueDWbtgI/b3w/pNkR7sNzNKug+pg2UZglRLcFPCUb+ciB20rsHEtTJ3sGWRVj+/3whSHHbZ8dNKRdKirhmmup6NXPXJTbc82XAxv1QPQcnVrf2Gr3PWIKfWtVCM69qM/1UyFn3hC99V6Y2Bk3z69mRX+DNO9kz1ehigRIKReDdke/si3INZdsK9yZFDCBnqEypWe1atlp40/0KuOJlBnhYBntxWs4iNvHrpZSTVNyRn6FrH/9rORVmuu920pXobrIb9ZboReFaMqhEEM3FEIWfFF33B8CKVqtM/a27ZKtqMkijnodiyzPrF3WxspRQ4bWYFGadhIhb8Bis13uVID2VkmJilPK9vij2Nccnl0kxjm4wJtbWvZRgjeLGdaMkmbNnyEmCwBDL0iX4PfvJJ8L01DTPtdheKq6HbOgKbxCRYa8JMCokSGTmPwFe9aIMMAzdIZ9HOhTaSx5MAynOBEILoHifVzS9lIJ7Xd9UA0xK0Dq0qRN2hGfLu9kkHMdVjYq9sfANU+uveRs601djAigC676afw4ws6yX9Q8yda2gk1VgZfwHcmPmSVZBMpRWR+Z8Q5Yuq84JJoK0WwSFHgmV8yRY8fEE73FXX8l+sB30aJiHq/uWXAc7IntgJF/JmXPBs2ZLdsgPaSeh0LUxolqMwlmJsCsa9EfLldhVYTkY/l5ngaQK4MO4dnXTyl3vJQsgu6TR3PatsV/fFdd8Y6skmr/igIXU4bMjk3KQVbLfs5BlA2EV7Kjl+p7YzYSgC6/TDWRPMtePESR/pLRMsmrj5fc9uOeOj1xQ0BW5RkwXWj9A3ccO5NE+8QrXzobqE3+jT97YFP5+yT2rY7BxAoJ7UDXpOltSN3gNcM+FlenURdMn2CUI2P8mMg4yESNSAZtgA90hZfgukppTkbiF0dGiw0BVLVXSi/xMpBpVxJcBQVLzrxn34gH3ZIXZxppLlIPNWOuAg/7YBWCRagYH6qI55JpxgbGHY6ieb+RK50W3UDRR52BUQH7Do2bU9pwwz6JHObny0MlTjhtMFF0lvxVNysWyL7zXGDlGqqQidFD7VobKDU2mzL2KRAfU1tN7xN2Iu2LWg7jkMJHyEJW+XbcPouPGilN+IojmwmlrJSGZhlN1ZchWHDe6D6kOkjtMJ17QatbZIXqWGZMhdeS5B3LErVkY6ROWXICdg1aaXhqWuOxe3HRh/j8L2fdVtp4OqHeSZpz9qX8yo3HeDXjSKgDqJkkTOlyckG3AiSOySwDNVBn3kdhyuIzGwh/HQUrJwwg9b+OplvNZeDtQTPV9h+AC+GLHlDqCVdF7BpIaW+EvrWx6uOyI6rpTb3mWiOjw1/9bIHOEYmCnKbnfo55gbWCwOnXuJd/UbY+9ZTHlbsYZeEa79ptEhsgFBcqB0GKBdcxVbI2EycOQZRiYL5TuEbleetKEM2bQBZPSGSGOmocUyF9KPozmEXX5t53Qba5bZFL4gPbG6QJ9C3vH0mEcNoj+UVJ67nDZ+OJbbnFXHr9nFt2EZXO35kBeTyGKAtbmIyY53Yav9Z0eXFSo6n/ZrfttW2S5dKp2kqI2eKQNjYqJgMzJBZL/IlHRs19o3Soy/XCRBa071PnooQnmN2KVqGWFv7J/GuWOkpA0bV+L2I1dqHmSSvRbpBqe0rUAaxEzfYDjzBd4bOCEeFa37AQTqptS1XhKZmh+3umDYY221Lpe6MSbb5M22YESsqdmAahBFRMuXiVRlZF/vhvD3Et33ZKFkU7Ddi1CAkjvZXiPSKFo/yipgv27ZHIULw1hPBAoHrHR9/MCNg9Uqud1ywTV31QuuiNmyW3WghFxrFthpwAjd9lTPN3Pgic/e4vo6NJNTir0+exItc8U1NKRC9j59SuRv1BvS2nZg4ocJbhTsFJe2yj/OqsKLF4ZV6+0gKuwGNtvUJTvy2TRuLx2SzifhFvmMY9nFYYYUVWi6sGSu4IdcOgdgoO0Efu/CjnxREtjXCq3Iy2wytbJT+sEFW5bUNzpzPiePJFmayrbCYhNd+lF3Nhh5Rc9NU+XCT5JYANiZhTxIcwJok3bBqnPegB29F5VamaBQ5diq5XORqHbSBWZ+y65sd3rZcb/nJRFciXzreg9IhE9++sWVSpBKPkokIatBOvlZbqLZ+tiImLzTd+4mFn/gCq3FKnUDL2IPicLuGHfqhZJ2n4rpl2FUqHfOA6i5bntLgBCY1LcrxD6vq3gfYiJ0GsusJPzjusxRNm/tLhF75Gi2rZOv2n5PfZOtWH7SDzhvWSWpMxQ2EjM2UWyyrVPylHsbgegMzedNH4gQdy8oPj7rp2txs7dw+06MbRJZd22p5AK9TdgGltlmiA+0XKeu6vAWl0z5ntDnrOm3KUOoasuGRVFM2qpVVcWClrRzTtCOnPb5RYxKb/IIPPEmmEQzgyWC3FJodcvKv4NYmV8Fc5VsmPV7KsuvadBQiUgcHgluWTuzblTlFJ/qWma4WQDV2o2ydrreNqgdFg2i+fNIGJbz4NtkbqDhVwXafrL6t4USpuAClbhN7x2r7aLLhDp/Jc2sYG37xAp/N8mWrknmOE36Ok/V28aHc+bDbApkDcjRRN8x1H6e9HDtViitYNXWHal9p765duzQ5cBcRmaFFvE5xNdwhYNoaQ7QqlV+zXBWX9pHM2R7dH6vfJHsa/RWZ1F3ckI18+H0cTQ+19EpR2TwnIcMY9FGYAqUcG01EsWizYNnPm+ckgEzGto6Nto4hrrO3TNnDJAmYWzFm9QkjTJpRLFfabsZ5oWzFLt4LNgOjbbTv+Ic2x9n2hr6QWEq26k4V5yqLDW3ql34rn23SmaQzjif71ZeTxJpKBnzwlaQi2bg4FRSnE04ygXVanVttBBojaU5oLsHXX2whXjRh1Y/MVqyyYbbdchW1jokUg9EbeSYW/pKqLOFRFPrZSmxDLT0lSO3T8qVkepWKLZaYxR8YjsLogYXeaN/Ed6a02qdqy8ZMbyKZ6drZuv7c/rmRAsWVFDlg+yWfBBFquP4j6WRe6YLLOgYUQxFSs1T+DOuH6gr1DmCNFSI0C4drueJZjnrgcddtqLEQPsRiNLrf+2AWevK5BtCKLInaICMfdvtx3dcdeFHKOTH7Cm9bX8WzkTH2sDe3KRg2SPioYnhr2fQqrpCu9+yqTF6KHXPLINH+h8/iDSQE8zNR1zkpqls/9bfp1JVKxInMEDH+8Jx6BAuuu7BWS3brM+Ct+GCTZMWeobM2JKggOAH4DJw/tnOZSMza0Kj6jKv1oM+rJgdOx9OIdOIGIrot0mHJVzl5K4fhZ1BtxACd2NGzoo2kKElPVCRqyjm4tLHRsXrAqi0ePBxYbeMhvfVjA7uJBbr/yr65wzf1vLiAbqViaVeyKZPKxmxHMNfsyFQF4ZJP1fEwqQnWt51CqySzjY5/bJKhnlUOSX3UbceAlS00HefAEtLzCtzkPv7mOO/Vua/SVcRkxw8xEcdGYnDBCbn0o44SvsZJktQlTHQ/DuMxYXknk5KDqaeKt0WeyhZs0vFXqyInaPBzMSZWSxW/PGRzH6efI7vN+BbaU/KurVgpsU1yjLLn1PURM1E3msdFpI952RzyRVPWdrttPndgl8FZL+1VQg+yC0nY8UULwZI3zC56w7T0FX4T45SYg6ZO+8ArSXc9QbcxAlHK1TUHZ4iUXJezmYTa0N3SFEF12cr1qQENldCwOSMdGbS9pjm++qxd6w8QV6l2fBZpP6Z0VWUJ2z5kpURvBdvu1CvN4dMqtj74KphiVBDupw4IJdsrOwym4thWzA07Q8s6LRnYpycG2VE98mqLKpmYKhbt2otvs+oWLwOf1HS04zG2Zr+yJQK6yBoiWy4M+7BbGMV3iVypZS2/waPkmmSab2nTxgka407RoRiZrCBqrCpF3BGZT3wN04vnY4r9omfMk2wlChMsp404uS30rWHFQNx9q9g+Mla2sd1lT5S0OW0PrvUL0API9mMC99WQp7w1gfZZiTGjQuKRlGwQN2h60Pajhx1qu6qN1KGPtpBEXT33r0i5kr7hYaHQ8itWOujxqJ3rzqu4IjSrzKbeBx/8dtseqjHtjMrUCOLroNWlRSlYdFW2rEuBy21OqdvtAdq3FUWjm+cOxKcTW5WD8DfRRsQzu2W35GT2sZ5UoLys+iEX1oFvvrHGOpKphYluot33ZFJJm31WaE3bwDDa9BIe6Kkitn3Sj8l3apO5oO2saNn6K2xUAkg+BmEMSzG/trV0LWXxkpzaHbkVWw9tIheR+izrtqzkHMUWsDOXfLKXbMPxbUEoiWu1XZOIuUXXHz3sqDpWoX332GwfbueUtBuyHSO18FN2e6eUlzQ53zC/6osCC0qTXFj5jcE3Zgvvg1LCh1Nq3reXuMO/CkqRVZxMuAnOMH8D6ltfPLg4ZeySWsp567eufbiw0kCzk01oq2Wn8CEmSQ0oX9HAZJwGV7DdUHNMU4IkejopqyiIsN1ZUzLmxkmul+Y2Sp2NjnNKHd2+ArWZYLI7la1HONqVWdcNySCXKNcDhQCy8DDTfKuZVldOMxITG1V/FY++G04C/GOf/wPt2xrzZcNB9QmcauxFB1nbEg2NiA1B7chLp/uEcvGGX7er5MQy3faTg171IOi+0OZIyhZ0/7CG65ywBGOjQ4RqNx/tiGgndIxeFajuiyKxMYFHREJdKIhh3hCocEhFj+v0D21J7MRUKyLl7jMhKmm3c/RlwO224UDk+Cg6ch1r4pWAhaKbfuO84XOydXxNKtkJ1JtGTyTO5KjEj44X0U62+0VB64SMrYzb4bd8ttfhr3yCsvgbEHlkbdX6+OX8y1iB0vFu+FTyXYbk0rbQGx0PefpU+sqtibCdxpqL5pcPdJy6vUF4FDqtvPfCh5okrwEHRdnqNq0mDh/QKaBwWpqOC8+NqIbCjdxkQz7o0NGjMFazRjooJ7zZdBQbFcEDSn/hoWCl1R/tsAy1dHaERMJ3IRTsJo9++OEFHqxsZfeaMkJScHwjDvhhmEzxGpRMBK3r/is71yiZ3PEWpIqv9VYFMbZiSjh9GWpPHMAToYrjBDCV26WaKMi3+sOm9/jTSeQ8J5IT8qU72mH5gBhCo4RtUwqZqEKw5SiuAkL7Ivbox1f8dQJY7jJIPe0kZp/cdTF0H1h2lR8wObY2/UiHC6L1EGld+iSlQRKGXtUB/NikRnvR7VVkEhi6lTbPx5apNiiZgjlzsh/ype9jPkyUDWidxCQhtJFXCzo26hN5pYvoia7GnKmDVfa9DdWUTY9obJWSkeMPWtdlK6a8FR9qklwbGbgmWjqkCRV0Nch1dpKLunYQUCmZqjpZyIKiQ7BeGTbgr0VgXQn7BPVmQjjkSvNiJMXi2xwHpGRaLqzhO23KgYoQilYORIKnaAcJUMZGN8Hx2QcK5JYYduC5BSlAcWa9Kke0Dn7LKDe39UwnL61imW6XFWnTik4WndCsTe4yOfUkEyM00Upxgv3YZ+ogvks3Bpxb0/26CvvowDBzEzYRJdfBLOqYUspe2TzxN8rzgNnIprpiagOY+aWyJhnZTCvtWtTxmCxGruXXNGwooeGQxgBvSvVZQyvOSDfQH6WozPKFkDd9GlUn9XnXSGmmqGUyZO/WSb6J2BjnGKnHaNhFTxW4KNpEek/YnVP8mOb9tfjAk6TDnYNu4JSriPnzFc1tRGAEtTFZoDclY1WiEnn7U5JIH2RTB0+Q/nygZj/2Xz5saYMH5q6i3HIty2BDv6+UtBWBCMEH5unkSxUdrtLo5JY1NMU5vUhq+6sNvLPDT8r2JfTKBT2coLLqcgKE5zS0CjbZ8RQP2pYNJHzZpZSwBHGx6+O82qbkWkIw5vYYmKGOPyanSX8obQHiTpRrc8WogpkrPW0nT30AgvxuuBV6Jd2xjn4RYiv19RMGJQNvMubYjOKRUav8WrQ84bfdzbuuGSGvvFIREsUcS8fdscc+EdbLo6oH3f7VZuxNEN20YVOphD2WPB4ga7+yjAohPlKKLYrYC8k8t7/QfvyYqATIo8cuOtGLnbQDSuuvgGyOdkhbo3wkXYsPvpJMDOUmjpwDBzlEgg6cJA7Bj5Pcel1GpDVD6zR8qpgEHUoYrusE6JN/6FVccT/fWrafQNKjJEM+6HbgRBb7dmfdLqNTfKfUEaliyRda3mkS5k95TMdWG0vc6zMeJ2SqjHLMQmtKoWy1vEnerXSwyie5TjyuilByQY4fIF73p2BbSmhtxDtN6muif61WwMtEsKIonHzTiWPGELPQsGnKaEhQEt5A+riEKoPjYkTcKOKt096whfIzJ0Rmm6GrYBqU6oOSX2XLeeW2Vf5Sih3yaxGJvhW1nPVXeerhU06yL3wrmVb6RtNaVrvYDiFZ4s8ku2X6EN3two6qa2zUIKc/Ynrldb3CNsLjmHd/yZe7KbarYlD3WCQ1rK/UMazklC2blO298YEnSftodLlyP6tqlGBTYPHVH28e/OIjcs0D582B1bwNoAqfLcL6m21aKjzrxm4FEfkWAsRQetFZ0XFg3zFO9lK2kGVswOyyR3GVKloYposxeEXvdhn4QIYdwIf9BBuPDiiPOvJteYMxUbVpIAVNbXTM2hOPTSQqaww1tyL14lNNX0PLIO7jsvYlgitcnWk1TqxLjKuLkTiNciqR2FJxndyE1GcQVo7dCutQ6H5uQw2qMtjJpKJdi7axBh0xjqW9U7kmt4yNcgEpu1S7bETfYtqZN2RTjvwc5xY5AI3LwKBFpuUmyY0yvue+i37RttBjqwgG3NXPLIOYE2UX0s62mza3PALBsFN1sNKaOvOrzG5O1yDED76SlIEEq6LjT9e4Wo0iFA9wU8XrwNET5g5FPSsPQgoVrs3aD6uTcNo+PPKYZzfJlM+Qq9xc60wnn/7w65ihlfz6gghaT76VRB5X04ohLO0aLnabNeiRQ9S2LDF8UCUWYsqEEr7jqrhFLZsBVLj8wUNvQwAgpJ3tEC81VNze2LZdkk0hmwR9tkY7WB1ElNWEpV13+4D0vFKHLqTtsTJo3qcciENQ3Wgwsw34kbHN2mZgPyvWxJJrnjZsYd91TIjmZLEtEFEMxDuIVZ7215QclpHQZ5vFxBQLASfGJu3M+EYO+WD2w9jAR/x0t7RtN0M7p6GHZFlBHpoXIJGdkTEfH20L23kRg2awlmI3/lIG1hm27HHIuQbNhbWetPpxbIi16JCh3fI3HkspqTuaN1aothLMsYk5eLbj2EfklQftN6VhYcKH+qm0guy6sSQwAuxglEObEphV1u5XiviEEoJW9NUOHRBalJJiqU5Wp3XitQSyqiaGotsmeWSaZoIQO6t8G/CcUQMFDn5jS8kbiO22ZUNw+DO9UmMqY4GTvk/8rbCHWddo2sqLHJVp0BZzrPxLNkA+pbSbSTVyree6SaKYFDrl9IFHtmmGZbUz3xQD2Uw+hRhwMR6DNeKAMhT1vtMGd8SKqaa3tZZULp43YqgUnWFiQsu62LXSicX0FaMA5eRb7aCf/onOitJi105cjy1oq65ZAvbjwBq9a6dRSBmo3LFicmts28Hts57USZ7oMuZXy1snw5I1jzHG+IFfBDDK6Sfq6DaNJYDt6iSLv9Ad8kab43OmIZyc3RZEaeKjF93AApUSxW+JNhbDnoCcVO8gHTQFakVjMz2OV6DXUmAN7hpIyHbYPGlIrnyOvIHNOSE76yEiRqtBTwoPH5uDf3OFFHvRywGskxx2tdO28mc7XW8bobXPrBoqnFEYA6QnEcuUBatFN+VkANuN9k17ihC/44peg1F8J8tPNmg3q8aNAEEqSEUrlbbTE47hwqwfGfuZ+h1QyiVH6Ni0HyJ1HCwhWn8KITYqzkIXE4mFnJmmMl1AnGMiqNTIGGmbSjZRMl32ldLSq29lFEe/WWCLjymPvmBffTzijzI2KG7omoOK+BPPdPssmktByjNlillYSyVTNslDU13tzXhv2op5ZRlCLR68Kky7gE2WDO6nEAKbsJDt+SJqu8imvVYRzW0sntF18vIBIg8ZfsrBRkVo69b4oCtJgkznJhZ2xRJ9ro8DMKIagioRrDrV5aLE4CwWGxpskVdSh/XLGeTaByqTWgDBk4wKzrem/n65yhx4nXHpnmzo5yTGZ/zHHzwz8WJZ4kvdmoZpQijdBgaYKLKTiwxyqMa+daYyupatjb8V9YJh6g9ovTqcbSXPZJsP+rbEtJXcgKtFpyK4/fpzv7gPWz4+Rz9VvZGTq+yI5c8ZehJZV6mNtLRPqmmcFadjAZEQMKsCttx+/VlDZbaot37KcRFZUn8OFl99W7cJaTvexGxf7stuA37QYZyoNtLchowhjoH9VAoYI2QdR3RIbce2zJv0oJO5GF32kVsv5NY3xwzbmDHsdtslv2sXY7TjR2ZTp9xZHg714cXPlcWrcYKMeVZa22Ep0bKlX8Z4QajktBt10P2B7uA3yt7QUYpXaDlf4tfCEbgGGYW/PYbPbqSpgR3Co4EJKI0INUjjO/YYoFL5SOy1tU10oNtciO6YLWhKzOFHkTI5QJgTkmRtU4nbApvuVEi85b91yoZFtRviLlTNvqo6kUIMWs/WvKPmnjMP29Rn/xYxqDQh/JLagC3ZkEoUqSshNya6ch5d6pBUt/0tNlXJiVSVysqEKdELLXIQk7lJE7AOa/VCe/mQdnxUL5tj2TLKKjL9lHaFzEnex7s0KAvDb9WtLUWnlSvAj96awonNIDoVl+jxs1UvNPe7Rdtf5Ol/FfhDTDnHJRcISCYKm/GtaPtlHEIy76+FpeWzL2bRD7bWLT1V8eDzWcRccCcb1mt57Tpc0e3LlWpTKoXZJ8ddZarO0Ssefif6IFeyrOVnFK3P/0Im4EyURal8RhrwwSbJxnDQvbEigRFwZMaVdosoNCSStG+TQuqhYSsDPzpcvS1jP3VVmHVdwQJ09latvZJD0aaVAxOjb6W9sukVQZCYOXBlE1vtTxuSFi857VBzhn2r2OfguJ54XSruCigx512S4NXidHC92X5D/uAz6ZkPJfrdTq+Uyp4Dkhz/SzwrUWjhxS722x5Es5xDz3NSK2myyuC2HCg+tFWxIB+hln2S4xbVjIpPlayASh897Dpe7NuC25FjFj7/vP5S/QP72IgPEIq1sh+6VY+YEHvA8VVyna3KjY5zplN23zqO2MMX7irc6HgL2oOTZWc9ytFpQKLebe39LLPq6/i7Xn1XiXpjU496xh0ytuGVf2Iyr/rWY9IasTZbcX3yM/yWkItF81Z5BTvgKu1tmUoNSq41zfwcG8cJd+rDjGva9v74UJNkH7jyazhoJWgkh2YadQ5Sn0zr4E+nV+C15QRLA6izH/7SXXZAvayozCowk1xsRhO5TpHN3vAJmcRJeunyJXeqnDuVBdvzRIod0PxkRaJe8iTtfEtZOuYV3/tZ1vsgZVLJR9hl+sUnRNMlZnn9OVarQnEhLio5PgaGB4cJliG+uW2W02Yr0LkgmRWdnvy86rYULtsGcrEzAK8uPvGx5sVOXX9EBPrka50kMSxLv6pOXCJwuObJNLarHVtpk5zhJtEn9E3Lt46zDTszIIXXHwsD6fNOo0Hmlo/hK3H1AqLcDd4M/PTEBqLXGoH7zO1TZZI1oeqxEfKK1fd2KHXrdw7mGEJiV5aQUzy2LRl/igOyx45i1S6Tb3nvi6x1YnvYAtQnX0hJ2jo+9tKzRsnZlqWbVnrZmW4byBGTKdvjQ02SW2HfxOAanbMSHVyBYlLog1cNBINngxNfdqmZBCs7g86ItqBC7CqJftUTaFiBNTdgb3USoWptl1ty8u96AXIRbXUwqw9A22zekAEbgVV1lrfVqIzdFp0SgDo4+EyWxAZtJAtJYUMrepxw5vEXHuKtAtLf0e28ebPcDEjYrXMBI10QI/pzn+fxR2Sa1q4M8aDnpIt1k2uXWuw5uVZQYUyQ5rX0ujfalxWqKAybSokpvUC1UzAMWH0kCbgPu33edRRCG4BG0tgMTal5bbtlXFxtDFqqwdAl5NU/mIrRnWRBaFUBKqe+0ttEkSdQqWQ70WlqdoKCME2G+M+R1KewTAfOLDjFaYOqdxmgbzupWqX2/nOR3fb4UJNkd+JqH9f26Hj6AMAfS96NYOoq4JlcKxPfEk4HDdvr2eQTJh0TO37hcpmrUctA994kl9kJjifakdauvAhQEjMd2rA8voixZBot69sPbVv5qWkjzkqJZZW5BhMfWSfbGOQ4rj5yqKKXlLeKTP5ySzomfXhlgywUUwuhuqTMOvT9KjBg3253ld3+0kGZGn9drzxF9UV9FTOTWoNy5LxSdj0rELfI9LSlqgXplF5WKWH40YnHS40/+kP6MxxD/ZdD4JbQqapCKnImasE0mInIehnTrm6L2El89uDjhn6UYikyCFuKEIZOxo7b7s1iObZKNgVst8rGqn8NJIdsx0I5djkHyo7K3d+JN3z3oe1Cy3FH26QG8tgtPnqJBQ3sw4ehP3zYT71U6uMNpGMv0NEpH03TrlaolM3Kx8HwlT+lKCHfj+gcbJgTysA2+FCT5IrVG91id+wcTKJJlXpYHRJtpWK+BlwPXENMd0ahT3hs9uGxwfLhg1HfIOiDguXUcyBCCUJbf7aKbfJWieCUcFP0cRjLj/U5WUIVik57lMNAp5syT/wAWd/CUg5h2EKvfaQeWkna5hrPlFXZPpXSRmysssUyHGZ2sclgRU9bTzCZNKEQT8VM0oZkDLZFihiqipB2IBfifIKYLngwK7lNyLdPYkfGNLLYgoQ1u7Ld2LYcybFRr2zoFcFu1jI2Vjux1XyTRWv9VbbsMnaHbHhOpsy+cxysW/qgohBWnseVbZJWXy1NcbUQX1Hd/OSA7TWkgx5x+HwrH6RMvpKxjdiLP8q2bs+Rpx3ULO5i4q0yBadkZZTCgKRhC3xKo+PJp01Cljy+ahyEtNqA5DiZLEkqI5XVJrtJtvImWS7F98XvZpIcQVeDXY37dJSLEaNBU+AwhzadUQnodEkHsNnOZqI7hiVoOOoMvnWprydi5NORPijQayuWZWymbXqvXHWTUnM58TYfXmXFi0Ixynu0hVRdj2zXNxF+VYzUB6nshLIKmqydc+TNWvkDFWP2IH3uAyZen6iWMA3yRFcfIoefUhmoI1B2yzpCAvY2J1ogjeJjqCdRpE1FDAedUzCjYoYy2FUAZXIlBIMstP77oUOLW2Lt1WomGJwj4iRhy7MTPX2WcTjicHkTrQ8Gd2vBmXZb9a3Y2uV/C6JKLInHF8Cy4xgp68/HQX/DhduDwbTXYuYhF0dU2wbbgBkprpWVb3XrJZbeDGWOyYWQQCjaOyRNZTJitkNJPC0f9aoILplGKtnW2YIPPEk6ruo0NpAQtG/nwA1Pg/uq1vTwEI0CrGG3bF4beEsjnyU0Kw/ACQcHDD8CPoDt0pnC1sHR0l0HXGHnRwSOVT5ytSWCVXaGY8egUxeQJVXbIG2DSGuPr9r4a9gKJAaT2xC+zclXi6atsZWyK+Yj2/3jdmBQ9e7HSMVS7+Ht2rlL/b0rBsIY+qNPsCVmtvBB+2y/5NzGRsekobVayG0lyMqoxk/ZIV3rs8rQO1eSdK2OpzFoWZ0EorftuR1JkqoyaL/alXaswDZ5Ws0wvlooMrKTquXZ2d80DoFZKcamC6UvBrTUN2WBadplRZbxEb1OuaBZp+zM6L4ZNm2v4tMf/fh+gNsXT/e57JGw1zFsRcLQ1o9IOBai2SV9o63Ccnk+Rj0+gG07rTab3udto9sEJfv3xgeeJGO8kZIbWiYTr3bVSWxrsEodmtoBzzpVJ8WiYJ2uI1z2PNlNekLbyV5A19za207KkeZgxI5pES2+qPYTe21zyAnDDzIIitFtxJn5yMLXgU9VhIhaxn0kWF9/IRc9rMThEzwCsYEREijBhqux4VSbKk6RVk7VpRW2aNuIloCoFPuEzpW3+gyoag9DXpiYKWZvy5KzBdrV7UDVyZZgRlg5mtD7Emg/zp25YL0mYJfM+xVzPfJVmeUmOvksRz5fWIO5HDvmK9EEuNTRg9vtHTS3M3oz7Ne+VDF7lokNYLkpbWDQQm83ono/29mEaGLbJjUpUu7JyRKipS3TYsI1eOziwal0bM8TKDUJlH7LbSK8IAbblhcH5Biac9ke9cLQ6cQWsWt474UPPEka7a3QB9yUcszAdIfqJKfuDjXPKmtXuCDiIFTwVa6CEB/pYGziquUKsJsy2fBmBdSJidWDuiCv0VY78JWtA6ESWSFFWheMEjY24lknBGjtn52L7IRr9S1tEiE4liET+Q5tSE4FF7WzrRQGzWVIUFIITdkGIpwiqU6GhtkOgjL62YIKDoi0yY+MJaaVXWSaq9wNhz6nkqGiUnkYPOIxrWz2Mayq0boBjNRt2zxkvHe5c3jzJOm4Kao+zFe9JFKuRBA5jpBzHliq6CtKp8rY2WDHSYqg7PviPND6waq/UiF1PG2jTTujLlgC/pa2h64/Jj5S8XA224xd5SZRhll2I2l++135BdyQVGz1ORb7UH1lmpwMnpNJRmyF3vz3w4ebJAsdjK8mDtbk6oRN0LnjtimUZMSbEn08sDbAzXI9V4zwYFtkyMVi7KMRRC41WOMgb6Dqzkofvdr4a1AsqiseoNjsiReylC2nfLxFLVmHQhzsBk3yFoG5wjQPwlpLVZgbKL0846uLE6tPbv8aNjtZV4ETtU98x1mDPTLRLbUBsQcoO1U5kN+pf2NXPpxW4cQp5IBU30HIio1/bcD/A7JZ+MVb40uE9mR+r9YjU+7Lf7WrEu3uMQjvcr1xB9Yl2S6uy5CwUa7c/lI0sWXsy6WiUdfxaT/QOh4srOWcI3n80V46t5nhEKqr1iVfx9GMa30Ism/9ojlRh0eZPiN5s7bHl3kieLGDbEMVy1YMJnEcS67tB2t7Yq+S/PXFg/hA6PELiX5zMlcIMUWlvPhTuc2wIVK1GYhMlrbFh58kp2BZK40XLCGM1CTQjbQGHVAqsdQJoCR+ba5bmINQE8ZIq2Z3+KBpl1r2K7bU262BjeQzeUNkK2ZzKlNd5Yug3Sy2YbD4kEJWj0Bzm6XnE506vLLjXaF4EUc2lbYFLA6ZzXzVOwaLr3rGOL7Ui1blPAJQ0buitkihtWaTXSb5BDK9/PgyH0HqmjY9pvK1UpNLLhX2RTYDsttAfTBGQaXN8tjQcSqmbOFn2CvGenLmZG7xWR/qNTpK1DxZTzQUht4oV5LcXNduo+6EgwkibfAbFHOhoF3l2/RNO9FBqFsZnYB4kYlc27etYa+Sa5W3HGlDtqS21KlRsm9y0VMPttoxkJnkVtMlt0UevuVb8H3wO1lJbg1gLanslcxM2USCpeRD5230RjW5G48LSm5YXVlaZsOD6PPVOrbfC9LPF4BXGVUxHa+gOM5mwQJ1++lY0Zt0K4bZotFisIpvbBOz7U5tTla+rFa6AjQ/9+UqrhOjHAxYyyeMjYw+Kk58mRdq+M3VBcpPB3PF1pJHJS52Jglta0Vqak/bKfsjaVtVVBYNq3lZVP0gmifLoodkTeuPaKPuHXwTJt8NWy256Mzy4iNfKtAzmaevotbyyKquvu4VVCajdTUFLFM6mLX5bWyBrscm9nIsV5k1HsoAW6ONg+dK9qrzdU2T27cq80QfbWqJ0UHyGErtob9sX3/o+PySqOl1Z2jNltVm2GFsd4y2I6wxbmLmOzpVy5p9GNipIj7s22ktwY+/6M/yliR/jxhmfOhJ0g0pRwmKEqH2gaQOugCtJ7CWD2xrnLzRyEFEPjTm3F1S6iV106NbE0PrXzO41oHh29Le4FskdgF0MfhL2cTIRr74xKu0yUOY+Ghg6xEH5XBEmeStIEZ8t2BRbWIeYLZrfTJbcjkaGRzun7K39sE6gM1S4haVWzvKSISbsvvSx6P09RcuxTq+8FXvZ7vdpohHB63xoV/2OF+rQelZ0VVyUt167txlH/iHNeIoeWRdxnS1G07GYB/zlDsFsjTFQ3k8DrJI5GKRPpFu9UvzbEPtw2TGNgXKs7/VtgrW3xybK9oXcug4li2AEmr3xDYov43VVsea2Azl3T+U2Vqe1GY8XoYdiZJKZwBe8Vt/0LBNu0nidwyT9sBqWwXsmLrSW6fz+Ooxkv7Nv2eObMuBmMX3pq3t8DuZJO0J0AkEqL0dc3IpUO3cQHP4Y4BZJ1Rj2FknRECDswkiu1QdjlS7hux6akZMeud6ebJQ4pvS2FZQNg39YriJgkmmlVTXs1uT6uapZqA/B6IU/izURajmBOWcut00p7JwNxxM1cmOoZ6UPXclAs20jww0OJDjS+jGg2LEKieUMrNT91Z8tmK6VEUDP62G/JjIRN25a/eyd9/+Zffe/cvOPfuXHbv3LrtUhrZLPM1Mlm20L4+7pmCXkgtV6bpRwVioiuJFfM1XrGWTI6D212oq1SEVG++dtsP2VGHufwE520l1wPWJjhs0q6fD2+Kb/m5EvwsjK2zWNgQFl8r2Sl37GNqIueJwLKVDG1smj5qgwUgRTXj97J2nM+GlBRmH3pk2T/xOBetCcpmdycFcFj74JImDcrraVGBTI5kgL9cPRlRbYJiXZtCecGgQG2iaTpOsIurq0LpzjqZ5sNFzbvUNQBqDxGIM6HRiVkxM6CnHZtDtcMyy7xVNcRNvLKfc++jZNvqmSEr6a9tMSEJikoNrqqqhzzaJhUmgZG2DPOUyb7+IUHX/FWNYU9U0pdmvWbYTHTZMwWNrGXSsVzzsNByzY632WwZEflQbXOl70FOFJnu79+xdDh85uuw/dN2ye/+hZdeeA8uBg4eXQ4ePLHv27nN8Wemih2GO4+Wpj4L4rxgrTnShJ1aTXF7HgvKqQwdRVy/UStPySuSmkywZIB/7SW17tgmQ23iEMPFadqvtVWJFmcDItXz0lRzH5CNWW5HaGocf2SCnNExXfzuCejMyIhMdXifXTabsv+QhUjNvyHcfqM3NT7sZoxnTltXmlbjiA5EkVwkzKvvOpdo77AvlYqUhj4+iD0Tc+NArSdD218kJp5WoKpg0iIPdA0KJGKuhrZrgQwOt36nljPJhU7DZaJxF46siiIAYTBj5wGrHiJmyswE0N2mxoD3kmTVsrCeP3YUVQGMjZ6CZVvRK1KNWfAMLFsSJKZGNTOzlpPYKXUCsY4efE7N0epBX8oXBz6pS39oPkBvDlmXLxyRuv1VPmT6JDMfUE5o2i7Rg+bV/gYviHk2O+w8eWs6ev7j85Ge/XP76b7++/Pv/9c+Xf/+f/nz567/7umg/X86Jt1eryn379sU+7bdt7Dg427TVBEMhW8clxH18r7R5vLZspxVds0d8YWcSmavwMNP22hdALhHAr4JRfUUJ+ylZfkX5hV90bM+Trida909DsqoDx1IbmE1D2fBPsr+MteHXW+m6nhxYX7vImpS2V3zDvnclIFBCZ+2n9B8allIZcbctFCuhk4tk/OzcpUWNH/WEB32g5IP2cy0+9CSZRpSDcgjJnZ+CmzA61XzkaRqNMdf00Equ6GsjVJNaEnaLSKe1Xe83MUTb5AToHh4SskwZiJj2rTszOjankOFaouWLHkTXJHZdkH7aOvFKf9The6tqoeu0mzRfYQPalBL2eyCFmxx68lU/KCloKUXWqWkr5rfvW5ljDAiZcqIfsXUfXsAkuWvPvuX0ucvLMy8eW77+7R8sX//m95Z/VPqnb/9Q+feXb373J8uvX3htOXH6vG7F9/miZ9gIPqlzTOPb+3KwxkSC2J5V704TukkgOimbtjLYuegL1DZ90Iq9b/9rHMHa/02vfjeteCIMMWiTP2dmFgH7LiCTnh8+IKXkHN4GRnVccqJrfax23DVhRYCS/XqckCBD0y71khm5UP2w9oTg9q+wZqm0906mTzwImWumi4DtVazCyFWw+tgV2njhg0+SMtIHuduUxig4O0Eg5umgcSJvSYHK1k3U4XG16klUcGN3wi7poTX06Go/VLaCSYPuGCXn27HJLmSt/2y7NeM/fEuUQXyxGuofUmUbvIrB3rzULzsQy5TLgtsBeboKurtQcvwZaPaBTJ2AQxY5YHLzJphdMlPe9oE1JiVbLx/ue23YXZEyNnbuyEsUuya2SmOFUbLA8XUd36rzltVtg0x7PU4yiHfv3r3s2r1v+dXTzy9/+4/fWf7Dn//t8qOfPbW89Opby6tvvL38+Imnlr/5h39e/vJvv7E89evnNanutg6PQfDVJ4U3motfByp/xGn0iVw1Cfmria1byTot56szpOmioj/8JHY2k1YbKgPK42UQddNcLPtJQw9e+6rjb38CPLPhR2zouY6Okm3CY5NvSrZBkixttYzHcu4Owi+7FvUuOSi93IXlfGGb0bW2bUO2CFJ2rWwSNzb7hRZ0bEAHHiv84A3zSutoG3eDriu1iwLjK32nVDEgnbjKlBTjpWJ6D3zwSRLQYTh2pdzgVUXcZpMEck0f0bhpLvnZBx0qIDdWBugXz0tob6w8UqLcBxBLGQqB6cOX0GWT2RXfRVHajttULNNCN5Cd68C6kYI3822pbFD2gXeALZNo0z9Ej60pWS7RxEzlqsde+Rh7+rIGRwQNDzvrrrRoKFfmAee6+CUT7qgK+COlBnmcvLPOMLPGsdoQEnTobMhC1kmyV6tCTopjb729/OyXv16eeu7V5erOg8vu/Ud0+3102bv/6LLnwPXLxWXf8sunX1x+/uSvl5defsV2ctvNSSB7xMV4UrnCxaGT/dZk2e1JjDXGkDOvd1F1v1oudgz4w0EwV5GKbaXUnNhykSg7ZbNl/cUDy3Js8BGrObZwSk+wjvs550+zfMGCl2pC1Y560+2r20xS9JGPP8uZvpYHf7ZVdLTSp0nA8ir7F4moI0u80MGkv9qfbKWaY1ZM0yRLfcMPoB6BFoEYOdNLHgb+XHh/fOBJEleTzylKh5coPBjDIMgWcS69bqDlJE+X+Aolujkm0xB1ag8qp/Aoh4ZwoXhpvCMxhki5jFr0O4cyDgt0865F4ky57VjQlWgUe9VvgmAR1duGM+0si4naDJgIFn9wit7PVkMQn36qvioL4qTsulZEbCtKv2xU+MIqE3b4gYSwbx/aTI4Pg8s6hjhxbbA4ZcLi2kWfE0b9rnbs3bd3uXjp0vLGsTeW5557dnnzzTeXI0euW45cd91y6PCh5eDBAy4f2L9/OfbmseX5519cXnzpFa3sd/hFDsMZm+vkvJ6MiUIbfTOoKzyndrgbcLS210zvrzWxwr5LoMq9cl7TKsPepaJlMpZn+qpWoETROvAGVLG87K+MyMw+aEdaIkAa/JDCNDFpgn2Tmjclb6OMcPnxeFnRK0X7hICOs+hv2C7EgvYmMYpDodoXrOGGehUTAanthdNUw/phW+R98IEnyd+ENJy32orA0a0noxvh25c1QmjriqbJNWlZDxryLhrdsd6Ud8exoYeJ0OtksWJ7KDStepuYhx2lKAaIbNySWS8m8OlS0eM7qxkDUzoTcwLTL9rqBMAfdMtENM4qWU6pTc209GnIjrcsJJ6YQIDMyQQGK/Jrcjy1gu9bFdDyQfpkrIJEdj+0iBJ+LW1eJ3Yhul8d2zTArbNDt817PEkeP/72cu7sOavs14TIKsQTHv2mMv+9j7Fy7vz55fg770qHWIk97QLDdhPwWxOkN+pOMGnDmrqNDUyN405dOTH7WPq4rfY8dlASHIJ2pvsRA22Au9qeMU78qltUsnbn3Sbss8r2Uzm7Fs8qM3ZnUKM1fatrccl0DMDtVNqqi0z/XyR0Yk2JY4Q/S5U+fCVo+PCYNRdyfI3xD6TTdfoMu+n76FnePmTRhuLDMXUfa+vFQ+Sh8/XWRDb7x/5vwgeeJG0eJ3a0CYJwopOAA62GGTSsVJU4WKtsJSN0TohO3Xg6bpc6nGdRTXdnkovuE8n8yMd+Os1+VTXNdFyGXizTw0995kcgoG5726KUtYsb5c7YY0+JfiEn1Vbe7J+3c6ywmCz2H1DSaurAgSRuMXft3o3FycaMtkOZXbc/UmSd1rqFJyBPjEzw0e0BvXvP7mVfxeR8/z7Ftd8rvv2KjWeFwPq1EYaPRzgbvMTFJMgzz4pD/E3EBvKccDy/XHbs0nqUtsHPcYs+NhO7OaZbXXBjreMJcdJtiUZYUaS89jN5thEvSCCigopH47BRbBf6WGxgsgU7KT7Msl7GDbB0yRRJiA2qloNnioARV9oPvHDVi87ZD70y2tINRRNbMIqZGNbUNJ//1Is2Y1IP3ynVQRc2WNVHGT8FkSg7SXD1D41dcZ2l/l4xzfjgK0nbtuttwQHtCQqpdTJgwNIw6sk3Otgb5kXkqsOHhnft4Yz0h4mXXUo7VVe+QyfIzj37nO/YpZNFidx100qeZN3dWsBqRWZ/2ik2ivZZvg3ondbgEq9ylyFt1Rt5NalUGzI37GKGgTNWZfxhy4mqrqg++bW6urJnuaB08eq+5dLV/X4md/7K3uXcZdEv71wuX2WVOUfRMVeijnPBV+nyMcfXvrcCGjFmkJNEk57/Z5COw5UdikvxXLii5NgOKE7lV/csl64Q/075U3s57FLmTnz0gQKwS2yqcOnSxWW3Lm5Hrju8HDq4X+VlOX/+3HJZq0vHp82rAq0YuEAe0mR8w/VHNKlin48xaaq0bY0btzf27QM643FqtF1jt1IwS2xBxTnkrRM9e7PPYLYJPd8Yav6qF5lxxAzbStEY465gjdYrQXOhFb1hn0WebQBLQh8XCWEYTPwZK8UsHnvsOk1b832uk1wL5pU09NWdNCuZPnyFB6yjPrhS/0UA2J9Ec4GjH2LDZMvHj2VtpsaCSitHsHrk3ws7xHxv7rY4L6vnl0sn3lxOvPPGcujA7mXvLg3OK+eWS2feXq6cO6FBfd6rOmZgH2C2dsMJ41xJZ0waporoo+HsdBLwYeI9e/eqxomGLQaTpWKDEvo00nX24VNun+y9slTpypVLy8UL55Qu0njrtl6gsmyyjbhhZ5fcPpvcdCAtzGiHXnQ7Nsixy994bui08q96FlG8mvwvXLy6nDh1bnnyqWeX42+/rTboQqF+YWBcuHBBK7cDyy03Hl4efvCe5bqDu8ftBg79DKgdF6jan3KHaRnV0TEFrPE03FyfqKns0SrxwqXLyzsnTi+/fvbl5c3jJ3T92eNjTrsunD+rCWzfcstNR5cHHrhHY0STpiY7H/l2UxjxSJeVJ/mZC8vyX/76G8s/f+9ny6+efmY5fPjIcuDgQbfp9Okzaucl2b5++cPf++zyJ1/7stquMaL4zp+TD+nrrzC3pYgmhOi9dkNEQD+U2EHcxxHqlnxG9ATxruWWd8mg62OUKuID7gslZG2vbDZdpUqhU7Q6fGc9aRK7CvCLhwwEP1JBps7D2K6Li7ZZPj7XWKxmigCvCGgMfyJ1+zIGY69tAdQas4/2Dd/2hOY3T6WSWa207Hisxq7SlR2KZeeV5eB1B5brb7x9OXz0tuXU2avLc889v7z4/HPLW8eOaRGye3nwo59bPvqpryz3PPDosu/QdVJm9iLJvpzb7r8cNUmeZJI8thzar9vBniRPv71cPvfucuXSBZ0wBC9Rmy8XNJTAyyWNy20I9RwkinwOkhXkyVOnl7fefmc5c+7Cclkn38a3XWQjBzydO6MkRO8Te1n2arI9dGCfVikHlwP79njFcvmiVihegTAwh9ZG2bb1l+MAZYaIZocarewHVfqd+2DG0KrHHzLKPQHWyvqADtTb757zJPS3//BNv8Xl2yY7tLq8pJXVKfXNrbfdtnz8kXuXP/6DLyw3HdXqklWXJ0ldoCY/xlTt/nL/U+cKVILhlbDQZvz8CRkdg4OHr9MEeXL55VPP+7OLz714bDl4SCs6HQ8msFMn3lnuuvOm5ROPPbR85UufW244cng5e+qErObksQ/bXf3Ytqp793DXcHD5+a+eW37w418t//zdH2hCZhURWeI5fPjw8snHHlk+/6lHl0987IHlyoXT6pPLvki4RQ467QHV3BS6Ipm5qTkG4blfKjW9eWAug9nbNTzbLydC2wo59KbNuptqFOAznmscFTMq8KpScbN5FVgXY8StUTu2qGivFJu2NGyNeGwvMGWiG9QnmXERYJIUsOMLccs32ge68Ga78CgqpVQ8ZYg1z3pKyNhPiTkalTUqdDpcWQ4xSd58x3L4yK3LyXNXlueeySR5/M03dceze3mASfLxLy/3PPjR3+0kebImyT2eJM/WJHnCk2QakMApZ0cDuZJCE8FzHB0EJ4PWjdZt3E6tmn72i18t3/zWPy+vvv6mVy48h2OhBRy1FcvwBuKTQeWBovKhQweX2265eXn0kYeWBx+4d7n9lpuWC+e0Krl4XrcCl8qWlSrPZG5LdkPE4XWbSsOy8bKWzSub5vFXerbVvKLD36GJ27ckYh294ablhZfeXL7x7R8s/8t/+M/Ls8+9sdxw40Hp7fQq8vjxC2rL3csf/v5nlv/7f/9nyy037F9OnTw5wie6eFiBd9zij74BSJlWJxPq1uSvYsRoJknRdPE6cv2Ny0uvvKbJ+1vLf/6rf1iefvb4cpNWjTxLvEhsb53S5HX78q//6CvLn/3Jv1pu0i3xu2+/pcMd+z4uGFMlHw2JH3yw4t+1R+3ctX958ZVjy3e+98Plqad/vbz2xjFNhFeWO26/bXn44YeX3//yF5Zbb7pu2bv78nL+zEndvVwm4Io5k9uMtFk0JXuUWGKJXNpOOTbY+Jv5wHr0lWvU8Re+j51y6xedfcv2LSis8SJCaeghZD3Zn3z4gqeETOJozurH5KI3jY8S+VGJmKxFWNlRhov/qJStYad8FH1DpjBPgtEqyAb1iK86lDYnyWpf2R39VfqAiz38tN1/Bhq+xS6g55jLH3us8J4CH5evXvJq8vCRg8sNN9+5HGKSPHt5eeaZ55aXX3hheftNrSSvapJ89HPLo5ok7/3dTZIXptttJsnLy87LZ5eLZ97R7XZWkm64m4b5dqE8f+F5Eg2djMQt9rJz73JK91z/8I/fWv7j//aftaI8q8buWPbt24+wECOxn+Tb1A1kMGC/O3Dvnt3LUa1qPvOpx5fPfeYTy4P33bns233Vt2ktjCTPu3bv3L3s5PZPJ75Gl6gWUEJMB5yDrlUok8Klus1FAnS7kfZeVWgM0l1aCZL7+ZjtIiQphOuAM6L3H7xOK7UXl7/8m28s3/jW95djuuLdeONN7lcmybd1+/34Jz+5/Ks/+Pzytd//7HL94d3L2bNnlz08u2U6ssFEjV0A7eLFi37Gx7O9BjESH/EwuJjsiNEWiK1yjO3QBWy/VrRPP/vc8r/9xd8u3/vBE8trx97VrczN1mWVe+b0O8tnP/XR5U/+1ZeXxz/xiC6k+5fTJ3RLzvGuWPokiPGAuidN+eBHLS5eurqc1O3165ogWbly0t9w/fXLTTfeuFx/9IgmSKK+pJSTtlrrPqLNbEXyCePJSIm2s+rs3xUAkY0wYQ2UPoHahpgmlax9CbYrHm2AxsnNMe7JwImNboRnZRRtOfRUtaMegidTM7IyXJEytkxGx3WTrR/fqcOAB81VZk0VXStdco9jZKexOdpMlVRG/XjFpQCZtCz2Bq/kTVM5fVHyNtzWm1arYOsNK8aoTWSsIWpbxF4b44VJctl5VZOjJsmb7lwOHr3Ft9vPPPPsOkl6JflZTZJf2XaS3PX/Elz6F4OTS5PC+TOaXE5r4tFJpXv+HczYF88uVy+xMuurupys7VdrUumOmJndHXv27ZXYHq0c3ll++ONfLN/57o+WcxeuaCLSCkpmL1y4tJxX4cLFK7oNv7ic1mR66vS55czZ80oXzAtfk5/0zl+kLlnxTpw4s7xx7G3Z06Su0O64/dbl4H7d3hGL/vwmWbd7/MMrCBfVjgvSP6vb8tOaSM8o8bETJikmA042BoonP+n6oPrAcoic+Q3wLqV+3ga/JwgGZCd+gZtE2YNbk+nLWkn99Imn/MwPs4evu852+Kk4BvkjDz+0fOLjjyx33nHzsm9vDQpOfsXGBOBf22YClzIxnzunOwBNkvT0bsW7ezepvrGiFZz7oYCOJxNik43c6omuRnHBevU1xfazXy7vvHtatN3LYQ0s+gE71x0+6Nvhz332477V3k1nyw4TYMvwVn63VqXcondfMF64QLGa3C2V/ft2axV63XLD0cPLrbfcsNx5203L7bfeuNx45JD01P+6GF+8eMGxecWkeDkufIyI2+8LlHXsLukYhnbRMhwh4uCRC/nm5JM+gNSncrolFzAfY/rfKXRLlommZ3JbdZzgR4i9YCemz5jrOU9cEoNyzinsrVMU9PgyyZl2xMI2+Vs1mhZbVqvcekPH5tY6PhqTzEq3dIoqN3WSHFRsznHYBjZNL5QBZ+1D/JpKjKLaybApYi5qjDstkPiEiBYee/Yd0pywLO+8/c5y8t13lrNnTvvF5/VaZd58+z26g7vZX3W1sYrid7KS3KuVZD+TvHT23XpxwwAsJ+zkxgeBpG29QprptYBOw+Xg4cN+m/vd7z+x/PXf/tPy91//p+XGm25Z9u0/aF2MuSOUzp45q9UTk7ViEp2J6gAfR9GKk29v+Pammoc/Jo4zp0+bdudtR5b/5//03y8f/+j9y/XXH/XJxSpst1ZJV2XvpFYubxx7azlx5oyuPOc0GeeFgfrbH3U5pFv/I5oMbr/tNr+N3aWz+uypU5qIzkoiPlmJMrHtYnWso3pWq6IzStjyrVD1BSF2nICr+L4Dh5Zf/Oq55a/+9hvLiy+/4VUiH6jmJOfxAC+gvvrV31v+9b/6/eUj92tFvEcXgtNnl9dfe2M5o37h5PdgUT8xkZ88ecLPLA/Lxo03XL/coMRHiHbz82OarM5q8j+rdp5RbPRFP+ObVx62qRU2E/iTTz2z/OVf/91yTBP4ufNXfHzO6SJCe+68/RbdZn91+e/+9GvLbiYzJu8LFz2hMXEzwPdp0DJRsxI/feqk28ddBDFx/IghFxP59gTO7ZMmO7Xh0oXzvpBd0ErznC6aTIQ9kWcyTEKfQ0Hc9AM/4Muz6es0xngrzttx+vPkCcYsE6hOKMn1uonjo6rHGpS+cLgfYAg5bDmGwNTakbkNJCjYiVrktSu1DSDiibv4xET7fZtJ5+GvVs9miYcgF9mAFmirMeALcdkziCMlI+ekC64bW2SoIzcWQIPsAGLDbeVugP4Ov227DdSVvBCIR4lpw17ZGDG0PPpFN8fu1lW1b6tdTr3Imtgic0WLt117diyHrju0XH/T7cvB625ZTpy9sjyr2+08kzw2nkl+7FOsJD+27Dt8nSxwppOwFQ+/BXqSPJYXN/Mkqdvty0ySF8+7jW68NNZG4iodMiA6tSva0aiDOonPnN+x/OXffnP5+je+v/zoxz9Zbrr5Fk1MBz2JYhG5y5f5FRjd+ulk27eft5u5leSFxuVLrEp2edLMAJJf+UTmEqtCTQTXHdq1/A///Z8uX/7i48v9Dz2s2M/p6vLu8sbrx5aXXn51ee3VN5Y33nxLK9Bzy1mdyOeVstrRaleT33755jOBPCO77547l4c/cv9y8MC+Zc8efF71aogr1NvvnFze0kTCB6TfPq6r14lTsnnWJ08GS8LrQQONk/mOO+9a3tYq7Re/eHo5rrjwv0c+z2sy27Hjsh8b/Nmf/uvlj//oa5ogdy0vvfjc8tOfPqH8ZcfMRMNJxQRy5swpxbZ3ue3Wm5dPf/qTy7333ONJ8t13FZdsv/XWu4rzXddPaqK/qAmDPnR8PhfV71zw1HhOgOuvv3F5V7fPT/z8V+rLc74t5u02EywrwYcf/sjypS98avnU4x9b3j1+TBP0KV/Q+ID4hVrJHjqkQXv0uuW2W270xQb9Y+rvl19+xf2/Wyt6JmTGCy/tLunCcEET5IP33b3ce/ftou5cnvr1C8vPfvGUxoVW/upEJsmsoLMqX4d2xhwXbSZmXyh0YbzrztvcJzffeL1Ofk3gGrfoZ0RiEn102ecYQfO4VvJxq2PYYx20V7D1NjwJRuRGjK1U/NDRM0lFJjsiKGVBESQwdhJk1eQorFB0yWRybUNbIHqsFewXLcTXNlVQbsuQUd5touxkTjy3jm1RByUL4NgGG7ImbspbsmhDz2a36mXnGCJmGi9tll1XtVhhkrxDt92aJM9cXp759bPLiy9okjymSXLZszz40c//rifJ7T4CdNaTJM8kudITOvG7n3SQ8uA/jfLzDry6QXySjsao8yS7b//+5Z1Tl5b/+X/9q+WftZp89tnnlxtuvMEnPZEiwwl8Trf79+qEuU/pVg10cFoT5IsvvqiJ7s3l7bdPaDLb58lq7XIPK5+0+/dfXf4v/+c/WX7/9z67fOTRx5bXX3hleerJX2ui+fnyvMqvv6H2nTytyUkrIFYmOnmI3R9gl00/t9Tt6tEj1y3333PH8vgnHtWq9KHlLpX37N21nD13ennzzZPLL598bnn++VeXVzXpMgmd1mrv3HmeY7IazMHvuHzgNcHu16T/6COPiL8sr2rCOI+8Tnr8nzx9ShPxsjz0kfuWP/uzP16++PkvLS88/8Ly/e/9wC+5jr153I8k9vBMTxMksV+9cnF56MF7PWn93le+qIvOTT55eS7z7HMvLy+88Koncya+U1ppM0leuUxEHDz6jjgVmyaZfVqJ3XffvQS7vPLKq1kpuRE7vJLcpT556CMPLvfde9dykyafV1992RefM5pMmeCJh8YeOLhfk9MRxXXP8tijH1luv+PO5XlN8D/5yRPLD3/0E60e96iPdrjtWR3yGOHc8m/+6KvLlz//qeWEYv37b3xv+eu/+9ayZ79u6TX5Oc6rPLLIYwuuj/6ygY6V71yIUrt9utgclv+777pteeShB3TsPqr63mXPzitebeeUWE/mnIgprzk0Lmr4rNVTYT2l4KVOiv/1xEbKshYPjSzu6PFClTmFmmbpUglfm2KJ/cSC7TFBqz77RaexloSJnkCC4YpUNklZ5aav2CyjbPYHAb4h2mxrvBBEtkSMkofuku0jgi0IAdbYBpfxCMPjlkx1HddD1+XFjd9ua5J8+ulnPEm+zdvtq5okP/bek+Tv5Jnkzp06CLr9u3zx7HLl4jmdYBd9QvHsbAYd6oPYA0qtYZK0mGg8p+Jwvn3i7PL9H/5sefV1nfA60bkFyyDMweCkOX/+7PK5zz6+/JFOmi9+8bPLY499VCfnA8vNN9/s1SITB/Kgb/vpPG79OOGuu+7A8vtf/fJy1913Llc06f7FX/z18ld/9XeaaL63HHvrHT8H5eUBF2Gv+pRzC3/w0GGtyg6pfEBx79bEcnJ5+aUXl5/99CfyfaMmyXt1II4sP/3ZL5a/+Mu/W77+j99efvbzJ5eXX3ldE9BZf5yJ56cnNRkxIZ3VxMLkcU4nJ5M8k8z111+/3H777ZrsLi4vvfSy+4yTneac1Wptv1aFn/70pzRZ3aOJ8PLy7//9f1q++e3vagX2uifHnbo4nD13XvZ1MdBq9/HHP7n8mz/9k+WP/vhfLbfJ7ksvvapV+jf9KON7P/jx8tTTz2lyfWd5RxMP7WE1yS07t8I8yzx77qwuGCc9oA8ePOSVPQP1tddfV49mdQlYufN884ImNi5WP/nZT5efPfELTcQvLK/povPOu7KtC887Wk2/+tobiuMlXUCe9wr5pptv9W0/44YXN3zs55hWuL/WRZKY/PuRujp85lOfXB584J7l57/45fLd7/14+ckTrygEJuqsIi9pbHh86NaePtu9Z99yQHch5Pxi0A5u0zU+TsjmCy++5Bdi6HGxY2WLnR5nHqseOhk/Hq9kkukTNeziF9barC8F2wtt2GFgqS4qgqLXyq/Qk4T9IWdZM8qWamLOkxQSrTcCBchX0ZhtgJI1jWPadpWQMN1iRas6SN41m/at8Hyb3Xqk7dA2yCMh2bUSf06c09jmVhtO21st+PGQr5KyoW3PPt11Hji87FPifcXx48e1yHtXdzdnfCdywy13Lrf4meQt1zyT/OCT5IUzOhnOaLWm21rF4hc3F/Li5qpXXaKx6wbi0D5dEh3G2jjeIu/WZHhaJ/dLrx5bvvuDnyxvHj8pG6zYdldna2WhwQ+OHDm0fEErik998qMa4Ac1eR1YDh86KImry+u6Zf7FL34lXV6WMInnGRInAyc7Hwd68MH7lq98+Yt+cPutb35Hk+N3vKLia3k8Q+RkQp5b+SNHDy833nBUk7Vu6zXJ9kFgUj+nW+cdOkmPHj2kietxn+xPaFL8xje/pxXRE7od5RYuB4oTWMKaaPYtt2hCvVu3e/ffe6dWXXfoFvj25c47blkeefjB5VHdrvK1vuNvH/eJvEcneH/9kBUSX1G89VZdETXZPPXUs8uPf/xTrVJZYfLYgXZyq3l5eeD+u5bPfuYTyx989UvLxz72yHLo4MHlV798cvnWt7+z/PM/f3d5UxeDs2dZqWmC0eqLY3njDUd8G3q/VoI8Rrj7zlv9jJHb4vvvu0v9dr9/YIKJ9BXdGvPyhRU1fdIXMm67T5zUqvTUST9+4FlvnlGT0m8cDz8P1PHwxUex3XbrTeqX65cbb7xRE+opTWBvL2+8ccyrIfj366LwqU8+5liefPJX6p93pMuq+oHlAcV27923Od47brtFdm4QTxddX+C4EDOOMg48lASej15SOq223KhV7/XXH/EFmXFJPwc9Ybpo9EnubLIHoUc0mMsGChsyrWgzAfzJN8It7/NJiIXYgkItHPYtwy6aTXVtOBLmMqCu1NRoF4bvJGodj9F8K/UFJn03JsaiTVqux5rQDk1b+yncWUsoJqJxGQL7+Ig8VvjkC5PkgYPXLXv94ubKcvyt4zpneHFzRhJMknf8V5okz51Z9mrg7WIlaZomyYuaJDVhpvFAYVeDGj3IHAYNIunE2XPg4PKmBv7Tz764/OBHP9MJdH6sItsaJyDPq+7T5PL5z35Ct2t3+zZMI0t2L+vkele36C8sv/zFk7ot3uPVDScmPs9fOL+cEJ/bxc9oQnvooY8sT/7yl8v/8r/8x+X5517SRLFzueXW23US84ZdJ7G2O+64dXnggXt9W8+tJh8Xuig72GPy5jnoTTce1WT0KU1Ej2rCWZb/9Od/rQny5zrBj2vFelRXsAOJQ+moTsS7tXp99JEHl48/9vDy2MceXj76yAO67bt3+Yj8fFw2Hrj/Pl3p3tLK8GWtQF/TRH3AvuhHbvX3ajJkVcSv4PxC7XznnRPi79VF4ohvT3mpcdNNR3QR+Ozyh1/9/PK5zz3uie0V3br/1V/97fLt73xvefrXz3ulzGMMfkGHFSdvkInrE5pQeTv9yEfuV0x3awK6e7lfE+7DujV94P77vQpjJchKkhche/Zo0uMI0WeadHjmyuHnOdC9996rPr3FFyaOg19K2Z/6RG06dTqDlDuSj+m2+967b/VHnZ57/qXlpVd4RPGuL5A3aBL75Mc/povIA8tR3Tq9pJUqY+OB++5fPvHYxxT3/ctDWmE+cP+d8nnnctddd/hRC8eKl2UsSXwMZIucb3LR7ku6gB079obazgR9w3LD9Ud1bBdf0DLmGKuknHbs4dcQdjuhwbMkDCtGG8ESXfkq5UQWKodq25RtYx3zhio5p8QTv29TzUAJbfWv60L8BONcFK1K26K1RwyF1jGl6VPcoH2Memn5uXb5dZtLDyDbdT7B13Ls4PW3z+Ir5/DqIUCfhTes7un2E2ntZWMvK8lDPUmyknx7efedTJKsJG/8r7KS9O22VpL+CJDMaWK8qlvtq5frI0AE1x06QzQOsBsMW3HQoJ28ZdUk+fKrr+lW6mmtxp7SCX/ZKwixB3jpcvgQq7ZPLp/8xMeWW7RyuKzb1bfVYG7r/uHr3/BzrePHT+gkyuTCgWJlw6qRVdzXvvZVvxl+Wbd7//yd7y4/+tFPdUJfv1x35HqvIJmIeSnEqu5rX/u95Y91S//4J1jB3LLs0wTNT3ixSuK2ndgeffTh5X/8H/9vus2/sPxYt9l//w/f1JJ+8YqINl7wpHp5+fjHP7p85UtfWP7V135/efyTOrEfun+5R6ufO267yauj27UCuvmmmzx5/OQnP9Uk+JKfYaYdPHPTAdMkw+3Yu7pV4NaVGOCTc2U8rBU1q8Z/+9/9yfLpTz263HOXYtYAefqpZ5Zvf/t7yz/+4zeld0aT9Y2KPc/xdu/eoUn+8eWrv/el5fe+/PlMVlpF3qZV3W2aOG677ebl7rtuX+7QivKQBhqPEp574eXl3LkLss1b6twmc2tOW1k9PvLIR7SC/cryxS98Tv3Dx5Tu8IfdT+qWPi9vGPR5GbFfx/16rcQfefh+f26VFe53vvej5fkXeebJhHLVn0D4+GOPLndptX3kugPLQU3q99933/Kxjz6qifXO5XavQo96JXrbbbcq3ruWWzTxHZDtY8feVKwX67kyg5VW60Ty3cLiRzd33X6rjwHHmJUcxzLQaTYP4xqMHrNeOQc9qYSdEx+Eam9DF34y9YHa5xPZ+tHrk7zlc65kCvCp32YgmA5tiqdkY1MoW6gVxWgzoOXnvONwLIVBq7ohedfXnRBPIWk/2QAdx2x7oGmosUNYafSDcwQoh04+x0qdnR+faBHHJHng4JFl7/7DWUl6knzb57pWaNtOkrYhrEf5t8LWhpU1oRtiuJGFIjnTznR2FmcHgY/RnPNbYJ7HQd/aiXs0SbESOK9B/8wzLy4//M5Plm/980+Wr//j95a//ftvjRWc34ZrsPORHN7u7tu3W6vBOzXpfWX5xCcecv3nv9DJ/tzLOln2qBP5D3y7louacJmPbtOq6stf+PTy+MceWu7XRHPnLUeXj9x3h1ZZD/k7yTt1i33yxDue1Fhd3X7b7Vpdvb488bMndNKd86TGh9f5qA7Puj7x8UeX3/vSZ5Yvfe7jy8MP3LHccfOR5eihvcshxbFfk8p+HcQjhw+5vSd0G80LGFZArACZGLv/4NMvPMfs1Q5vw6+TLm99v6hV4+9/+VPL4x9/yN8q2i0ez176pdS7miAXTY77eHYpZW6vP60J+4uf+8TyqY8/vNyhdh89rNvfvTuX/XuRq9iuO+w2cXvM8xy+Q81LNv6joS55fjTBs+j9+3drMntk+eLnP2Wbj3zk7uUhrUI/ptXyrXULfEETELe5Hh/9OEQTFit/ntm+rH7kTTerTI4JH7k6olUpb6H36M4FPzzeuOnG65brj2jC5KuxezQ2du1wezl++/fs0MR3kz91cNedt9sGL5a4xW/4BKQD1Z95OaT+JBb62OQ+IdP5pvlWOHWGJurNDzhRqzijaDNrnSCp4dM1+x9ydjLFE6K3DUcV6yrzPthOruvKB1puli2f1Gd5ZCDATfwqFS+YbG3QAyjWw37bgTinarOPT5m3KSXLe4ccdN0H6lj1SnYrEkdV3gMdz2+cJN+rUURjI1Uj0pb1SlEUN9iRm8sOLa86/HxKPOh++83gu3RVE8O55eS7pyIrmdV37BzUbRp6L7zwklaN31r+3/+f/7T8z//hvyz/4T/+5fKXf/V1TXqv+sPjhw9f5xPinFa75y+cW27XSuFLWiX9u//xf1gefvgerQZfX37y05/5w+U33nSrJoC9fhvM5y75KM8D9969/N4XP7fcfZtWg+dPLRdO6dZZJyNvsplA92j1xWcp773nLt363+uP3fzyV08tv/rVk7rF5odhdSt3SSsmrSDvufeu5U/++A+XP/jK53Vbfdeyb9fF5eK5d5fTJ7QifVeTwQlNiFrpcmvIh1xfVNt4Q3/u7HnZ0SpSE0X3ovtJ4FaTW11uv/mM3y033bh8+UufW/7t/+mPlq9+5TPLTTccXHbtuOxvurymW/Ynn3zat9j7dLuxf/8hv4yiH+/RCvHf/OuvLp/79MeWO2+7QXGdWE6989Zy4u03pfuOYlOcJ9/1x2/ePv7W8uwzv16OvfGG+pVHIbmwEBOTNi9QeKP91d/74vKVL35Gk+Od6rOdmnB3LLfeeFQT2kF/XIkPtPdbccZKJsIDWlFyK3R5eeXVN/zRJF4+sdLk84xM5jzW4Lb8olZ+3LlcOH96OfHuMY2XN5WO6+Ki1YFyPnZ0/M3X/LaaY3X3XXcuB3W7zyTZnyWkP3tMeoR5l3HpcQvd47lYBmM7tKpegxynYg3Bpgoq+qwRKzIQci5lrGfVOWsmsS+TSlxcfP75tjy63MF5EkeIVHajucK2bWgLJho61NIHKhVv2ILuYxj+kJMW48p96Fps0G+dIhdblqJOQofkuor0jY4/dbORr3bPaLUVW2Jygty2im4iurbs8nb4jZNkDsRkIHYnn1MgxdwYaFwtzRdDJMg5qLS/5H0rqVWkVg7Hdav1tiYK3nSyajQkhl7b5YPHL7740vLU088uTz79vE6qt3QCXNWt1VFNjtdLd68/L3njjTcsn/vcZ5f/x//075Z/9+/+r8u/1kR1l27PT2pSevLJX/irfZeu8HVH3dLvzK/osPLkg8a36xb4gCbFK5fOLRfOntD5z+fozumW/aQmr9MK/rJubff4ZcKNN9ygW+MXNPHyNv6iX1Swsrp48fxymybnRx55SLeFD2vwXFzO6IS+cOaELgjndBeglYsm0R2aKDgtaC9fcXxXK0nehDNpM4Gk++uWZoKvlJwY0ucW8wuf/4xf/uzeeUkTxRu2zYumF57nY1HHNOlc8FtejsCF8xfdP/frYsAzx+XyeU2Ib/lxyc6rFyXBZMKETGz54Qn88fEpLgjElgHLh/Sv+E06Lz54pskLHi0Yl+NvvLJcPHtSk9oZ3Wq/owvgSd/GsiLlWDIIiN8f8L5Ot0KadPn21AsvvuxVJD6YnHkhd5tWxTdef50uGJok+/v2OgZMljt3kPgoWT5jSqJMGzzdcNGexucMLtg8kuGxAW3kO+B58ZW7GKeSzcgtELtSNqoZ55kEUs/4js9BY0FgOrZkrQzGSmT6M55O5hWq0vShDDJIjKGDH+jFMx0aqdC0lbLCWm23cl+kMal+s66pQvsQYUyeJpgcoFdFBC1Tck7jOBWK0SS/cZefScL2+qjk0wKxMY6d4yJt8Tf8bB6n7fAbJ8nfjGq2fGy4cTC1VXChuZ3F4RTUlUcnzRUR+aweH78hZ5Lc65cVsWp1DbCsQPOcj4eu3JLyURXAIOeEQ5iJlF+L+Yhut/7wD768fOqTPJ+73V97PH3y9PK6bun4cDOy+a0/xaLyRd3KHT5yeLmeH2zQreYldfx5nTQ7NPGd0yrnLT4c/rZOdtH45srtt96sVdBef1TnxInTGkQ6QXUic8A42Q4dOqAV0A3LLbfcrJOXVdQln4juD00w/TGVPVpJ8dEdvj557K3jXkVd4gJTwwAQnydGBqrgAaDErSvfmDmhC4NvY5kiLLLTX8F87fU3lhOa3NAjNsyxgsvksM9vvYmN/vVBERh49DVvzPk2zaJb4dPnLi1vvPV2VnjSx46Po+JicN6sdvKW+QatGDV1+hmw+1Rtzucwz/ijPPhlIrMz2TmgY8K/ZeAN+OlTZ7VSPaZjynPLRbfBFxXffk+Q5Hx5YI+/JbSnjhtDOBdPEu3gpcyBQ4fVFzv8caM3j7+tle4Ft8UfCylwjIiC58+sVln955s3ukDQteKR6GPDxyxluintTvtDpD2VCqmu9bK4ovgW2UjswqPs2lbfYYU3ASkn+sSUAsINbJWB9gGGBPxJv3MiQcZyEDuVndwVJkco0iC25pjgMD7SFhJmVg0EWUymHJkIqT6EVjTfftjw5XYU3/tUbKLtqODye+C3nyRxSuZ94NhccFX1aig7B0Di5K6Glg2kPEny7E71N7QS43niu++erMkjH3sB6PImmY+p8KaUz7UdPXJEJxdfLzvsN88s8/HH5MSJyQRw6y03Lg8+dJ9WI7uX8+dOLZc1sZ7lA91n+H1DbVwRFVuFLvCtnwPLoSOHNDHu0OStGFltaJVz9sKl5dXX31peee2Yn5nyouX6o4ft8zVNumfPXVz45ghNdDtpIZMJbZQNJnH/AIVOVNY6nvA1YfDTY4d5aaQT/11N4HymksmEwx07WKAPMvGSQ2ay4V8e8B3lXz319PIXf/GXWmG/7AF6WP2imc2fyXzruG6X1R9emUuRgcNkyUswnjHydURPlofyTJTj0yusQ7rQXHf99Rqsu5e3Ncm9+PJrmnj5HKyGjmz5tlnyPPPjIzy8WNm5XBq/BEV7eYPsbx29wyqUFzu87MnFjsRLGCZJPq96is9R6labEcY3m1hpHuSZ5OHcqvN1UFadfFaVt9OeKDGChjLeaPOy5qabb9NF7cry4kuv+o6DFfBBtY+LL6A/6UtKTI7XXXd4OahJ+JLiZpXqsdR9gZTamiMRUPcFiwPRQJZY0DNqvA8ZjzhvUGxDyWzEWgY75Rfmqs2u9D0R1TO3Pq8akvFdF8dIZce+he82kSZ618nhdytmrDIaR2qrx4skcwGvPnGOT8lq+COfF9Vl0SrRhZfHc/HrZ41dLtk8f8y3rrLKR719h0df2IdJoTfwa3vIFR8b/1L89pNkQjfWUAhDtTnokSBz0DKYkfBVBlBBbZdWQ2okn3t799QZndAM3sg2mCB5Q33HHbcvn/zkx5ePPvqIT0zemOKkOwywmuSrZy+88MLygx98f/npD78rueNasXCC6KDoZOSjKlNTDKqK2AeDX0H2Z6tk56BOyp37DngV+aROOD7DR3ycsPwQA88SmdhZxfHRHHisTvhS/ZtvvrU88fMnlm9+85u6ALwpzk6/IWZi9PfRVecZ3Pe+/+PlP/zHP1/+5u++vjz162e9Err5llv9URk6op/d0cxcBPI1SWh8wJuV0tPPPOO39b968mnZPqQLz05PSnyIm7ffniSlzwfWmahOa6X31FO/Xv7mb/5ueebXz/kzk3xYnviIjd9w5PvrP/7JE8t/+vP/svzt339jeea5FzVxXrfcfvttjq0nbb7mePNNNyzXX3dwuXzhrL/ix2qRifa8JvyXX319eVv9xmTtW+3qbT4+xEshLnh8gJ1vJZETKCtCJtAbbjhaF6Mry7Fjx5ZfK9aXNFmf1FjhUxF7dWx4Q87LOl4AcaH5xa+eXr7xzX9evvnt7yzvvPOuPHGR2ueJwyeYPPCMkhh4VHGrVvq8OGMlyaOSjTEsKaPq5OjPJ2qDse2JCzlL4SH0DXuV2w51xzTJi++JhyR7wybJKE38V3u63LbXSdQzFRKbaLnKG+3b/gqWqTrS67QW+BwnaTwyJjNWq396OYi+7az2YgG5moqK3/ZjYzURYKCySthwJ5hO/Gm72wEROx53mTCBOfBjwDLb4QNMkgXs2Wh1RDtwkKQKTpBETZA9o/cBL5564JJWaW/qVu6UBj4f+7DeFDQrFt4a33bbTcvHPvrA8thjDy1HdFvHbbdv/Qb43vQur4x45sgkwAT05pvvajLOh8QXrRBZwnAg3PvygyeRtMLZs5zxG/aTy8l3z8snH23ZqQmOjxi9tDzz7PNeRfqXuJVk0AcikxYfCXIL/VlObgv5CM/TTz+//OM3vrv85ImnlqdfeGN55djJ5dU3Ty8vvfbu8uvn31h++JOnln/4xvf94umJJ560/euvv2E5qhVcP/OjP/mmzQ03HnVimF7SChJvfsSgEpPhj3/6C/l5WreZZ5eL/hA7H3HhrS4TOCvYuiXlEYfsvvLaG8u3/vkHy/d//Ev/m9ZX3zzl9NLr7y7PvPjm8qMnnlm+8a0faPL+p+UXv3xaYezQpHWj4+Pw+FeF1P/XH1VcSlw4eGFFbD0u+Nzk62+84Zym0KasNHSrfWDfcv0N1ykdXfgGEl8n5SuMtJlPB/BZy1tuuUV9ccNyVpPtU8++uHznh08sP3zi18uvnnllefHVt9WfJ0bcL7xy3O345+/9ZPneD37mX3XnossnBFhlEhNDj2PF81F+gPmB++7xt6W46LJyzQU0xzHoXLF7l3b5BDYVekoe1kMVWug96fiIMP4tYKHY2w5trFJJW7e34aFtIOusJjomydI1p/izfNsdtoShV/LRZScJ8komCe4LznHstqEpWRz50rOu0iy2AfhVhMscsdnHa2yrAeaXWiWWfsu0SCwEvqBhJzWEXSrCwAf8nCTfrsmHyfmcJHMOD9Avi3bl0lkNMp04dBr0yrNLw7w0NgmB3DbyYw4/0OB//kW+vnfab3Wz4sjEyorl8uVzy5e+8OnlE499xG+rX3zhZd9O8WZ6fqOWXBOvny/xoxcnlzvvvNPfD96rlcmxN9/QbePry3PPv6LVH/8rpX5hSJ5Q9RVYE8wB3raeu7C89dY7y3e/+yOddD/RJPmCr0iHdfvHC4VPfOITfuHw7HPPayI9Jl+npJcPjyeOnf5mDN+c4Tb6+Rdf0arqmF84/fyXv15+8OOfL9/53o+XHyp/9vmXNSkcXR599GOeiDhh33rrLU1y+ewhJ/KjH81nDl9+6RXR+ZkwXRQ8Aexe9ijx0RlWbqwG/TlNtelnT/xcqyl+oSjf6fZtfvU7E/Ibb7y1vPr6seUF9eXrWjk+/cwLyy+efHb58c9+tXz3+z/VJP6E+/nI0euXxx//tG3zzPDNN49p4stnSu+5+/blkYfuX+66/Wb/Ug+/2OOTRjHR3p/I1luaAD356QLGnYGEtII8vHzqU5/wZylffeVVr4Kf1kqaFTYrxBtuOLJ86Yuf9ec2j6kv/uEfv+0f+33+5TdkN+m5F15x3/ElhJ9rIiduYj52XCvIq7pFP8jHl3bnGOuYeCXOxVXj9J677li+9tUv+2fY9u3hgqgLisdCnZIeEPoTjePpMenjWlDZqyBIvuBCEs19XHKTvsUg2H741IBrJeOxQ7lzeBN8N+Y4xeZgCm5f0di7LsBNKWXHobQdzf6AdAef9nUFtIxg3SrhrxcsaNtW6a2xlA98mRKY1FvxQakZjk+bY6v4sjoMLNp+GHtUtZhgsO/dvzffuNl/2F85flN3JO+8885yTnPNxuckb+Sn0lh0rMd59fAB0A1Y2xGjhonVYOW53YCG751poLa9Wo2dP3tuOf7mcT/X41kcHwfpxtMVPLxnGe+vjh09pBPn0HLn7Tf5mxXc9jGJ8G0af6ND/toPX9/jRcqLL72mFcXzy/OaVPF6RLeGt9yqW1nxmRC57SL3807dtvEZzOeefWn5m7/++vLnf/43y1/8xd8v//St72uSe0MrxL2+teO28cWXXl5efe01n/D333+fV0Ws2qizcqOdvGDYtXu/2rNft+taVT7/2vL9nz65fP8nTy4//OlTyxO/fG55Rau2ZefB5WOPfWb56Ec/6a828qzQb991QvMhbVZdhw7tXx5++MHl85//7PL4pz65HD16xBcA/HFC7t7D5xb3L6+/eXL5e00mtJd+fPDBB/yhfD7beEW33WMgSYf/Nrhn3+Hl9LkrWtkeX36sFdqPlH7yi2eXnz/1gldpVxX7Rx97XL4/KjvX+fb1rbeOjxOVW2Z+DJeLBs8ROWf7touLBrJvaoLjKt//H5vfeGSg+1b6+sN+u8y/6+AD8nwfnWfKHI9bbr5Z7bze/fDEz3+pleIby6lzV5dT55fl9eOnl6eee235heL82a+eX55Q+vULr2tyPL1curpv2bXnkNp2kGB0EddIUrz8rB7fkecn8+67525/QP2eu+/0M1L/+LKjyziml8ZdjwmMRsaxOT7GXnE5RT476XeuZGnp2GpMG7FGQTk2sGvbpQ5dmScHHcecS1mVIkHVE2Trk8xhV/5cHFSDum2YHo7TTMenaPZtR7Sjzi3Y3lIuMxCNtCsTZloQlMawMVlR7JJs36G4DC3xQyoHBuX0bceWemitx9a2RpugRkg7CKJXG+EmrfiAk6SMlP0gQcRPOclf1RNPGpuArK4DzwuRU1qtvc4kqZXYeZ3wfA2P2+I+KL693bXDP17BP6u/TifjAb7yptUFX0+8eoVvevBbhjzLKNsC3wnmg9P8MOxTWrn96le/9q3c0euO+PONd2jVw8d8+FgP+v4/Opq0L2oi4VeAvvf9H+o2+Vv+XvevfqVbWE0OrNh2KhYmpnfffXs5fvxNNezS8vBH7ltuv+X6Zd9ePreYH+ZFhlULt3l8B/ziJf7twvHl+eefW1544Tn/Qg42DhzULd8Ddy6f++wnlrvuun25oEmf34XkI0U8S+QiwDd2eGZ27523Lh9/9CPLlz73+HLfXXlJcuHCWV0ksqrkOR6Tzfd/8AP/uMRxrabuu+9BTbw3KQ7dA1w+71UUjwf6lpgPhdNnfGyKt/T88MTrr76ynHjn+HJw3y5/TOjxT35iue222/21z9d0YWAV6Wd3WjHmO9+61fZbcq7AfE9aF4c9+3RhOOFb+tf4Fxya/PjwORMeFzU+aM9Kkf87xPeqz58/4wsWfJ4LM9Fed+SozO1ejr9zevnlk8/oGJzwyhWf3OrzNVN+pIKYXn311YV/mHZOtulvf45U8XAcLvAI4DJt5p+FXV4Oq88fe/TB5RMffdBv4zmGXOCMMWZ1MmlM9MRBH1HUPjwleCSPbfNgI1ub6TB8Nqypych2otpJ9WFXcER13pimMseuz6Xoq1TyDfRMQYU8xUyoyFayfiUkvdEPJFMa8AGUldqwDrCTsl3OmeNc82oztDYRcXiVl8hGyg4nuThgzzqity0/7sqFJP0XmRmprrSEQIurPArBv/h2G0dpP7fbfC1RJybf3eZriQR2Vaun8bVEnXx4oTHaOqYRllj0wU4+snPw0PKqJqQnf/2Cf4n84iWWxvutqyb6an1aV31WfXyjhB+0uOuOm70y4LaSyYH/fMY3Jri18/+Nxpd7p58F7dAKlR98vehvX7AavfEG/hXCTq8o+MUaPjJ0Tra4HSROPiri1axyEpM2Jy9vhPlVnP17d9vWxx59eLlHE+7diu0ijyBkg2ervFTgVpT4eG5KzjMwTmxOWibOQ7pl5zvGX/7SF/wZR74e+Mtf/HL5p3/6pl8E5SfLLvuFFd9X/synP748qIsC3zzh17r5DUT65tVXX1/ePcHHf5hcLqut+dHgt99+SxeAs/6fMLw44yLw1ltvKraTnnj9OUTFxW0734KhD5nUGUX71D5+a/ELn/3U8oUvfMG8X/7yyeXb3/q2LjT8ADEr3HP+HOP1R44sn37841rd36yV+B7T9ujit1Or7p/9/FfL93/0xPKjnz5Hp/o5MBMhMXBB4bvrj3zkXq1Eb1yee/4FrX5fWl58+WU/8+UFEY8MuFV+SxeXp556Rn16QcdityZJTZR7dmUiZPbXQePixrHjeWfadl6+6oeZ1V7GJW/K+Q+OPLb5/Gc+udzBB+jPq+8ky4TP2LQRj5s6AUkCE4BvoYuUcyJjPIpJjFuEvDqiLLLvnrCngb+eEy0ZoN3wKhU+joTo1sQm9ATmOslxhJ6YXGG/0iphweeF8lgrGTbGusralc+OIW03T2W0KVrffKXit+XEZvHYUxakZFMuKDWTXCm69XgDkuodu31baSvaCLYTh7//LRP+7vZ0u81XVflaIj9Qw//UuulWbrfv/XDf3U7nAKa39bvbmSSv+IPR/PuG/FRaJsl0qsSZuIS24EaKwa/t7NEk+etnX1h++vOntPJ5erl4OasQVhKc8Ewo3FLyEZGP6srPj0HcfMNhr7ZY1cmLf9fw3ZOnPFHwLIsrVT4UzK/b0FG7PGnx026HDu5dbuTfAeh2m6/88TU5/5P9/QfVFn7sgc/gabWoE9G3jD4Z+ZWaQz5pj15/dLn7zjt1cj+yfOFzn14+8sB9mnCPLPyrgb066fn3p0wQBw4dlc6B5TAfLeENuVZZfBPn6NGjy0033ajb83t1a/2of2jj8ccf06r2puX111/Viki3k6fOLjfedLMniCNaSfH88/5771g+88mPLbfefMQvGzQ/aNXGG2s+W3leK3LZl2/iQ+fo0XzwmovL3Xfdo5Xkzcvtt93qgwCNnw/zz74pLv5d6yGViY/vSN95Bz8i/MDymU993L+1eIfqfOXyjTc1qDQB3nTTTV458lVIPkDO7erH1R9M3HsVF6tULliXdNyfff6l5bVj7yxnNRHffOsdmgxvcH/wkRv+7QS/w3nXHTfpdlt3FDpGfNOGN+ocN8YH/c5LIo4JFw4+ZM7Ezy1+P/NjEuVjP/zE3HWasPl8LB8T4yNN+Dmq/uB488MiH9UqnK9N8v10xtFe9eEFTaSs1EGf12Ad8ylTHbzOISqFPt2oy5CaYOSERrlysojYJjuyoEowC83zpKU8KtrPevCUNuJpG0UDttH0gjm2RWlTzh71F7twavJpExumZEEy5qHjetmETrEUKWYXEtThX4JVmuRVM2GFOdpV01RkbmoUUZMkW0+S+3qS1F0rk+R5XUD5WvKNt9y13HLHvcv120ySH+BHdy8omv7RXX6ZXFf1nZokr5xdLpx6a7l09p3lslYYPB9kELd55/Lpjtckxk+j8QHqfbr1/fu///ryd3+v29pv/1C3u4d8S50GS1ZXT26p+H70n/7JH+o2U7ekt9/g50r8Nhz/+/nP//NfL9/+7g/8MoT/5MeH0EcTa0XIz47t3X1l+eRjDy1/9qdfW77yld/3iXf8+Dt+mcKt+CuvquP4YVytlJiEWZGgy3M2JhPetDIJsYLkF3seefB+r+ZYIV7UxYFnkhe0En7hpdedXn+dZ6z5NW7+7wyrOX7Bh7eod955h0/ae++5W/W98nt8+Yd/+EdN+Hwz5pIm5CN+C50VxeXltluOakJ5xF/tQ7/79t1T5/1y5bU33tbK6aLfqvsjGLp6vqOV5F7Npg899NDy2Mcf86T785//3J+l5LvhrLb42BKHhis2X3/kVpbngPyMGxcAftH8hCbtf/jGt3TLzOTFD2rkRRkXQ26Tb9akzzeK+M43n7K6fOmCLjC60Mnuz3/5lPvi2FsnNUiPSJ4fleB/A13VhHlQk+tDyy03coU/pEnyvD9u9PV//KZ8HdMFaq9W2nctn/v857T6v3558qmn/RKKl0hcbADx8IMn/PTcnXfcpvGii7X6jEQ/pE35sPpNN11fdxLXaUW5ezlz8p3lwlm+AMAEmYmlxysnN+MnNUEFTjaQEz+yLuuk5tMXaBRLvHz8ZDUAr/XCx16vlCBatPy7NnQD2xOw0s8oKfuzqh4nOo468NAYuzaAzPCb8wlOxxlrMzKu0g+kIL7WPgqHFV0QSuIhTnLX9BdLuf11kPqzNTU91ZUWBfQTB2OFW+t+YdaxxV8DPepNix3ktEzS4dEYOaK7R02E1x29bXn75MXl54yj55/zf/Hcsfvg8vDHv7g89unfX+79yGPLfi2GuOD5rhRLMjR7+824yrdbzi+XNUm+60mSVQ2T5Lnl4sk3l0tn3tatS/7HCu3aOFiUCJxJUhMAHyJntcDnAp95TisOneg7dulE06BOJ2iilD5vUjnB+emu2zVZHOaWThMTqyj+1SwvKJ594ZXlldff9Iqwv+ucJgry7Rc76rDrDu1bHnrwPv9cGr9eQ2yX+M74uQt+XslKhQmYW1ZONNrBrR3/O8erE63qmKT26WTfLbv5hgYnJl8hZELeI4v8sOvlhd++vKTJkRUxHyvBFhMzz9OYaJh8GQD+CqPi4/OBElO8vBnXkoyi9/zjLn5Rm3ZlxQOdSYA3c3yInV824fllXl5xAi2qX9BJkWeixM9vVHJC+Z+paWXHC5KcYDpZZQt7jk39T85Exhtgvk/NavWyDomPK85roHLyYJ/JcifHVfHxKIRmcOg5Prw84y0z7ULH/SobhJ82ceJiY+/yzjsndbF6zY8suKO4TavYW2+73T+8+9d/83f+/vnxt094Vc/tNOPgoYceWD736U/4u/bn+Brkhf4FH06uHR4P9DUxBopTFx5/t1593/CIU2yA/qMfseG2ur2gJsaGTiRz+Ks+8QqXJJpfXihHw/YoWBa6Co22WX6YzAzRezJsOnpMkviB51vnlge2j4y0ym7rYcP2lFILxPKuJ2JgzZLlYFo+f202NlvHshArgSJQ5ShbXrawufZT25B+6wnWUdxYWGNGfBISUl9pLmnH+GOC3LGL/5Z4yL9MziT5jiZJfojmpRc0SR7XJLmHSfJL10ySSfItB6t10DUi2w49Sb5bk+RBJkkNDK0ke5LkBwh40cJBysFbjdJduHTHM4sq8W9DT+sk1LkoEb7XK7lueGX8BuF1B3U7rBNL6yud3FmZ0ck8izop/VNnzktdt2Hyk+YVOA6ctgwUTViHDuz3j1iw2uLE6X+GRadii+d0TDgMGNtSjLv9/GuPb82xdkkT94Vz522PWNk4wryY2M/zOJ2YtJGD7EFMGBxoNtquk8TP9erZIDZ4gcIHvv3LOprc6AIOA4MJWVal/qB7DRx8cPLzgopnqPiB3sAnKy1/TlJ62PH/LpceV0k/fyU2CWbyy6QCwf50G8rXKLG7VxcGYvPEbJ3o0v98EYC3xvjokzV9kuPGSs4/CExfcLKJRxfQDp7V8kgFul+0qQUcA55b8pNxfBPpkkzy0av/+L/9F11Ij6sfLiueA37my8uwz3/u08sffPkzy9d+7/PLGV28uQBgx/EJniuUM2H5WawmR9ouAdEzTgHiPUkCHydrpj3AJJW7p0NOe9xmTwBcpML3pENSPRSkI2s7Ew+d5jUf3jyZeCwpRo+lSpZHH10GsWpWVbsGv1KCKHvIUQUu1CTZRIvFv/uFY2cyjIjQpz3uoCPf+m0GoOmtzHfsNtOxWSE0L+IgNQ9Oyae2IrorlRJV4tLSwd+cO3z04HLjzVlJvnPygiZJVpLPepLcufdQJsnPaJJ88Hc4SV6qSZJV3W7dxvr/bnO7zUry/BmfbJ7s2OTCD4C12SwdKVCjM/hIDW+0F01WdqwDgqwlEJA8H13h2dEl3kLz1TFPIkxK/IfEQ/nus1aW6weBrW54QQAch04UXtKcOyM/2KjJSEJMlL5d1cnpbwjhV/L4vqQVlcuSZ+XHnMtVz4ctzVFbyiFQMW2Iba78xOsDpwmoVKJfpc6Ih0mowRtjLHnVB1PIhcRFg8mceN3LYsDKRNayKrhfA/p+PpmJw7peypYNJfOrH8ixZQ3xmID7GI52lJ4pRYJXRSN8vBASXiND3/B8keeTfBmAY8s/U3vp1TeWnzzxq+Wv/ubv/SiCuw2eGZ85e8rH4mt/8BU/hvnUYx9ZTmlMMmHT34wF37XYXfy4XeURODa1iVK32VBmOVdLVnKeMOhX4oZt+YxDa1R7YnkTG/YLXXMEsu06cpUbosO3PvUtNoxZpvh9bLfz2RREmj3LrzZC5/ibpj/GgKgZyz4nGCdQtMEqezERgjcIEvCjAtNhrXZTj78Ywkb0+uJrL6XasD7Y0Mn5wv/d3rH7qibHw8tNt969HLlet9snLi4/++nPxiS5a+/h5eFPfGn5+Ge+uu3/uOnp4zcigXRLJjiuCq46YuRKcNJ5DDBOytUlQ4IBzJvFs6dPLedOvLOcVTpz8t3l7KkTSieXM6dUPsmHPk/4Np7bWjzZnjtbqz+tDs5J/+yJ6J0hqcwzJ/T5GTInbJ7mV2nyYWfbqdgo97cw4J/XhMz/v2BC5S0ut/w8V/RVXDGj44lPqqNnXAmB7nLSsXXfuT+os3PVue3YP0ifmVFwZNZtpYCB6a14nLiXGXDemHwyeIEz4vJUWgff5mqQV8oqJPIuEZdjI0dPR4z2uE2wMtj9bQjawVZyIO5z4vuEcoK02o0e/jTRqExM3Eaf0nHixSBfoeSFzhvHjvtn7U7wAk6rz9NnTvm2eo9uB/ha40Gtwlndc3ywwYu7bj++MhJTXi8OiQ0xdBquu1RxWlURjj6d6OaJW/0XbrepknScVAZNB7SZWKiPi6Dqpmt8AWjdFrsTr/tz2K7YLCU+aB5ITOlfUl/gs1l4jIEc48iRc7Hx2MCUhCl6BYk8JGLluLdfJTgkFg4eep3sG1vYxm4UYiMpfss+soLvdDjf2wcyxTOt9aCpzPN8kvvRW9w7OGQq9fZ+yFH4bZAY11wYAQirW7bEZEggjVllYfr5Fc/tuA3SxHRRJ8Ylpcsqky7p1h0aH6/hJUkmt9jqDvMzPetLT/Ikfp6L234n9KnbHl95y7c95k52N6rObaa/VsfzRCV/l5cTjlWTDppHSKQ30LG4zdrZcuUMBD+bLX8zzDdZ/dWVlqtiH/yiBlRaTDyfNAwscjE8QNFFyHLEp8OtlRm32kwa5juVfSqNGtmWcz20VQfiOiHCG/1IGjKN1Rb0nHMlUH1nNXUW/c/HiPyWXGR+4YjHMZflg0cRfKCfCy7Phvk65I1KB7TyZHL1Lyy5Hzj7MFk+Sdo5QvsjR0KoBnX7m9zhAWK1jZosWsa5DKX/VJ502m6Ka7nhmvusIP4s17YNeGRVNiaaU9FdlprHQcmEWlkVjS3lnrTwzkSadk1+NmgWTPurFfCRjJxHoetgbWdSJmp78n6SiEaMhOp+mI5ZodsMKK21WMskOVsWpFOms0thQ3fGtZPkliAaPbBmbAS8rR7B4Dzu1zAkTGy9VaCY4MYydkNL0pHDTsm0q5S1H3Irf02ity18jTpZamBMchxYnwjxCZnbi6yCUYuPWJ9RnqQbV51T1EmryRfMq+mWT4l9dIaeNt/ahW24P4vgSckp9HF1V5l+gd52rKcqJ411m2+sbWm5JrmuGH2yWXeSdVtJJWc2lvEZWi4OkPEnjmh+kaWLTm61kSw+BdvJBNcT5hWlvbt3+F9J3H7LDcutN1633MS3rm67aXng3jv8S/G8AGLVj+1YLJvcGtrmOmEoKyQm00KAgmLlIli4ubHjpBrsXkDNUr5QrU42IeE+cYFXU8rnlWPr48c+cKBkv+P4hu4cJSM6IxJlrqNnEuM5OrFVceovdvCR8WafpgSuCtabZCIHPWPPcUMweWhXFnl07ZO6jo9tDLtrjKaTEC8+8O160e2zxqEp2lHmUZDHHiTLym/J2X350l/VKYS3FddOkiD+3xcxHON2MAKqoKoRICEKrUSh5Jzghel9ZALzypb9kbu8DiSkXK+DBEbHoEPnVAdBMKfjs7EU8bMRjWQ7xVz4oaWTA9HKSNoemoucpCrYHn0kvZAs5Ct+/ud4ybCHFTYE0+yr/JWq6ylmHxkKrq65EBtMIIobBpfxSW+omETNGlUun9w6KX5bELklQMfXtpD3ia8ciidvknkmRnYaN5TGMdUfL89Onzrpz7U+/tjDy7/9N3+4/Nkf//7yx3/4xeVP/+j3lH9p+dLnHxf/kBT5kD7PqrGyHqc+geKjnGA+JBccBwTyYnpzHkgze0y0vOBMCds59pG0jdK/1s4kL8DPZFVSyG9JAGlPED1JtK9CxLDjqmU4Bi1nO2UrSN0XV+VswCrmNkVQAVpMhRtmnU8UR6GKCCOG/Y1zkz0TWdNrTAKrrBvoMUHeZVAawlRfibLVFgK3K84L8ZE+Tm07bD9J/rbAiTLcEwSbgeMRQAjkkV03aqbXzrKppFwyoDurOwqZBqROLU+FqvdDR17NZtc+BM8QlSy+1VfQdJ/4TWPX6o0+IJV5Yu1JwbsWtjPbhRtb4jk1YYKF0CFbmelLYIEUCx6oYzA2L+XYmORlxrUmO5TYjn7yScNw/CMeKzmHNA/wkNte7zOpJbnqRx982PfI4QPLww/cvXz5859cvvjZx5bPfvKR5fOf+djymU8+vDz6kXuWwwf4wWDeWPMbnNEF2OpjFJfzOEtOseFy0UYcAz1Sh3HJJV7atR1iD6nkzrwPsER9xIlM2yq9QVPyuVXpvRB15F2l0eUnsZZVs4rqMdl+Yl+sbua0Aay1+6a1vY6qa75IYlYLwD72Q8P1eZJklQh3lavalGtrO21IMB/CTBRWva4VFFd4tRuF7fEbJ8kOajvQWek09tRTdmDS8RWKN4x+nhcba0euWwfYNZfRl87GQ+OiO57ypctqGBVHWxly5phb8UW+WAOpr0RseODWAFrLYmInYlZBFsY62CwSdhT80NmRDDnXHBMyeWhftxOlbD5b3ZJ4VSog75hqkPlZqbDylfDhWscQu5h20mY5p8SDRrkOWnhCSImnQYmEF+JxyTbLgWD+oKXOSUSCtNEO289jCeT42utu0k4+gXpF9cuqX1528PnUS+eV8qx6jSsvNvrW1Gie3Ret8h4Tje4P2zMhOkh73z7Uxx13H3uSue3Psm1zMxFjuNfy47t05wS/2uWEQPnKyl06EXRCxpM4aQC5KppeslEs9dRT1m5E2qj4zBOQ73KjFh29T6lVVCOIkDZ0fR4MAnKdl754FLu9ZaIQvWtCqRRU24jZVI5Dtu3wGydJB1HBbYWditVcO3VyJUQxU+XAFrlTwcWpHnurz7aZRqz73rqxbBhaG1+wKehly8QV0DzYlae9Zb8mJwitE55L4dnuZiqBCatHSh2B5esEC9peTTRgw9ZmPLhyggMZYccEvxU3c3zb77hyoyJe26o0Y7TLedVFTyjelaV4XeOAwq7l1/gRMS9isT+DqlJlviCwsuRZk3NffHPMAD65De34Qow/NiQcd5+ALHEm+ih7Hz1APTZj16JA7MhUIjM/bW2xUkQ4tOa3bPFRRyaGhAiPKuVZB7al3b7AKgA7tiWUfXhOVNmKBmzDdqYYERywZrYYWMMCQ3Qrr8aDbDOhFanGe51rJY1ZJnNP6G3BYiiEskoHZiFTGOKDGK1Gt9nsVRjWVtEN/MZJclvImE2X/T4gBJFnQkp0QKXmeaKsbaDETUPNRO35o6LktsBUZfPqkX3aikTsW1q+0B/+LQedFJ2Z7iW/8pYHeclSvko+Puck2GYZ1V9Rh05YxVCi2Eyf6C6JJV+U8xytJIrWMkH7bk8pb8qAmV/Arow7HlWs2T7MQ6gwyVkn1JSV+ihsgP4jgZJrPfz4c5ZiiyzAT26Ikf5eP+ICi2PJ3QgfwSLxofXxwfUYkC5/1X9NE7AXh92vxFMxid7yVulkFe2oqt7tJRXBQt7aPkqFWQ5J0FzXm06OnJB2xxT58Em500SzPXTsu9C2KjU2dStHllQ2RjtMhh/dRotD7rI/+pWH6sWwZJVXG7RMR96yniCbQZSOf+v4C81o4qRTHAEaLWpQXmtgld3E6I9hN5a3k/9gkyTYaEccxSkrlGbFqZ27M4S5DSXfDfPJUIFbWjr9VnkOv8vWxffKctny2mG3bVtHNJ8oW1cgFFRN/JXYpjoC6Pa3VKhHBuVY8e2hJgFz2WGYYIRul+FyiuObLkpeuVoJ+fhJolx1W8cs8vjjEEZOO/4GirSBPg62bwI02Sm/gdpg3VYWd2YXaBOTfK/oWjzljnQLbDcy67Gwh43YYrcthG6Ltu2KbZDsaK4L7h/I0GTHEyesaodvj/ENqcYYZafiSTnijqsT5NI1f40bOZfhk6Apb5TUSkfex1AclYek7VRZoNx+OiGLj7GaLj+mKdm7ZXOKW36bhF7kA3xtwIzNc2mg46kNpK8rphlVR8p9s5HCd15oXgfkOseEGEQb/DBTnvSDapt5dSy3AJpvKiwiWVM38cEnyQL+t4PdNdPR9SDYVHCNnQNUwTpK7nxKlqhSJmDQncQBAdWXVsVEJ6uTjFTSGYMoyJcNVOerFNuzHDLOwjdNGLRNiy1nDnbGCS/YkOpFInNRO1iOBf91AujPyXA5NHajDGx3laXHbY+yWeED927p22giSL0MeN/GKltRukqJoeW21CdA8wnkwV4xODByk8pPKn1qFnHYnEXtq7aibJrSbraxrnpExZ4S8jZd9RSTg56Y2m5j8Lek6uwB26sEhoyJTQ26NqiWSXEG0TnGjreT69CR2sQ2pNLLllpa4RgnhbFqFMeS2rWvUllhpguRoV4GTaaECLstgFJWx96ocdIanc99PWjC8JvKBg+Eb9Y1vK344JNkOUjBFMfbCWYmsGsH17WYG5GSTZDsBD4ThlKo2aqVyCZpH5J5XhGQ15Y/7XzpaDkXFTOriZokrRNYRrlPElZ9rNziBqLpIFesrIRnpMpOcSojxn4+Q2v6StfJEo4D3XWi3ETsjauk64nRiHLKQl7ohBdy+0jMpCA67K2BDHXkUhopdrSTTHk1zJ19Vw6HtvhZYvkjrn6kweSFGpqjj0j2lTjNLbo9mJ5+oAyrmzrahDg7p9r3RClwTGJ/TdqFWfnQdjyVk5CvOm1wO6Yy0ua3zbZXPLjxCdEMUxuQx+oJlI3EWCt5jt/MX7OIu2TjLtU8N5LrgmUtX8pAxXly7M0sCWdsumrZFRwfG7NcWOtYagyrLmhHXjousCejv5xMKptiqL6OE3NswiVkIhJLVQ9UcKXSKG+PD72SBOmGcqKo1o7JrdPoGGVNTyO6lg7wLWc12AfAq69O1RcbeuFlS9U64suSJ7Rxu1G3AQAz8RJ0LKR5UhoHxrzQ7dEuIovNnhg9aEXzd0bhDVv8Us6umqwiZ3LpYdW2pxTfa5TQui/15xzQzpbrW0QsBilb1npVHnxBRW5r0zeh255S+4gNm0jqi0+zp1hXHWLr3YpUVyLSscsOSvGcxRY8x4jf6lMnmI4Vye4f+kB5xVgmMJK6kOZpXKjqYyGbuBttmFIfU9e7jJ225f0ky4fZJZNjnJMWuyTbaN6sg83u06K73PUt7TZsE7niNx2IbrvVD1uBaOKjUjQ2dLbammBq83Bu/5IffQIpbeXiB7/7FLgfdA74EQO6RR+IA2c2p133owmmV3+ZjvSK+Io/6xS36bZcesD6VX4//E4mSTpmEzU42HcQLUKd4Niq7M5TKGiFNHcOSuVBV7R0jiSL7hSlQgruF0N1kyp3OXrzAYRh2ymWXHJXybMLUckTJ4PQtFgNPcm1yhNQtQ++iYW+nDc/lTa4DSTRQiWDzXVSDiiG3v3ZtKT2p5r3QbWLycZVhFNMCzalUylOM2Lc1So6d393n4vgfnCKP5VgZGvFLYC80cbKQeiMkY6n+zN7MORhmxyu45piS6qqSUUzoXQoele8os/xeWwrNd2tdHtXmYalsLHFjutNG/TwOmQRiyJaF5RbtuugdC0zEp2hP2xMtsGo2U5quEyK8yEDRBp0VIpGdJTNG33dx8ci806wpvPWdU6MrgktCkZZPP1lTikigajYdfa2gC3be3986EnSwUy3c44Rr6L7TSapAq5+kUiEELOsddVhnMyVujPMNlb7TcTmJp0fSciLkGC1s6J1IpNBvHZDbAbWJVU82KfsWxDxI5mAONxQZ32AfcAE5olKZb5dY7ERJ5AmsVAsvwhbnz/lvjoXYslaiFveOlaCEz4k+642xGP2Fi90nMhEPivLspjY/JKhbo8LSHSsNld5x9OpYTtK6GVSz4TBpkLVi2Y9xSx3fZcR27ZUKXWTIi4qsvRV+sZ0ifZK3qTBKNvKSX1xNgedojdttN36oaNjiNe3f9arcoA+tsuHNjjID/91sSxJEfxXtLWMkVyc0a/xTsJ4pTFRClNxXCz78ZKBQNS8I3cRkyZ1PNQCNNHPVnU2Lkzoa+eVLFvVKcRCazSdqnSdmtMIHeI8hvsxTccW8+GzdZ82DR/5ZIWo+LOtdZwh8l74nawkHUQFmggCU0XkwKTDNkEjeuBGXxIlZJ4alImhTw5OmDTUdutkRm1AFTbbc14oPdDyqWN7lQtJux4hVW2/ZsHQX4uKmq3lombMPtMP7Wulg02tWS++ZkQnfeCfK1PfmoJv9ES3WuXI+mT081Tsis5k3/JlKymTo8lwuiAefc1nFB2T0LrujqJtaUZQtjcwVevoZoxIznGFhWqlSaHqLe/N7MRDMSdUyZpfqctI4qfaZ3tqn2vQkPHYsuGyPOkomQMfXeS3JGPU0V/7m20DMWYqPKroeLxIZ0yEpotGSmWNg6xSxxl/a0y+4NdkYxWlzm19Qx5CM1IUVTsznHvruuBy1eMbWMu8LILWBcMM4jK/7VX8w6TMxaZoHBvJNg3ykCOvNoYAro0zsivtvfChJ8k4i0Ptnbsh1EMcMhEKza0b++IXmsNWlUmtD7y1ipiy/VCG7IJZQmzZnmtgMF2kFrPauR5brttnZGK7uNDVhWs8K6CECiTtE7pPulkyZVO1M1vIgZ8smIedEohG0UJBfrC3YLaHzCqWXmnb0e/oJ/9sDO6aOJqT3NwYLqz2QlubUnLEU5QwRy2liWY7LrgqlF2bSm6qi/CKDgMTxU9VhBFM2Vfqdo24lNsvqeobxyROzHOaZeEVmm6UaywguaFb9UYWbT1posdeaB9Vj9iq2bbsq2hbYQnkGI/IOgXomGI+qQgF6iFtuTAUrcX/v7z9B/clx5HlCXoitZbIRAJIaC0IgrpkV8309Ez3npmz+432Q+3ZPbs93VNdXawiWdQktBaJRGqtBfb+7jWLiPfPBMhKVrW95xHu5mbm5spchMKhs/11mNJUWRdyccYbGnBgcwgUZgLSziDZZK15aP1rOQ0EjCgPzIKvK6eGP9FIRpEUNQl2I1okKy/Njl8yVrTg5czfHU8I89t1XCQbIYffYdF4yj3NRAMumMkRBpkz3miSc+sDorEAKcJvcBz80TMztxJGdOlL0PJoABNensk4Mnq2H+oSIIiuMUB2jkcGV9N5izg0ZaDMF/3Ap8xMXjjoZtnArMsqPvSRGKgyLYGOI03TkWqnt4gHaxzx0M3O+sKoSL/E2EyRYxDe8QLfL1pLeTCFXhALJIB0cgi43syQcGaQqYPQc5CflYH8LlPyqB/6dp1xRhforUul0XlpwG+ee+AnWqeZvNkpHmmtq3HoSbqdtn+OLl/o/YZ76WM8ssE7H0kjgstfcSBXdQw9Ub3kdDtU2vK4D7W8Tn/ZVlsfx9UMrWU7D+0P2SoIiSznk3apsJNSFM4yQccXBwE4ZBrnHPhM2PIsd+GfKHNERm8NtUNE9MSFrCHS7w33bSRRiYSyjcIhyTD2GV/KGO6lwRQv5/jZ38HIqEpoiuIzL7Rk3vjEhzk6JLCID9Jgif6XvP41jQt1jewlOG5tXouqvMwGkAlUHU3QPGYrqOSIXMRD0OkQl/NU8QuYaKZ8Jz6Gk3IsA+7jKkzUfbCcnKKDGovS85Jd4IZJJxOkawHoWwZKYB11hr+NgesSebiC6Dcv46e0m2wmNSKdtzq4Uyh9Tde662BazqChAzXr4OUa8YLEKtidXv6VMm4e6IsHmcS2a1j6J56Ce9ETcL+RF1q/r6DTgV86Tc6y0K/OkODHU4JRudNtOaZpgoIpf0QVmNLhxBE9xde5RJa4WV6HiSJ+rutEmhSZBJ0OuZ79oWl5lmJ84nTmqAPnYoy/AF7HT/ThndsdVHXmYFf+b4D7n0laPsLnzBuUYGfMyloJRzhfLiLQ5Qrjs4MGMEhHBt6J2DDLL0SBSUvaEiKiePpX/glCZDxgKc1TOAP5rLxaS3dwNV77I4ZQfsFB2Rvl7YCisB+gJKa4NWnPeJ8EUOeMW8ELtUzH+zzlIm+Oc/ozc9RROJgFHphkzrrZORK/WX2Y0peDpm+NIa55OMOHXssnmQz4TVt4xyW2g/YbK0AtkgNTWXM6pJmAid1hKAvi/Cty56s6dunZeSDGsspB23gAGQDhxjU4Dj6HKkxaOLx2yHNwTqN4uoO3W+qhPxz9r3AkAkjoX/6mqlilySrMCc90TptYi0m8ueBP1AJaUmAuEQHEKmfAouxYqRhVMAtkwEpyTVDnSthpz+SW5fQqfr6mlDwEXX76Jw7/TBX/gvbr4E/ekzQ4d/F2I3Oila4VAm9/uYo2Hg+w4FnCVPhEW06I8NtAFRtu7gDElx74KU/O+gk76TsxF1g6/Evn392QRlsVpjKY6lcA31K3JBhjFmMFUehwQKeCrCU+UGlYTskvmiXdkqYhV/qEIz2njaciy9vyUnbGCGeKKV+m6boVGA29nVHB6cB5bvCVRrkZP/MZJjmtC59goLb4Ed3xdFzKKHI6rckp3DxA+JCHwRR2eel3DbRunUch7MIfXKfTcnVwWh1unGl9nONATLScHTsDcnNPbW09tBz5p+0IoVKPGQBcRqoXIOngoxxSFgGYiI9zgHjkWafWDxzxSXvtOx/Nqnj4IoNw0rHcQplIwNaG9cavI0XfbWh5hT164xwwrmU4VegbY7oMZJZZdOGTv2QazDTjSM9ei0yafwju30hOiZNeEisVC9dKpECsy9IBOpuXX9EseYgHkkeEdkHp5waTePgDJjTttKdUsg2IAMe50plYC8xlIjzlbZ2CMlg9y3UKQaDXlG6coaMtPfEgI3eiMk1whSiYOMA7UJgwVDidZwmTbHRqB22dYPDP5xlga91axmo4+ZxnIjMQC0m4vgYmWVEDsDrx+qzcGJdGvUxDfuPSwSwHNMIAR5d+8OEEidWRoF3RC/AZVbQAuCm/LVswhQu3pAFj7EqagqVcI4u2ZfAr/KR/4/0LLPNlflx54o+cFbmO7D4YQ2rhOSygaO2LjJbT9JycFURW3KRP4QprnCER4TWi8ALoe6AHHV6O8OsIjmAiFpxA0rCDyA580lrCHC5BAnzWd5nA18B9G0mp5kwgn1GN2RHBNF7sO1FzIfC7G2DmNNNQkcvlUDJIag3yVeFEAdjhg7Z16L2zdKLMAHDhg6aSdRoN8SE3pzoYn9nfTGtO+HEOCWC1m/W1ig40vymLt3DGL6HDRetjwywb/BxXIWR2eJJvhDmtX0kAvUw6cYLii76hmcMqY/LnPEbSJK3iJ787ZdULskPosjSZoGVNkcVOmIGwZ0+mKR6gB8HQV56dfmT1BaiimsH08ZqUs/imNArwdZ6d74rDP3fsGKu0VUcGDxBXNHBaniMqHsALjVGND/WMqnR9FCiIKsY6LbkEFGTQT5lPEwA5J6FDyDkgo+Q6jL/1DEMM6tyfTJ4D0vUjPiiwYDjCuyxH5HhlWT/LdLRCjstedFY7zZ80nZb1Szi+QHSKs1R0LoopvGQQOCzX+NBkAPkm+BOW26RWZ8FcLAVSfppqy78Wlpng1BlcwszVtHOB9FKWdFalJ+PzHlfLqYoGapkGQMFSwssJ0XdUOItfuM5D9G4nHv2IcbzIbUxbN9NziL8r9evg7jTij4ASAois0+Scii79TQBuwWGxkQHNcnlmOfaFpzs8Ax2fso38ziOuqYPvtM0sTkb1jOwMduxD1pIZmtLBzjTyCub0ywA5lLJKenJF7jQ9YM3yGpeyT7gNWSVRaVRKwhPh0qs0msdxS7gHfpIvv3Xk6nD75dyebBhM7eMSoO6fRbfeRBI2cqa0nzRdnsn3Os2EnRvTmtjg8oJFuCn/pZfpAbMgr5fTddEsrHHlz4w78pFWEhVHbKUhZ1rAnvCkjgSTDMokbaHrB73Wq/y8V1m4PtuPHEcVzqGkhj/1UFgrvcgneMRVyPEFlDcRxJnfhE25CvdtJC28hKJWFJidVbXC84//vcAcovVoYpew+Tk3L06QtOMPKoVsFocBERjXMoJq56cbVtAp6FREoM8Qtl5A0yxdAyRNW+SGWY9gHe9wyXCGSlLjSUeo7viFDC6hEpdQ2PAv6A3ViDlE9IJfiMJZ8BKiZOSaBrmzUcQ48J3sTZs2jS2bcZvHli1bxpatclvkF24zbtNG0WzUgMltQBKkZJwHHdrYGPDYFWaKwBu+MKJD8tgk+CbcRFduyoczUVkJZzAEi3YJS/o6t4wJ3MHVjSoNAFltBCI2YQKkgGtZLg+B6auem6+JQ5W9yg0bU944ypZyXboNG/mUak1M/I98y1pARC/S0693IHrOViJagnWCduJe8E5Q8fCuX/+A9d2Ibps3+txu08a4jYr3HmyVXU2DpnQ6H0kFvIkmmrTH0AKRsgaINw2AsAyK/MxX/E2xFu5/JlkSXX3KSGeSBGdFSxEhEo8TxgpGBM84fLVugzrcxrFu/SZptDHhcl+tWy+22bFVy0v8wbd/qPONByKDs+m83Coe+dGKwcONVSHrxM/KopOO6NUOjs6TYNZ/put4/MwcLBFDMOmg9Cni1sP6zuEkngpjVPcyFIzw8QHpYIlDq+BwSR1a3Cz3jtNpXNJEF/Tik6zoSNpz/vo8g/OoPBGzXA3clh6apDuNBzZsHpu27hzbduwZ23buH9t37x87dh8YO3bJ6bzd/v2K2ze2bNs1Nmza4vpBavKrGQUzfsqOLFUaStoH/8h3Mh2d4g1RO4Py63LDCb3Md5VL6gJc3NIPrdsiPOWWdbd0lucyrHjXuc7mkQyrJV1rxmSnfLrtGV/5kL7ZFip6yoNOrzMU0JB99Fq3XkZly3aX45btu8dWlfnktu8RXjjhN27eri60WfSqa/cJyW993IZmWAlBw6nOrgkZE35dL8Qgh7rrOiNsJseiKzqLXmlv2LR1bN6yw7ptQUfpZ93x78C/K/puULtwf6ePpPw4IDtbd3OZNliPcokj3fjRl/ZqB207R4rGPyM4/kHQyuiPpJzghtz1cf38yXH+zImxY5tGA749cvvKuHbx5Lh5+cy4deMq2UJXzw4pcmfKlYQTjjgZNb6hvF4NwJWJ8qiDM1/R4sM7QWfSgQkKa3CqyLArPI1PS4tbN66PmzdveqmxkgY/BWfjIdwiYfwdjmyQc+Vs2rRZo2Ty00aggepyJ8EnfW7duhF3g/JMhU4dxnqU4XAiAZK0iByCU2MkzRjmENDQSrUc9U+eqIc7yrvyrzJwQxcaakcbUleKrHCkcFPzRkZ+5ZGB6catO+Patevj6tXr49r1G+PGTd4WztKa1APIJE8bNbth1uBZpmYUzCypB75pzrey/ZZxJ0OrESRQusWzxK/6aWeJp8xpTxs2bFQdyBiLZjIMrZSC8CyB/LtuEzkD6Us2v2zviELxU1kRh184vv3OW9P5BG6ERBA8bn4Q6t9pRGoEeTakHwYycWpLmpVvkLHD3bh5e1xXO7kmd11ljd8DjI2VzLlms8wemZFtpnw1w9yqmfyG9UpB8f6GOZ/mVf2ght8doFSsIRlangXEOlSZ6yhCREx5MCJA/3XZy1HkN29J52s3rS9tw5/dQN9qV93eN2klsll53bpFs+KNGMQ7Lkf3T+lLoqTf/c5gtQgvFFiCMxnvnaG2NW5r0N4+9j/46Niz75Fx6szV8bOf/nR8+vEH4+K50xpo9o0XX//L8cr3/mY8/szLMuA7xUlfTH/8k4zkhTMnx/at6qTrNa+Qkbx+4eS4cUVG8toV688S2EsRwTKj5IFCvXnrq3H5igzFbQpPjQkGk+gATagnVPBgdc4/B+Hgd+UlaONMJeQlG1SgOiodXUuAddxaQqOHXnx0Jjc6ZAgVgxKwXJALvztOOWKIxtEY0iCgk4ywTUDjoVHf+eqWjIUaxyaWThgMjDeNnRkMbJWO/M7tGjkgSJlOwUzp2o1b4+p1GuR1yWCmg24zH/KEcfimOtjGDQ+kMyl951UN12enRpD0wSkNypDlkM4SM2Qbx5Xrt8bFS1fH2fMXx9mzF8b5i5fHVRlM7wOTSdKzDiwR13nZvW3blrF3z66xZ9eOsXuXZkRKe+OG9WqGSosOJN5b8EtJfvxRB72XANrQdHIuN2aDClL+N2VUbuqc2SCk6INvloUPfKdhucu0gcoDvG2QPAgUDrAMMRDsbQW6Js5loT/y3bYFTgEZcHQ6wfpMf2GZSnkzW1c2xsUr18YFlfE5lfeFS5fHlatXXV5tuNeLZ4MGhY0yMjt2bB07d24fe3fvHDu2bhlbpU+6lX6ix5iXWgJrIUAnTpNCzjtgvQrtfOOBzn/pK10pfyJuq81LLbXFG+Py5Wvj/IXL4+LFK+PKNYz0bCSR4a0a8W3VwLlzx46xR0Zs53bpq35Bu7B06ys+8bgsu9ANKGVJDgVKUUPwkiDsrRUjefLMlfGzn7SRPOOVzv84I3nxlGaSp8eNa5ejvg5dDfZRyHZKXpV67PiZ8avfvjFOnDynGclV72MRP6lU/MGpCKbOnAKaKzB+YxWPYcRI0tjWa6Ri32Pnzh1qOLvHg/v3jX3qrDt37vSIy7eoMS7XrtHwbjq9/Ff1QHiWQrMBsFNF2zBpJvfmW++M9z/4aJw8dS7LI83wSvGoKbihEfLalUvj+eefHs898+R48onHPau7roYkcQLyAuTopGlci7ASc/62bNk6bt5ZN377+7fGBx9/Pk6cODG2qmOwT4juKasAamA4Ll08P558/NHxrVdeGIcOHlCD3OC8h7LK0RMa+B8Y27dvG1u2bpPet1VPp8bHn34+jh47Lv+ZcfrMOXWESxro1AkUj4Yuv4iKT4aWRo+h3C0DSefdu3f3ePThh8ajjxwejzx8WCsRjMHNceXyJc8q0dv5TZZdxgB5cp3gGkhH9J7FaJb73vsfjo8//mx8dvSYZr1bXAcYk66vVWg5jUd+hXSY/dUW+OuMPuDRkRkP2u7Yvn089dQTKtsjKj9mxjfTVvqHvJIbT2RN+RGe2e9m7+luH2fOnhtfnjg1Pv3sC818zo0z586P8zKSVzRzZyZZ6iBFXTntnWLaqsFo545tMjo7x6ED+8fhgw+Ox448KuO5zcaSMqYNwocqKMYPgZaH4AJ8UxouO1OGVhFwbFYb3LR5i1YWt9QmTo/Pvzim9n9mnD2nwVNG8oraBiuN20yExGx+Q2SywqCN7Vb/3LdXOj+4fzyidsGAyqBz7eoVl/EdlalTLwHRq/QRRO3MUoNPP2IWeWfdrbFTA/P+g0fG7r2HF0byw3Hp/JnMJL/zV+PVfwsjyXJ757ZNMZK3sty+cen0uHn9sgvAjbIKFPDMTjgbMS2J3vvw6Ph//+e/Gx9+fEwjzgU1tB2mmRSay8RgVZcIwMQhxNvRJN0dAz/Llx3btqrwd9tY0lEPyGA+qEo5sH+Pp/p84B6DmRHalqJkRWoaNRXRcnHKk/LCsui//f2Px0//+VcyJMdknDUqbt0avjlHMkjXxsULZ8df/vn3xw+//53x+muvaFC5qsZ70bpD6/KqjNSpgDhmkGpYO3bJ4F0Zn3z+5fg//+4fxqdHj1v2ZhkFRncLQW901O/KlSv+2P/+fbvHn33/2+PPf/Qdjdqaiaojs+S1dPKnvGNYNmzcojxs0szlio3h5198acNzVOcLFy9Vw8/szx3AElwyPjtM8vKhxnodPGhpZrlB5927d42DBw6Mxx59ZDwqd/jg/rF5oxZbt1i+XysByFiUgMt/mVaOzEo2bd46NsuY/9NPfuaB9+13P1J4h+ugZy8rsgS9C2NQlCWDa7KlDpQnoNPUHuRoL8y4aUvfef3b4/VvvaQ8SP87KlNoTVdGdgEOyzHwYhy5mEF5X7pyXcbmrNrQUQ1GX8rgnJZR1DKerQzVVWZjuBIkIA1rJD28cqKcpeM2TTowPo8cfmgcefSwBqWHvN3BzP06A6PoV+qrZVp+Ao3q9t6YLO23jqs3bmtFcWl89vkX4+iXx8fxEydlyK+NWxo0paoGvVqptSAgSfo02QM5BlMMJm30yCMPj4cPHxwH1E/XqYxuq12wlYFamZUv9Aasc4wkej6gFZbLi8Hqgdtjp2aSBw7OM8mf/tNPbCQzk9z/jUZy/f9TYN8fDbftbmtJfV0zxs2+mqbCljK3ZBxv37iigtHo6sxXZy2gQlLYdBbNJDWD/Nmv3hgffqbCPXVWoxHL7+vj0uXr46Km6xfrfMn++czy4+KlOrcTbcdf0FKw3TmNZmfOXRqntSw8efqcG+Cx46fHF8dPeoS+qga4QZWTK4Za/lEBVKoN5aJmq2IN8nfjUmZUaRvGehnJN996d7zx1gfjE+Xn8tU74/rNO2r00ps81fmMGtSpU5fVYA+Oxx57VI33EXUqLQ/pbKpyktSxpNdxSjudgFnT5i3b1DCPjV/+5s3xs1/+fhw7cX5cV/ldvXYzZSh3+eoNnzF0p86cd/k+9fTT46UXnxtPP3HE36u+pRmAJTthDLCW4ioLZsIsqz/65Oj47RvvjF/97q3xzvufjs+PnfDy+po6BxfYMNgbpQ/7opw3aGawXo5zO1YNKiQvhdleSZ1cdPmfll4s4ZnVMwPauGHe/wPcMeUnNBdDQmlLwtKe0EF18M57H4x3P/hkfKSB6totpak8X7l2I07lseIWuMvtX9It+cp/teOuqpwVPn/hircaqJOHH1F9HnnEM0ktPKNvKe3934aq4+7UueK7yVsmnx49ISP/9njrvY/HJ59+MU6rnGijsFPWlOdGBmX2XWVUWQnEv8GDNcMB+8X0hQsaRM+K//RZ1f3NG15hbNeMl/qVQqJMGec4A2GKuNud62IqfJkOjLD6DG3kS60o3v3w0/G7N9+TYf/CfewSW2jSl4tH9PP1nkRwjkNf3APyc7GGgZa8X7x8dZxV2zitWTT73RjXHVqKs4XBNhmrjFmxSbmcXZ4ZkNvGMAFgBsrgsXnLxrFt+y5f+KL+Pv/883H+rGzO9atj4+Zt48HDj49DDz8hI3rQK5LITxp/spHctIHZoZSTMhjJOze1bFXn65lkkqkMVQYcJwN66uxlLROPjktXWWI9oCXwbi0ht2VWwDRejuWHw5rSJ8z0PlN8hx2X+HZNF7dNs4ntXjLCp5rzLOjc+QvjC82KPj96dHz22Wcara+Ld/M4/NBhlzsdlf0b50GGKUYk2ZiAsPTmKiKOpeiXMsDXrt9xZWzbvlO6oP/saDDrNP1/5pmnxhOPaQZ16KBHyJs3tNwukUCXXePoUOi0VfnYoFkqhv8n//zr8Y8/+YUa2G3Nmnaq/LREWaRHnmnINLg9u/eMF55/bvzf/tP/Op558ohmGrdUf1eUx3RmLmKh285du70XduLUufFPP/3F+MnPfjV+IwNJZxWFZ7DIpZwxhuu91YAERt3WWOUl/Zdhz7g9Y9ps/o3iZ3ZxRobypJZpp06e0Epiqzoxe2q7rBf5pRwa7Oty0QGZXvoqwJYHdfHJZ59b90syYlxJ3SajkAtqa5wM6hJvv+p/Ge/zArepcR3Wcp79Wspij1YoR448plnbQXVOTRKYwWAElUc3E//qLI87tH7wsi2g8XT86jdvjJ//8ncelK7d+Mr47TIS0GCE51tlMsMJuCB8Yl8Wo0M9kh/a/wYZUrayzp47p1necW/R7NBsbY9WU77YJAO1nJnR+O1zOjNYe/3JCzN26u6zo19qkH7DAzWDHgv/bZqFkS4DJgbSWyWSxR596+5zye+6w+DTjzFQdLVz586P06fPaJVzY2zbukVL8d0uM9LP0aoaF7mCOhmgJV62ieLavGWT2oLsi43kzRhJzSLZ5tr0B4zksrT/xWClrYlDxhnk9UUQlSTRAPlw5kBIcdDgPDOSoWWUY0bHCEXY91jZES48/nai37gMLxz4ONFYbjnhsuTjnAq8pNHrk8+OyRj8evz9P/5y/FKj+AXNUjEyjNquZFTmt1IJObnxFGD8rfciH9Gpz6WfdJnuZTO0sEUalB8ne9MQaHgYGmbIv/j1G+Otdz+28aJTbFEjcLqVFmnAx43CLHGffebx8ec//PZ44tEHteR6wHs9vnroClKHVF5p5CfPXhq/+v2747/9+Gfj57/6vZbZJ8ZNdSQvCTUb6Dy4DK0v85HMSaIrdV+BBuj0m8qnZLgONUvgQsSnWq79swzEW+99qhmsOu56ZobSybOt7rgcSjh+OkDp7yWdjKr3AZVO5JNWt6Us8+1U9mvx9oO3K/1w+AsfelziCDfOF7jQRHrkZvqoOfUP6YSj0zqodk8bwdiePX95/P7N98dv5T7/4rjiJN/tp9ORk3zaIkvIm5oVYvguX7mistNMVsvbGzdqD5QyRt/S0TI0c6QOT525MN58+33PtC9fvS49pHe1E9Vairdg6QeoB1aGTDiuaoXx6Renxs/VBj/69Khm0jekI+1Dg2brK+etM4lmm4etIOoZfa9cueqr3reFB6BD5/WqL/dbtTPKgBXRex98JPeJVn5nVHasUmJEozOuQPlm0ERzoignYl3sxqatTvkSkUX8EfAnGEmlUIks03IGOEtJG0pr0oQozlKKQHUsM3Q3W4JjFw4oeV/jiFvGI9NyGyegQpgxbtu+Y+zavVf+beqUt8cb73w0/vs//Wr8l7/7yTh67KQ52cekspMHoEq8gi74OoOc00vHvts1FN0ST20uwDFON/HrNVNlln1LU45jX54cP/35r71NIROY2c5G9KTRiR7jIWC/jIbIvtTLLzwzvvf6i2PH1ge8JXJNs8heApIOS7Dbd9aNz2QU//Fnvxn/9e9/Mt778DN3iB0792hGoxkCI2yXpfIIHzNQO+9N4sdYZe+MvUo3VuidPR3MTv61zFQHZdbIUpNtkl9rxvrbNz8YxzUT/Oorbh3CSMIPb5czIgrhuFqay5FWXJaSXcbcVsLZroUt4jEQU7wh+rULdPySbw2OesdQC9PQFEtAf9ohgwScR4+dGD/TAPE+qyotVXfv2ae61ky9217lkXstex+YPcpbmgly1RgjdEvrW+Jcp84jfJIuY8y+LLOl21+tH+999JkG1w/GlydOiz+3TFFm5ql2A1hCZ77OGDJWAexBvvvBZ+M3v39nnDp93jNHZuz0KzNW2ugcfdFVZ+kYXeOI8/2jpE9JiJ5JLdsJ22SMmV2yNfa+lvMffPzZuKa2z8pImTK9k3K/iZvaB2lz9jEtIVC0yhjZbR1L0kS1Fu7bSE5K2II7vSTo1AuW/gJQfmyrG/cCkBNbkWx1Y2wcMx9G0RtamnJF2Pf7KYyfiw+NY/k6PcLlNDqdnDtdTszCWBbv2fvguKolzk9//istYX8+3lZD2rhJ03+NXKFF39LZypV21SmXs+Y0rgqEKt4+6+SyMk+VGeeiMPsC6FDMOFjqsqH/MxlI9qtuyibu2rXXo+404xIzgxNlwFXr7du3jL/6yz8bL8lI7t6+eVy9dG7cuH7Fsx/nwXowU1w/bunMRRouFly8dMVL7y3bdohOtFY9GpIGfJT5pYsXxoVzZ8flSxdyJfLGVe/zXL18cVy8cM4XpLgXdNp+mcom+absWBpuVx3cKiP981/+VjPk8xSJIKVhWvIYJBjns1+C7Jmk4l0X8pNWpzPBghf/XKdrnOtz4YynnOKSRrkVupJpnXSe0pld60OemX1xwePd9z4cH378uW+q3qY6Ji/QkYXe6uHWrYsXVCZ3bvnK77NPPzlefukF1etz48knHxv79u3WAHrddXBdMzYMToogZUM7Z+tJtmmcOHVWM9e3x/mLV7Qy4Uko6lf6KW8p7pS5jY6EcFsSAxZleknt4sOPZLTk7gzNHmV8aZtA8qf2KjqW8pcuXvQ9mtzZ8NQTR8YLzz9tfZ9/7ulx+BArmo0ayDWrZMBWeaED+fZZaWLAafPsqTObPHb81Lh2/aYM9VZvc5jO5NE97+FE5V6l0UcjD5puGyaqUzycBcn2XXDfRrKhi9NQicWir7rWbQWKrWFt9Fog4zznmWUOexkJPyA/4eCQw4glI6EO6+m9Gg23PaTxBVywcixhGNG5/YjlCTdHv/3eR+O3b7w3Tp65qE6oGaUaAaqmgMNvcHA1Ex29JFubzxmiA7R2qkQKaeaVT2FGaDVzLzl+9/ZH4813PhjXb97SiIvxZPMbMrhIaJ3yrgZ66aJmkNvGs089Nr7z7ZfHwQN7p0ElNxU7RySi4zrhb2lJuW4cfnDfOHL4wDi4f7ciYnQsV/SkwUDFUi/3ZK4b+/ftGo8feWg897Q6wbOPjReeeWw8//Sj45knHxlPHjk09u7SjOCBr8RzxTMKp+i0A8j0rEqdkAEJ48xtVMdPnNIM/6b3l+kQ5ou6AulSA8wE8numJX2pZ5JYJBNeIZJv9mBv+2IGe160DQ++OoPzwIu7VU5LWbtFnHkXjlkdHR35rtPWjTR1mnDWjc77gPeSucXn2JcnZNyuuf1hjBpMrnze5OLaujvjwQN7ZBwfG69/6wXV6Uvju5y/9bzOz49vv/ysyv/xcWDvTvUDbvfKTfqdX04MhMhnj/qjT9i7Pau+wQWdTa4DNF7rzC1m6ob7mr84dnx8fvSYBtOz7hdc8EyeIUw6lCkDxbatm8fjjz0yXn3pOev8+qvPjW+/8qzday8/M158/snx8KEDvpH8powpbct5Ro4cOtH2aesnld5RlRP3iXobjDbgFEUPjw5d5vB2vhs/xeNMAC04k30jfKOR7ETvBa1Ip1uY/IS3kvzlQgNR5LWlhwMCZl6OEU2nWSdDOqqm4Rs3jG3btvoqKPd9sQHNLQOcd+zYbhw3LW9i6SlDyUyHfZuLGtGusfRUJyK9LkCDlUuFcGPrvv0Hxhdazv769+9luXntpmRut0Eo9QNhK0BeyVzQOF/Fltllgf3km4UgguIyG4qAJqc8WC5dU0P59e/eHr/63Tvjk8+Pja3SCcPe+jdAz/7UBc06Hjvy8Pjed14dLz73lJbK6z3jS0eGLqOuWRVm1gnNt155fvzoe6+Nl55/Rg33qveSoKLMWBZxz9qlS5dsJLnQ8oJmBX/xo++Ov/3rPxv/01//aPztX/1g/M1ffn/8u7/4wfjzH353PP3ko2O7OgtGGyOEft1GGoxTm6CcWZbREbkXkw7BtgizoBnCx6QH5dOW6ODcyDwvOZmBJYkunLQ30iU9r0o0kLaBwxARZnBtlydo8hRNXNGIvvExpPV0CFrQTirdpIdfBxd22jFt7aaWnlwZZz+cm8QxBgz+E7sAPRlYGMC4Z/DlF59zWf/NX/1o/ED1+p3XYiR/+N1Xx1/+6HXhfygj+vjYoT7ALT7o5xm8hSE3bQkDzQXGo1+e8gMBzAS9N+k0VbbyuR3iBEjAkDKL++CjT8bx4yc9meAiUG+JOIECBlHSOnz44Pj+d7/ttvH977wyvoORlHHk/KPvvTL+4offGa++/Nx4cP9e68sTWJ4oCGQJfI5e68YV9UP65VmtMCazZRUrbZ3x5ouTlWekMMN0XNEl2gcwhhCb/17wjVe3V4zJBDQGrm5fHteuXLZB8srtKzWUG1fG7ZuMCNxgO6VtQBYOY2O/loinzl4c77z/sW+LuXH9hhpCRrRlumSOe/y2bds2ntYS4wff/874rgr+qSceH88+98x4Dvfs0zrLPfvMeEY0Tz715Hji8cfsHn748Ni7d8+4o0Z9RfpSEXQqZo9L6BS50sbVb3a1aADcQ3lASxlu0clyD6rKnU9sqLNRvXF89PGnWi5+Oc5duCQct8asdm7I2YthCcII++ijD/nqNjoxO1HWTUdtkRYXarjpnacXmN3+n3/3j+P4qQtOj6vYdKoARoZyHePS5UsuQ66y/vVf/sij+Pp1SlP1lbsOikVg9e0hTTw6KF0eaduq5S9PefA0z2UZRYzjLelIPDdNf/u118aPfvDd8YrkP/X4I2ro3H+ap2n26EzDf0h5O/zQQ97PvCE5fnxR5cjtH4sqLhBCZUn5cKXfT+fIIYOZCQZrqaZBCIyAl17qOOyxfag6OH5Ss1BfTMiFhE6KtoRxZwZ06OCDWvY967sMHj780Hj0yCPjyJHcwsNtWY8++vB45JGH7X/syJHEy99xR+QeFT33eD7x2BE77kfctX2LiohyYmaJoqSeuvHFGtUZV3G5wsq+4NvvfOiLh9zCRLmEnqyxIrjtQf5B6frKi8/LQH5PK4Ldvpf0+lX1GTkGMrY41qmOd+3Y4Vt8uOjI1WHv/WG8PZBYbMm95duW9u3bP/bt2T0OavXAFXnoMUioHd1jjvpZdW4levf9j3xb0U2VtVdYFhxaBgrqapMmM/TPv/6LP/e9jls2ychdPCOdNVCqHbLdw7YBk569e/dZDpOYfoQx5QBIruS73ykP3EfJTfIH1Na+YuZeJEBPvICgMIL50a+WV7e5De3TTz/11W22hjZt3j4ePPzYOPTIk//atwCpA129bMW1yrWRvMU9kjevqhLLSHKYMoGLgQRo2Ke0nH3n/U+8EUwBtZFcgo3k5csyFjtkBJ8a3/32K5q9PKHK3T4eUuU+dHB/OfyzYxr/8OEHfaYRbORGZRUsezZV/9GvCgLAjHEPGAYhDeXWeOShB8chGpEviqTgwyMnL5WDYWVv56OPPxmffY6RvKw6zT1sJjUsjeRVG0lu8D380EHrxX6qy8hCqViufG4ZGzZv04z20/Gr377lm6RZ/rOp3waY8qFMaUg8C35dBvjAgX3je6+/Nr79rRdVRnvG1UsX8ow4jS1cOZVuFXKembXT0ZjBEb6s2dyZM6ckX51w9y4/rfOd115Rp31GxvGw6mGHllUbx6a6GsvVyc1q/LwRiFs3uGncFyFUr8xuL6suDW4L7oIJUz7C3VInYanIamGfBrdHZaiYEXHv7awp7ClPDsj2I3yaRWIkeRroumY93DdIfTYdM2FmOdx798RjeeromScecR4OP8jTKfvHw7Ql+Wlbhw7I0BM+VO3L7S3nQ25n4qGd0cZEu0sz6/UPqIy5N88NiJTRM7MW6pcyYguBNsL+6/sffqLl5E0ZTl7yMLd96pV7/Ji1Ysi/9dLz4+knHh0bZQyvXJFxVH0Sx9YJhhADjAzf8qR2d15G8vKVq+Oyl/HsO7oUrANG0reFyUBy4/bDauNf3Z7vmQWisfop5ay2yADEPZBshXBlnJdYsOxdAv0Gd0gD24taiXzntZfVHu7IkF8ZVz1BQedctKF82JPdpX7NNgNbJecvXNTgdt0DCXo2UJSUIVngiS2eyunJVq+MmiFamyHAspqysZHcpZn0LpXfjfHZp5+N82fnW4AOPvz41xrJVYt0XxBrXV5XboUEJKKwMtJLZsA05Fww5aXOy7gGLsIQv3XzRnWezWPPLrmdG8fuHRvGHrm9dhvHXuH2K+7wgZ3jqSMHxkvPHhnff/2F8R/+9kfjf/+Pf6tp/48yCkmfqzLwyHUhKr2kr7TVkWhsGPHTp8/6ESueMOE+yCz7VGSoVzy53aMdMgQ6Ow6HvxzR7jcFeNkUb1TnnbANy8bNajS3fVvSb373lpdo7AER1/S0DQaWW2qcLGm5IZ5N8v/l3/+77EMycvt+yBiZpGFuDtEJBH/VkWeMMkoYqT/XzOUlDUg8VbV54wPj2WeeHP/3/+M/jf/5b/58vPz842PTOqV57tQ4dfwLdcrT41JdqOHRtwvnz46zZ046/UMH9oy//LPvq5M/oqXg5loKMuisAenBGEmnoRMzw7p2I3vJGVyjJwWU+++ic+eBDshshrbWRrS4Jhryx0zloDraM1xMePqx8fSRh8bTjx0az+Aej3v68YfGUwo/+djB8eSRB+UOKnxQdME/dSTuuScelhzNKh/aP3Zs3aDV1LW0KwE6piPTrrINIK+NA0tXHukkf94FUp6Tx0AbLB7lfIxZ7cOHxuWL58ZFlettBlTlaLoYJjr2TM9pZrRBDY3Z5jNPPSYDtN0zO/LusuKHAuJhGcusje0Uys34lJKi066Qi90mH+jJ46fc7sPgtrpKClDuuMcfYxX36NiitsiFwksXznoiRZ/q9s4WApOsq1cuutyef+5JDe571X43Ou+xF9bY+fQWhXh6tsns1g8pTBDagDNbvpQRHY++PQF14mD4nP+pDFZBRXC/QFYLSr4bgxwZJCkoUvEZl4zH8tcoMMHSctwDmpZlKY983blxady6ftHnr25yA7uc/LeFu31ds6Zr58fNK+fH9UtnxtWLp1VRp8f+PVvGyy8+Nf7sh9/zM8NfuTNV41iTPI2Y1sFIzB7Iec10uR2hlwG9x8Ev2SN/+U3gPN07X1DZ6dBX5AzyII8lIkuQUzLSf//jn2qp/bGvRO7gdhk1zqSfcuF8oy7IcBHr2996xY867pKRY+uDq8zMszzbn/QJf7QAIif1d8dLYi9DtMp65qkj42//3Z+P//Dv/3Z877vf9gzq5rWL49LZ4yrni2PdHY3861SnzLTlKFeubPqpE5UvSytVzti5fdN4RDMyluG+ibnayAyEqnOqQ3ALEUs6DAjNdNqGmbJghR0Gje4Y3rxIIUbSEYLkm3AGlOwvM8PRAHKF9iJ3lTZzbty4LKe2c1Ph2zdoTxcTXw78FJb/hnhoa7dvaIZ8+7o6tNKmfDmWigAn15t0w5Cz9XBZA8Et5ZO4JS0ADerzTDhXgXlgg4sbX7FlEukRugByeUczwge0AsrWxw7P6CFjFk084NWP2jhlhR4YH+zHtGRFTyvDoBWDSNmyRMchK/WBtCgBPTj2PLer7fGEzDWVLXWP7rSr1pc0Op1bGlQ0xPvlFnt27RT/Fhl2rh8wSERn15noWWWwQuAxTfon+LTZ2RkqowSNb3skHnvAhcLHPwT3aSRLi+kMkHApihJWJEpQHlDGSJJxQu3+MLhAJQv+7gie2mvEsVPh9Zm9r+sa9ahMblpleXdJM0FuCj704IPjtVdfGo8/yjOsG1R4dGh64awHGlP4APtXF7QEOC9+lhwsgcle57X+XwPELGNT4ctcI0Njr2TSgBQSOcv29Ru3qAPd9GNeP/nZL8aXx0/aaGzdss0GlEpv2fByZZRR+tCh5O85zY4eUOPklXV+LnvOnqE/oJW8dDTpC6G/L2iIj+X7QwcPjO++/q3xw++9phnTo2OzDOdVLfcuatbqq67iplw4w86yv2dMiKee6PDccuTn5uVEkLS6YUxAIB2IeDqj6SomQuPIN+VnDtFjgLo9UKfu8PAsjjh3boykeBkMuGDFbAtj0UaAWWz2yPKqLzvRTP7Cm86Om7nz+jIbAH6oHdUXkPxARxmzZO78OV8LBvKHljwk4LfiKN7La+Ept/DJFb/zJtezMC5osm2CkYQm9FBxysyMwYTyykzSEdIbmqITkB/aXPYbudBVF99chjOAy34rrzzTZELRlAttYeVNYHjaGOuPXCLYauPiKxdPOw/RI+0BnXOBjb1xVkWgcrN6OyCn4iOsCOddDjFQmHZiEL68Xwf3aSQBp7g4R60sASRWifvKEkMUMVNBpZFYcUMytJSzFpyneA1kykWgCkWMCwKMC5+0cyW2uhAE3tdkk5v9piMPH9SSZJ/3c5i6QxPaBYgHg8xs8uKly6qgyPNRpFQcT0/0rPIumHpJu4LyWrOSA6TT8yKObX4xw/sffjZ+/ds3xjvvvK801qkB7VpKMZAuDZyBYN/evVoe/3C88OxTY++OzePcmRNqTJrlMdpCa7dWggDd21W886YBhKUz26oH9u4ae3fJQH91I3K93KvyloHkHBGUhUUYSpo7CqsArtByUcgXU5SGy8ByUgYpD3vFWwE58yufmXVHqvNCeg5hnGX0auC0sVInnuT6WKBAL98apra5cGlbqVtkOznrJFrT40JDfLdp0nK6eBRuGb00Nh6ISEEj1kKVD0TixyHD5eH4zA7dv/SHjnS4wIUhxVhx9wPbM+mHGJ1KE3mG4lVenETG6qSrX+sOrwe/5kMNU81AHOqxmvHkQ3pEF+qo+Kb0AB0JOl4hMWMoWW4TX7mHcDp3OaML9NShl+/yu2xNF53D0fwCFVDSqh9+OdPrZ2W+BuaW8i8BZ25VLJmySk4vMZMSdZ4zUnFFN8MiUxPMNPbBxsnGN0CRIApU2gwNKTgTC7i6zVKQ99XR4dkAhsq3jFiviXQGCcBQMoJ6ebgUuIAuZsO9aO7KluKFCyXlw2i7ziM/M0ae+OE53g8/+mw8wDJ/I7doZKmP+G4gzHQZrQ8eOjheeOGF8e3XXh3blL9b1y5pJnlTlcusIzzojvPg4QYfNQwr+qWBUTYqNZWZ8n5LM4KbVzVNuaolNBflMpuxK2qcf8KlnpNuoGuEjjonHB/6OGhIGSMaOXQAzaKQJzx6N5fDEJqeumbAyC1ANmqlQ+I5QxXHcpuLaqThMpGb2sxEBbR/xiMtZZh07eS1IUIOeDkbN0WZonUpIEz9MYBNMask1hEcsyaMjWeWZdh7QEWs2ZZplh9YipxvjUkevCWBDmpX7E/y1pwJLKdEVbvHGPVjkpbhupiBPGHAmFFzWxTxPHLqWWTU6VOrJ0BOlxlhzuUm6uiLY8Xix4ulMzw2/C7bZU4FZpWWynOXD/mYDH3Lb78dhPeG+zOSDU5MUDoSornxc5zw9nNcQwsUZgH3wEyoyjAgHGgXcDDxVyHg3DChk0ulmsqzGPZNmNobQ0En8h5AxedqXHeMmXTBI283JrDWU56lvncBOPNBmMbKewTZe+Rm8d+/9d44fuq0b5/hVgmzlBzOGAOMN6+Rev6ZJ8ZrLz89nnr8YcnjVqcr6VBuQDPA58bSeSk8kA4HfTkheklmY6zlJY84ZtYVua3PJAgeC0p8IuTgUSfkZmTeO5nZD52ac9OljvDR+DESefY6WrWRCn1BKdB1zUyz8wZXGyfCzQgOo0AHRpw7GvTykyZ59ixU58z+4IETuXP7iswZnIIO7RDOL9C0waGDr3KrXssWFsy+3sLgai8XS9hiAode5BFK5PSy1zrhEY5Y2gfttvc2Z9HyiJBVFC/q5eXLeVY6+SMSORyR2bM3tkvQF4cIGxzLC1B26MW2BO+QRF/uv/TtWSnASYWpHEsC5XVbh+gbuUvZLms59PQMmde9fQVt9i1xkAA+OYuRjnMe5Lqv+6eIPv8h+NOM5ARUDAkmxa48yoZGsYxroMBSaODb3Q3d0A3qbJYt584oyAjejdcop8lyaRYLbTsqFJest173Sj1JJL17QXiduyAETTmf8c384QgXCiOCizQ8MsaN62+/9+H47//403FWxpK9Sd4iRFl2GqhCwz93/rw7O1cRucGYq7FXL57RzOPaNOuNwZh18NH1gjySr8YDEfEYBsqF+ObzsnOV1rkRjs6Dm3CgoSmciQSeEa7f6Fdhnb940Z0hHXINKF1fsNHMiQ7B42ycu65s+JVSjCzk5AWdkzpG/PatGMrkdgbrJR4GSZZ13CGQNsQje5klcYGCm7pxLPs8w1KayW/yjt6wTe07B8mCzpSmo6waxOWzY0VLFHnbqYGaZ+4RYWTRAb4tRvk4d45X/J31Dee8SwAdU7YAjGY2J3guOqIT91deunzZe6YpoypDkVM/zFDZr+TCEIaPK9rc5kVfmoyK6Clq2hvpslWSF2PnZvzOVyC6YOR4p+QpDfB580/28rsPwZPyoY2oDUg3pLB3ffnqVe8FU88ZjANMVGhnGEgeJuHiDkt67sJYgSQhuSmL1s/thB862A9AZM98/hqYNbkfqIxHq3iBjMCl1FIZoPyc7IV3heBegJxKazo33M27bESmrqALTo4Kngq48rBWKgBb56PIDJHT/pzvDUupMUwTyksBzWrUgLhpHMPxzrvvjzfffs/vFFSzHBv9arc0IgAd0J29NxrNI48+Or77+mu+ELV90xjXLp8bvCMSMI8O6Nf8SVsHznJuRhNBqFxneEEvo+yJzpggm8Wm0SFykAg6R5LZsllGXnm4cOHS+PL4Kb8ard+CBE3cDJYj3O5du3zjMHtchIPHryMDoNNPGD/RXP30vqX7HnXW8ZGLw0jy7O8uyWdFwXsOAcrVFwN5AkfnW+ynqYwxLhhMLihg2LzcRGzJc8JKv9uJ6ytZiKEpmvzo8JoxST6Gerfyx72kXPCw0YGgwAOCZHHvJ48tfvzxp957pm9hJEirZ2Skj3D8nrmpW1+8eFn0V7z8Rd02kg3I2SkDiZGUViWr5UWRpJF9b8qA19jhkEdZFVHOAt/ioxXRqdOnx6efHx1Hj37hLRCezGnjjTyn4XQyoybMi3q5wIpR99uuWl+Jp29QHzxQwv3SPFVno85M0nJC15q7rEutinV8YMII0GUVcy+4PyOpBCmbpDup5VAaSrmG8qYClko11x8Gi3CO4CBzySAx/Dq9TsORbNKAluvR8bZQvDCWJQyUNuhmWEAjRI9YZipTviaodCZomgoWrFB1XNOpIfj9ees2auZ4dfz0F78d72gmyRVWRk1mNHTUyqj5MJDclLtz++bx8vNPjR/98LuakWxVx+Nq61XTO0dqJeHqsiIUHfNbBaJnOrgWnbwAHufRIDzeorGrFD0LkOOpo83bdoxbdx7wy3o//fxLP7XB+wiZmawF51VCuTrKDcMP7tujKpTxYCZh+UpO6dMB7K8fOpH+fKUW3N1NG7y3W9Rpd+7aM9Zv2jZufbVpXL6uGdulm+P0+avj1Lkr45TOZy5cHxeu3BxXb2rm+oBmnZu3jw2bd/hLhLIE0iGDV2lFpq2Hi6f0mbZgigR/tkluqG43+jMiu1R33C7DoE08wAlZGAr0PX78xHhbAyiPEV69tU5lusszc1OXcIyG+aTb7a8e8OOGl2QkMS7UU9ebDb+8W2T0eDKKeyl9gUVlDJAfy3VeYvC56MaTdTtlIPfISGG/uMq8BHjYL8T487TPx598Pt54532/15MHIrjnl4t8Vsb60vzV/mUQ+TYO9yL7vlHNJPMuyuyRQk3ZcGV7186dfjiBAYsWvFK+RRtNJL/9FYkpaMjr6uBLfGi/Hu7PSApIYNoIFZBhN1b5We5lRCeECsHTBZreeHnn8NdDZ2Lq2pKL7GQSBDGKc8WGhkIwuRx68iEwRjkeV+MdjLypm6WAb69YA5EWWX3zdm+yk+a9XCmSMhBhd+QGURUitCodNfQH1OC3j881U+Dt4m+884HfuM4LcrllCbmVBfvpYMxEaNx/+ec/GN966Wk12q3+Zs5VGUiP1kXrVEiyywmok0F+8uiNdeWNqvI+FmkUvflaVjmAIsYxwGQfjxlxLoZg2LkAtUt52CFDxBvjMfx/9/f/pE7OrUz1Xkx6WkHazVd+JhxZfPfmicePjP17d43Ll857ACD1+ReY9RG/AjaSmnXE2K6Cy1J0zGqgPXnqrN/J+V///qdyPxt/9w8/H3//41/4/N9w/4j7hc9/r/MvfvP2+OizY+PqjTue4fNEkr9SSdp01uqwKMUslp6FfjggA07aIgaGJS7fdOFpsC1b1C61PPbFFAYXsSOLMmK2C+8JLV95wfJvfv+en1TjLgheM8fyl7ZJuW3SwMrryHg/5WdHj2vJLYNjHdEg2vBoLqXNc9XcoM5s3d+9uZ4ViI2JHfriGKQZeO+M7Vs3+Smx3TJWpLm824AkSIc2wfYRDwL87o13xy9/9/bg+0t8MpbXrPHSaBtAZItn48Yt47omLV98cdwvwmafnXjKFUVivHOLkB8xVrtiJk55W4BBHsmzDuWQTvSc95wThrx1b/f1cJ9Gcil81aVgoyKYSasC4yYLshp3L2iKe1EaZ/kV60wLFHT61kNBNSDvQcmIHD95xiPyGc1oWNLkGW6oilfgwpMMlmJ0+B0aPQnTwC3ZebSXUJ2XQDNci2tMZrT+ponksw/z3oefqPG/O85oFqNxXoaG/TJIU/EAHZ9RlqUW3//47msvj0cO7Rtf3brmG3JzUWVOFx3Nuyj/4OMcqFOXU/tD4CwHKsy55dKQ6ZTM+rx8VhgyZiUsmdhD+0KzxzfefEd5e3u8+8HHflciV+v9PeiqN84sNbk4hPHYs2fveOmlFzWTPDC2aGC76dlxZkPWD4d/Ug7ASNbGv8qpjfwSSAeHnufPn/enNn756zfHL3/77njrvc/Hex8dGx98enx88Mnx8f4nX473Pz423v3w6Hjz3U/Gr9/8wE89/fr37/hdjHzvJ/fO8jwxT2JlQEs5tpZAzlZnQrGnekdG5isbnUdlqPjeEryUQwzlXDboy3IcQ8L3jN549+Pxxtvvjy++PO7lKW2SfVtmV3wjircoMWvnPYw8JcM+JnJaPstklqs8PfWgv+2kMr7BG4PyVJuIOUbnSemaTW7gnQAPjQdVN/QLvxzEM9WuDJ3l5+ozs8PT5y6pbX8+3tSM8qNPP/fHzUifZbnfD6ABiws8fMaDt/pzwQcZfVsP5cTbo9jmOPzQIQ+e27XkvqoBBX0B8jWrGSNodZwBDKEjBFU/RizrqQkmwrvgvmeSS3BSStyjpX5dyUCOoUkG6MizQl2BUf5uaKzTqCPQsiIf/nlUIzKFjE7q0Bs2+wP6fEz/w48/87sYz5zLiyK+ftnHjbxbNNLu0ui1SyMXFwW4FSPpAtbH/6SbfEQ3txdjC0JiGvTiHZZ8bOvoFzEkb73zrpcejLSmC7H9AAaAPSleCPDcc8+OF154fmzbsmmcPXPKjT/5rRkUbOghS9sz/ODRrxwE/NFHMwLiSm2D/fAVb+Ndx5qBc1GJT0Zs2qZ8bNEgsmHruH573Th78do4evysOvIH47//48/G/++//N34xa9+46UUF0KYyVkG6SFe+nFFlHcPrtc05vFHD40/+8F3PFtmW8GPU1o3ETtfVjrKSEC3AMqUcuCM7LVAOWBwoOHV/T/+8Y/Hb377W7+U5BzPDF+9lpvEZVj8NJymy+MAANuNSURBVIw6LDofP3laS8dPx29+94Zmcv88/sv/9d/HP/3sl76P9dYdlYNmdJu2bFeZ0I7TBiendLtPWCP0VZ2Qb+qKt50//tij4xEZAB5u8LPNN7nQEhqyAR0zbwZO7un94MOPx9//wz+Nn/7zr/0C3UtXbo31mzSQ794/du7Z7+er33ufL3aecZvxgKt2Tr75RAm9b/++PX7ogFfpsYft2SIJki56GtAYPTBa6zyI4X/ooYMapA/7pS/Xr16Wgc1nR6Jw2Jh4MJvkRRvsp/76N2+MH//TP8tYfjhOndXgsn7L2L77wNi198Fx7uLV8alm6O9rECV/rEQQSLtgwLhw4YKfHOJNVtzfzKOOF4Ujb4aoOXk74PJ3W6BtE47ruAQK8Qfgvl9wcesaL7i45JHIHwLjLSLXeQuQRv7bt6wqheoGgsJWzEjF6aeKY9n73gef+gUX7NP0u+mWAN81zbZ4G87jRx4eTz7+iIzWNm+wM+Wn4dsQlEEgzIP3VBKvE9umTrxp647xxfFTfv75H1VZjLIYT2jgmYFGMdyYUJc9mFdffn48+9QRLUO0lFOaHnHJQ4125lFemKV+8ulnfv3+OS13HljzFiDz6Oy6UUE8dOghNYKv/MKA99WoubDBxjQNzHJNSDopj/BlBrdl0wN++YKK3vQYcLuiAab0XOgzzA1ENJQb8p1E0hGifTOndWA/jz0knie/4fL8/Zvvein1vjorb4/mjU5xytNHn4zPteSDln0y3nyDkbRelQDLY55o4t2Oe/fsHD+ScfzOt170CyNoS36kEWgGncJfdaZ8EMO3Zvjg2ZcntEo4pjQ102AGNfEVwEv+PZjIzxuw6ZSe1av+mBGmPWX2lrakDu/9YR5L3TB4qADjyQUoPvPKx662awbHjfIyaYuZ1Vx3+H0sPNB9gqeo0n7W2yDwAg4hXDfeChGELbNK2it8PODAR9ROyBjywglmtl+ePDt+pxkyH4jjcUe+08OFQQwkculjzz3/7HjtlRf9SjXe2sVz/RiSSTdXug4KYxwdoskUDl1x6HJBM3Jmhhg3b/V4+TOD+yP9S3wMPLwdCyPOp2YZhPgMyTvvfTQ++eyLvLJNRjXbAw94QsD+OxOUb73y0viW+iGPyXrVpIGT7R3KKJA2lfZKubZfAIniNmlCsXUbF312akC8Pj79+JNx4RwvoL7uhzcOPvzEOPTIU2PP/n/NF1yI3wVrORFm1fijZYW7MdglsuL+eIBjhctpC1PJx82Nkv0KGgYP/fMRfd6d95vfvT1+9vPf+I3KFBL7I7kXbQaz68C+CHDgwAGNunv93kTeQtPGfwUWiFnHr88jV0fpGGfOXtCI/8n4nZai5zRYMOK3gezyq+wYaGzQYAC++OKL8cEHH/g9mVw9TmeqvJsX45Hy7rKn3PkRlyPgUvOvAZ/ji8cOjM68UYfZLhe+Pj92avz0578dP/vF78fPtWz9xe+0rNay9I13Phlvf/C5loYnPWu4qdklm/YYLfbNWh8MFbMsjMOBgwfHiy88N777+qvjySMPDS0A/Uglj0WmDKLzBOjEKIfTH/1BeSZpxKLgJghNz7YxHn1xjHJvA5SBtgyk8L0nzRVxZv68jfu8ZsuffH7c7/Z8U8tf3nPIBUH4prcOLQGEnEgEyb8vlmg2RGd/SMvXV5T/Rw4/6BfV8iYnlqGUj/mcpRh1ZpV8pdIzsGOnx1vvfyrD+OH49e/eHb/67ZvjUxlIvszpd0TKcPmWKhkb8rJ//z5/DO7JJx6zwfFWzc2aCdaR8kPPhJI2GHDM7HhclVn+E0cO+4Ny7Gm6r6EvKxLra4Vdlhg93nvAXu6J05fGh598Od567xN/poMXWzPAsiznghivtkMA9z+SdyY5zz777HhK+vIy4Tsy6rwWzhdbpzYfTad2hb6kL5jbduq+0OVpROfu6+E+jWQnrx+jnpUuZfkp8bhQUmDp/CbxiEOHgfcPKQi0bOqATxZcv7VOhc5VajnZs2savFnq3RCe8PlL1zVbPDve1SyVb8H8v/4//3n8f//z/zV++evfqjJ5EoD74DLT6AJF0z4yY+QmZl5n9uCBfZ4l9Nt+Oh+dxzBV3hV2w8bv491A52PG+MUXx8Y7WmKfOMH3dPLpzMieOTsN8PBt2sxbpa+NY5ot/fZ3b2opeNajHrNYyjONp3TBqcW0jEhNHDDh5TrspSGuDNiShh/y6Ww8I88bkt5974PxIa+HO/ql93ovcjVVdcQr3vgMARdvWHIxGLVxQjM6FTMuLl48/eRj46//4kfjP/6v/97vpdyw/qtx7uxpdxS3D6nnfKT1+4wsG0Sd0S3Z4laV3LYTnJAui3bJA+XjMtI/csQjWVmWpSwC8ARSBuosqgMGKq6Mc/GGvbTf/v6t8c+/+I1XQ1z15n5XTS+LJ/I42qdwyjU6MoPmcVmW2k/L4PAKuie1/OY77DjaIf0HdaGHF90xPDymulnLfFadH33ymSYBb9oxS6Nt+6kU8VLOzCC5W8Dv/3zxORu5UyePexbl8nDJVNu1i76dB5xLUOWFAWdbhP3M73/n2+OZpx6XYd/kGSkG1LPPKBw++XlQYptmcczkeDcBL255+533vA3DG+gx5Hy+g3bMlWxmkbt2bB/PPfPU+Cu1Dd6NysVJ3hqUV/7Nes2/Wd8JrIvwjg043s5/e+3n/DVw/8ttKYziXm4zq+vlNi/eVUYpVIrfHh/mBsrMh817ltvvann2TcttAFyWrl+NC5o9fabpObMwvq380adf2PEyCBzfCnlXcUzj33rnQ38bg+UHG9o0Xn8F0TO2yA5EL/Y5eFcfN/hiIP/qz3/o9wdufOCON7ddmmakMijYGI4sQTaMj9VYWW7zxmlu0chr5leBdKg0OqeXOcxcxM+o+7VAGpw4uoPdkZ5Xx46dO9Xg92hmqtH6AWYMzHTJyzyzDCz81RjQo8vaDUdewuRnakiVbrN7ufzARnfEL9W4+XxrPr2aNyQR3zOyXg51ysjEKOGAhx9+eLz80nPuuM8989jYt2ub38rDZ4qZZcXgKx/oq/Oka2UgwejLDfd8B4Wy//Szo76dBGPmZawH49zkzMrimjr5dHXUEgIYLC8d1Q6ZMZFK3wQNTZVEwuWoN+hpG8zymNXv3LXL+rfRjbZAp7QKoUMuhoI37O/0BRjGBGTn6m7Sa0CXlI90LHSW5+qLqgNms1D5XmCVHW+9eu1bL43vvf7K2LbpAZXzFb8wm0vZlluykWtvyVwCeJqED3Kky4UXZnu7d++Wnhn8eu+ynXntGldh24DM2HGEuXCHeC7qsMR+/Vsva5a9V6bl2rhy6cLgRbs9uQrQD+cytuyS30iXr+bHmzZtGFtVrrxT8soVLbc/+cTf3eZl2iy3Dz385Dj06L/mcntSAIeiCQckGLx8QSehLjCAbDlrM9HXAnwsd+hcXFVkyfxf/ttPx49/+tvx45/9ZvzDT+N+XOd/EP6f/vl346e/1BLwt1yN/GQcO3HW944xkmGIbQhqZtL6kQ+W2byF+8D+vb769/TTT9gA8cLQFHZTh352wU05lKez9dWcbYPplRcqm9uS8khYLroQd0+Y0vnKy9b16zeNk6fP+wosX5Fj/8mGH9qV9Nw043V2l7oGD84zCDDdypag8Aqt9IQuX7Tjlo6trh/v7WEo3Vk7zdX89EUV+Pfu2TMee/QRv0j2wd3b/Mo13lrNEts3kCMDnZ166VZ6GFuGUxLdOQGeIMFQURbMoBj0uCWGpSBGEm14FA99PcDwVqK9e+y4B48bpXughj6zVSsRwCv9yRZLWV5wK3Phb077qvexU+PGTUXKeHovbgHoeRdYltK5dd17+fv37FB5HBmvvvzieHDfXn9zyMtylfkqRBbljIFhQOBLmny1EL0oJ5dL1dWBA/v9Yl2+W/SAypnJzFK9qZpcxHN9JxkO6MkZPSRXdcT2E5/7OPLIQ/7Ux8MP1bdq2LennpvTeUwIrSgXb2FszRYGkx905Cq9L8bIv014XmZ8+NBeb734awdKk/x6cJA0YEqjfoDjRAOQbJIuHSYEuHJ/BNz3TPKmX5jZF26k11c3/YLV2zevqJBYKiVDKyAFjVdBMfPi8w3cGsJ9XRioe88kaQipURuxy3xv+Nq4ep3XofF6qzguEOCuX+dVWUpH8tnQ3+xOvNUznZbd5YRscKC5rcA3Y9++Mf7iz78/fvC9b3sUo+Neu3Ixy20I/UcOBiOd1U8aaOb4iWaSR5lJXtQovbhwk1Qbkh4Hnx3brmFteAbKFPXZLGf7gdfuP6qGypIHYOnyVRmEloC+hJPvOSaNVyEHFzjrVvWUSGLcIcknszaW11yowiBwv2lG9znFVaej5cxy6cC8QPaLzz/R+ZzJdvpD/HxXGcOnWScZFPgD8wIkEGcVjRHIYyMiHViy9SrhnGSyNLx2/arqL1+H5Obt55552l/rYynHXteTMkpcYWa29fBDh8aDD+6zkaYtsP+LEeu2M5dFA3nJbJMLUOxzc6GBFxZzUY2ZEWXfsOKXlzC6c3EIQ8djfKyquPjETJ0nZmhjtC/SoMycefO3NI7Ub84N9omGsuaiHu348sXzMmwZJEiTwbENcNNPoGTSPjo9aJSOcOxLs6RnW4VHTbl4xHeJmMFz21FfoLPshb4Bwq3vDM5N6Ut3Z/l+6aLahcqf28y49ae3WDCo1kUskR5YSkz5YGdiQDdt1kxy63Z/lgT78cknfL5BM0nN1nPh5utnkn/a1W0ZjxUjqeWSjST7SSFeAKpW0mRAjcvL7enqNt8e+frlNmVNg03FlYx7OO/NSaFsomcqHyO7kBsl7FiC0RmYwTCD/PZrL48ffJdH/Q7J2Fz369W8fWD6sC9l0UnYOvDVbZbbR1luX/Zy26MkRPAuYA7ikVOWonu/4y+PxQFucPYFrIcAWi8PNSvYr5kQH0PbtYvPijLzyHLVJZ7iovB8UiklfYuJwQFabmopMJW1jzGSbMKTP5a2PEbpbylrUOJJF5yfn9YZXmTaWULSbRx6cuHpxIkTvn/u/HmucitfzFA147ddlIx04mhgHVs9o9A/gxXlweyEJ0hweQcjd53eGQf27RlPP/XEeOWl5/0ykMceOei3pe/bvX3s8Td5tvurjvv37fTb3LnlhAso3I6DnryjlPp1+iuQOkMHtj8YjPkY3f69u9Uv+AIlFwBnnpRDAeWjX67CbxxXb9zWquCL8fb7H4333v9YRv6SylP6K12MWQxE7qPMTf8qY4khfWCWPZ9T9lm2X7x4YZw6fcaPOdJmuVvEFz9FQRkna+FVcgXxdBTy/PLpjVt8beCLE6fVfz/x3Qx8MoO3rfuKs6wXMj17lwj8lIVXY7UCmKH90lV9N3WcBwvOnj3vq/jou3UbE51caM3KoZQkj+iGnElv1cuUBhMGltsb/XnkrdvaSNbVbdmdLVtV7/92RpKZJHsLaqRf3YqR5Ds37IUIVsqiwBUnR8ZPn+Vm03zjhoq8l5FMhSX3NAhmCt/kPNsRXS/HZoiMoGIcaNzXmIleveIr2C+pE/2n/+3fjycff9h7NxfPnbHBx/CmvFpey8q+Cq/en4yk9yTzIbBNPQMx9VoAO7suFzoGe4tpuFqSe/m0CqTJVc6rV9mr4cr4prFbS8dHHnnEI6PfCi6xnccG61H64FbiYBAWIwm2jY+xZsyVee415fsszHbef/9D9QdGdJZL83I6YiPPrD5gNFMvIBiceGyOW2l4+oX7EXkckz1j7irIsl0tjcECnSdBKSfAOpaezP6YJfnDbfv3ydDtFP62B/Gnn3h8vPbqK+Pbr3J70b6xd+eWsW3z+rFFhozPUnBL1Q7NxHfv3GqD+qAGS2aEtElmc2fPXZBxqO9TWwUyWLroR379pIhoWIIe1tJ2i+Rbd4GLQ4cpD0akHpl9XuGJk+Nnxy9+88b4/ZvvjU8+O+qbsZnBsq/NgEl7YBDACGFsuH2KdK1TQRWLAA/7hkH45v5z58dxGTUMBH2PMuK7RPSXGJ1A1184qf8a7IRbr8kAF6xuaxHMBOd3b74rfd9xH+bTtBKs/NdLc0XPJKGX0+wFo6DbgGXjt0dQ+oofn1cZ6kOnZcT4dC08vNiCG9ijr/Lupb+SRCa7hhEh3V0jCgjhvGAkv5LeG73dxpNSNpL+ENi5mknGSD70b2ckVdCS5Q+B2UiyZMVIoijHnF3QzlD8uXDzh43kFCx+eezsX4TvBU6vyGY/huiWPwDE/iP7WHx6lQ/4//D739ES7FG/O/H65fOqDD7JCQ+jYwkl7fIZ5fgyklp+YjwwIixLs9yeGL8W0vCZjVwxD/t1+9VRaRDnVJE0HvwN0WDWgq0CllAHHzwgfg0WqpB+67XnK10IUNMDBMHZZz8/YuJiHAmk3MLLmYUOr89nWc8s6PDhw/7w0/59+3w7CG+2YcBhJscAw4Uwypp9WPLgvToSkay8qkszBHUsjMCpM2c0c8hHrnbJyG1Xx3C6cla7dAcxGawKE0e744oweeQiyD7p9NiRR8dTTz4u3XaPdXduaFDRMvzKBa8QmClyM/Vt3/+aG7n9Jb+vbquzbzQ/+eTpLIwgRjd1WlD5aGDlwmSHD4dxo3+exBGZ8taqw4SfstukgY57HN9696Pxjz/7lR/bZP90+85dWX7rx4fYGPwfeujQ+LMffn88/vijHgBol+z/cSU4AyPLdgxSq0SNxo9RZInMFxl5XJBHE7lws1Mzbi4UOSOU36Qndc6RqOjL7Tm+QLdx63j/o0/Hb954Z7z5znvSX0bG+6G5pQ4DeVX1vU+z6dde+9Z49pmnfAM6+rLsZwuEeza5o4A6tGF0QtHX6ctDXngIhC0X8sg9mdwVwhNn23xL3nKv1gIkBxnIY+BSHLrTYmXhudfV902z3Nbk4lMtty9o4PgfZCQ1e+NmcoykcLdkYNhkBVLQKfBOkCPWHyN5SkbyXYykRg2eHf2m5TYZ9jJDlcByNBvrvP2YZV46rWld6EsZ7afANNsRH/FsMvNpgueffVKzjBfGt156TrOM/WOj8sJ+CF/sgyGyMlpX/RmH3wZHfhtJjfo2kt6T5H2OmklOHQrq4i03AbIUza1JGDs22LmB/fEjh13Rn39+VI2lXtllXcwEm8NoclGNiEaFgdrD2200o2LQsf5Qm24BQdoTmXLOC5FAPBwZ28OdPLthipbBhe2Jhw8fGocPPegvBz7EVwTleOv7vj071Zm3aZbG7J53INZ+kpzvJdTAk22RzPwB7yFq1sPgtVOdd5uv9u5wPdMpXINq8K1yAFwC1AezSiIxLP06su3MwNRZuBH5JhcBqoP5diKRk3X4stWBocjWAldtCTPjZc+RJSNtlBQaKmkadfgeuOPy2LlTeZeho31iwNjTJh3aPnX1wPpN45rWrGw3vfXuh76NJzeA575M8sVVeL5fxOdrX37x2fHyC8+OA3t3aNa7eezYpk6/RYZrA3t4Slu80E8X4YSLaqljz8yVJ8u8ft1bHRgMypjBiC+DepsEDjHalQSGzE0azFhinzh9brzxNvc3fuI7RvpCGOVN3+TqNp8Dfvqpx8d3vvXyOLh/l2fo27duHNvV55jt+84H1WNflGLgzRV5QaXrOz6YfQkYZFk1cVGKZ9V5Cs7twWWa2jBllC4InqMml55JbllrJDX43ZTdsZF85N96Jsmg3nuSvgUoNwG7c7pA6BRSVhkC5w7PcltTdj6Xmgs3X2ckoc8eB4+vcZ8gd++zV8SSI7dtYDRTwVQWMrrwqpiMswwu+avCMUa8JOIv/uy7/kzt3l0anWTgz505hSV1mhKSEm4xAMFkZsqPn0CYjOQJ79nRCZjVNdydKxxlo1mfOhKPxLE/8pqWhP/hf/pLz2gxGG+9/bYIM4ucZ5PhtnERP53Yg4RmQI8+fHjs9luBbkrlKE06PqO3vRg8xREGlI90LqEWxphjURhHR6ScyRcd4cnHj2hgedDLS+5le+yRh+QO+8wzyeB4BI565bncy+pU5DEvuIh0yhA/AwGzJ5bcX375pdPgQg7fwuYWGwYttG6lPFMoQDeMuU26/NQzsyxmhMxePGuUjDu8rZ28QSqg86dtaiZPWAfO7rziZebCEzUqlHFMOjEDQneD2kWKCXlKXzQY2XXqGw9r5uRZtZZ2t5iBqkMblAADBp311p1148Sp835085NPj9oYM6vje+poQTvlFh5m5N/73nfGD7777XFg97axc8sD/sgbAzzbAhgMDCD0Z86etQ7o2xebUqsc09bYm8OYnTh5SrrwCjitBqQvt/BlD9Wkpm1H++PiBiskPiny9rsf+AUx3C9KnWHQgHzr5+Z45ZWXvLXx4nOPj43rbmrQXq92cjDbGFolYejQAUN9VXrTdN33/QOiNWkzc2cA43FRbv/bIrpDGpBtaPVzvw+56Sej2e1YxpgFN09V2UjWniS3ALEnmZnkDhnJJ/4tjOQlf4kvRlLNjcf2buTCTd8nKS2dXxRHdycrHD9GtSy3Px1ntNzmUUDe9OGMrQEKAoPArQFeiu7b63fx8dokHGH2LNZr5KHw6cwxKEpJ4lomejADZSTfu2fHeP21l8bhg3s8e7x6SaOKDD+GZlIBA4m+7kicK6LjBZ4RceFmMpJf5sINV7fV8RsWLBNQnTi+o4PsV15+cXzv9ZfH808f8V4Z+2HI4pFF3vJDg1yWT3zSi2WO8sz+JN9R5nFKlqt5CS0zsILixUB2Y7obEsceFOD0Fmk6URkoDA7L0+vcRMyNz1qmMlPzs8BaujJw8gZpbq85ePBB3xdJkgx0LCHpyLmgNiVkXAwXWyK3PeDtP6AOoTAzJoxfwCZ+BgcWOhqQRMR8tpOslCEusxdTKCoOupaWmSbLyJOnTns2c0PTKV/N9yAaOstTmMfoVADqxA/64g1LfC+FlRfL04ElOEvTT48e99vnua+Xr0Ju04DAnl8DV9e5GPfqqy+NFzWDPLh357h07qS/5sigwURko9oIs11u8dm7d69vx6KvoCf9AL1IzxkrSN7TZhlYmWGz/7pxQxmkGnzgYCCiDrhpnXaIrhhJnrjasInbd/JYLzNlvmfPnQkPP/Lw+M63X3O/un7pbJzywtc3qQeWyw8eOGB9uaeU5NiDZxWVvuSSKojf/U914HdNMshoRsoKAcPqOwiqTuPMYkB/8kNr8UySW9a2ZU/SRpLHKjGSW755JplWch/gBlV+oLKTH5qCmConHW/qmCFe4f86gIdRksp4SLOWb73y/Piz77+q2d/z43uvPT9+8O0Xxo++++p4/dXnx9OPPzI2q7JpQFNanZgA3TCezLLYGObVTFevMuPKN31vqGFBDqfZZ9bZ7/OikxKGp/LXyUKxoFr4ADGojBgh6QwaZ7RU3aM8vTSefOxhGxiuyrJkffnFZ3wVVvMUDz5eTpYuyKeouXDDHg9XL/kuztEvT491GzZ7FuS6qIYy6SfH2WVEWFAii8bUjcmx8M2LAaYz0nCpH4wfqwG/tLaWQlyNZH+Sj/6/8OzjfrUbT9XwbXAMHh15LTCD3KyORN18duy493hvKC2eknJeDOQJFz9pUS6599UEyU/pDCoObJznniaCDL5mrParIF9EZObJ0x987pQtBvLoOkBOi6uTl7zKE+XBzNDlr3YbAiYGGMEH/FjsF8e+9BL7qtJgGblJBod0GcRpixhm9vVefO7psd8v+7iu8r4y+JwDb9/BOCgHWsZu9hV5vmn+mvoGX8qkLa1fx10GvCCEFVYrGmXpA1s0qWAF8uWJk+PY8ZO+us7eMOXisqjy8IMf0o+nZD774vg4eeacBw7Kog0a5Yex2bF9i/rgo744xjfyeRbd+moWSLlhtDarfvfs0gpBK40Xn3lyvPTck/If8MUzBhja1awr9Sd9VRYs65kl8zKSz784Oa5cVxtbR/lye5S1KDfDIhv2pH3IKuOMWzl9Ldy3kQRSRALSdlJyQq7sC/oUv626lL37WWNCRb8GiOeCBhXLBvz//Dd/Mf4f/8f/Mv7jv//L8b/9z38x/tN/+Ovxv//Hvx3/27//q/FnP3jd+x9swrN0YOIxzxJy9Yx9Ij7B+umnn46f/ORnMiqf+H6vNGB1fjHRgVsvgLw5LBW7AyHUFCXbjvAiGwsRhg5yZnRktsS9WnwjmQb+/ddf9ZcJz51WI7h0wS9k5cH+xx49NLZv01JUnYQthpVEBCw9aLDk94OPP5U7qtFeqWjGQ7l1I+ofUCjrjZ98dZ11fuKXqzKxg9603fnjwFG/dMoYwBt+MQn5u3L5vGbrt8fLLzylWcbLfkSO/SaWZ9BanoWxp5dvjl/XjO302Qvjk8+/sCFhRtOa05ExEE7Y+s06tt7L9gSeb6igu/Mz8WaOaSQY6cHSlbxB4w4r4TyBxS1B7L9jBL01IfaUQWRYRMnnOz7cpSCC2YnOz11L8+Na6rLi4E093ADOCgEdgcwEr47tmlk+pCUq2xZ8pfLCOQ18kvOAy0FlLfnM0LjXlFXQ1k3rZHCeGD/63mvjO1ohseXCXQ4Mws7dZNCkifLIrJG0uMXm6JcnxmVNFtgisv3XAWpvTQhoc7yajXs3eS8kfQUjHsGRSblj/LgzZKsM3h2tMryKURmTHvTkEX0unD2tjF73bVg8BfTdb704jhw+qLLPhIi6q6QNtFny3u2CF5mcu6BZvQYithVirNNm0SWAjNghx1rHbh9x/sHjMzz3hvs2kmszEQUzojOryWjryBnkN41bdUWUIGR8E7iBrOMj+7fGhnU3x8Z1mnrLrb9zbXx149LYtW3j4qH7Xb4vDCPkQioX+MrTdAqXxxt5RdPRo8c8Im3dxhW62cC7UKdfCjiFipQFQL8oj4YpySUISaVyBZDlGZ8pePnF59WwXx6bNnBxQctWNbAb168pn1/ZaPIUxiOHD9UsjZG2YdaE241YTpw9d3F8pHy9+8FHalC3lCeuEJfediZflMdqXsh/D2LQN4Opu1x8BAgvcFMw9Uv5sX1Bh7kmQ7lp/W0tQ3eOJ598TLOO7eqkGPxZp3gSZhZ2U23ojGaUV1RWU13WTxWWs2jpzD0wi9s40xK2sFLMYUVLbuoxtIkXCOcZKTgcKSiOPujZvVz4ElcSVoB4jCifAcbUIKvTwrjckqE4rpnbWV4wKyPimRCCCzAkzCTZVjp08IC/fvnAVzx1ohmsypIXaSATcK4o4zuKv3F5XLl4ZuzYulH94CHfE8p7BzxwSabLwcBZ2ijMthPd9NTpczI6V3yfox9trDaAUWdQOCVjznd2LvFiGC1X8yKKAE/JoPMe6Ut6rHq4y4XnrNOX0pZcXuhwR/VYbeLmtUt+0urg/p3j9W+95P10luNsvU2vQiugHjCSjD1c6D155rxf5MEeLum4jJduJc9uKS444+XwG7ruvwHm2rlvSGKzghnRjVf6wvhnKIXcSMGFJFAk9wIKCEAuHYvlclwe3ueWhgfKoPDA/WE1LjcqVchUGAXoyOY1yzfeKfnRp0d9GxKjUl7GwBI1xQLrlC90dsFX3gx17jQW5R3vAlEAJZ2ICxHs5z711GPjxReeGU889ohWG+zxaeRXOlmySifRcIsSz5JzpViRGqH7FquSL3nMGGlENPTjx0+NN99+d1y4mJvaefoIo1LEdS4gWHkMYBh0tGjX0j0g+MQ1DSYhvCAsT466o964e4EyZF/54cMPed9UMZXunH6fWV5R1Bd51+OVqzYczoOcKUIWReVIp9sJGlmqD3HETLG0UTmnNW2+Fp/xchNTON0mSCOkEW7W4r8LiM+EIHkSl/iZZZ4+c0az6ysmWeodWehw23vtfEudenUMcmzA4wxWJsaH8uFWGUwze4zPP/v04AkiLnRw8SoXj4oPfrm8lX/dOC+Dzb29bJ1k1odOuQ2HrQ6+WcN9ltTh5i28UIVbm5IvLi7x3PvuPbvG3n17/GQMt2ExyEfOMm8FwsHDrJEr7bSJJ7VKfOSRhzRp2OG+MV3saj6JYX+VtsTKklvj+pa5zCTJ0lw+7RoUUjg0XlGUXBehj18P928knWJbZJayldCkF0mnArtyG6zgHBQsC/PrIUkij/0WOSrffi4aqYK/uuVZ11OaqexSYVORzL4QHfnRAz+jOqM9U3fensINwywNuMoKQ+tr/eWWBQsgruNMy3+OvjeIB7251YXPpXL7zL/767+0geTuAJ5g4tVV3bh8H5yW3bzi/2ka0cMPyXhoFsrLCZQgOpArgDM8GEruvfv9G2+PzzRD5r44thM2ePRPncAbnVFYfpcprg3E3QCu08Dv2ZLoPUsRr2NRSOfwlxSdXN7qfDydA+12dYpevgoRXdZAX/S6JEN/SUtCz3KYdZE+uorHZlnhOBGjgrlyFd5bJ9DJYQtjDznEtQ9oDL/ZsAE5+7iK+lro1Yh1LDnozn4jj9By6wzLcbYQkJW8cE5Z0fH55DEXI2nrRHi2nMyJNjLNY0daKQDaBhfQ2NLg5bgPHXxQk/lb3jOcOaDM1gbGn7LlYgYvHqbtsRUCFTrztBE3/F+5etX9jRlm64EsZvjguROAW4nYmlDrkN5c6Y9OTs1lAY/CFsD2DFettSy/rZWh2gIXvA4w+73DxUYmI6uADHiYZV6SgWRPvGUBOVYeHUj5d336Jz9tDkguA+G9N9ynkXS1TIqQe5QwgKtSNKbQKSRcSKJw8xXRHwRz+WwHf3Vu3pDMOwj5LsoTjz06nn36SY+U7IEsocuUxrF563Z/qOh9zSTZm+QWim3btrtxrOrVZ6DxOEph1ohj+O4NxDBDZAQ8dPDgeOH5ZzXzfcKb3OwrcVWYCuxywfhzVXDThnVeyvDORd8jxuCgxnl3WtzPtkWNgm+4cBGH15gdk+HnxmbNKPktG5X88TVGyVfalA/bEhgrLwcLv3Qwma+ZqxQSXBzdgbkKqnjxYehx7KXCY1lrwAZRfL4YxM3rym9m+NkvhAW+GGqVh/xcLedikesvYiqPySdZtz6ylvmlrFeMIjRy/bEoVE7H5F7c7J9+E8TI8fRXZoAG4bgPkIs53L7GU16kxwWbWV70IOiVjgZR7iX0rUzKX5NxMk+FUTt5iJ92wZJ2s9LftX372M2Hu6Cz7lYlMuS85yievASEcmRLIHvYyFSUH2Pk4ktfrAoWoI3kjDDKnrDf22AjBN3s0M1nTvbRFvFIdyY5yufWbZs1udnuq9fohs6BpSyB4tgv7guEE1gfDsiOaz7qkPLturb9+iPh/meSKFK+rwVnIA06wSjcOFdER/6xYBGkXTLqx3KDK6zc2MoMjZtvd2zbqMKkgtWJ4HWhyYmRAuS7IFTQl18eH+++/9E4euz02LCJfcnMYkir85gCn503pPFaHx/kvhno9L3hzn1ubA0cPLAHaRrJWX4hk/0VGhttnQsgGMQ7vjfu5Ree9a0VGE2W3J7FtT6VPrMTZjLcf8ZWwocfHx032N5RntwBTB1nIBP6K2lLwJARZyO1fpNaP1+5Y3btrqa/UnKHqZTFz89KG81hhlDmaAdTOGGe/QuwRKfHzDuzVRo5EMqSyt4WdSvn5NfJOD6gwQDj49lcSZ8OnPlbY4vpNtjtsDuXzbHOoLlYcOUa9+RqJmXDBmXoZ0ibYnnM3QZZyjKbCp78MOhxxTzPMWNYUh8zhBYDy5kB4JaMc/K+oLS8DqN7zpNORMnAcm8ge3y+XanjGuAvEaTjvVj5qXf2JYlELkbX99wqYHKQC32cN/w60y4YzEgL8SnXkEMdf+sLJB+k7/tnVbZ8Yneb9xnBI2sGs5Ge6hZ/7x9HHvq2TrgqIxzxpGv6uAj74+CPNpIWvCI5CqKIRySjFkoYsuwAZpw546nM/DFgdhz0clMhuPgjg87E/uTWrZvGi88/7RcZcFvCFb7FocZmupBOQINkf5LvbHBV+PxFXp+vhs4Nz6ad9QbQQ8lUPgtn/CLfVikJrepJWLMdVTIXAvjkBd8J4XE6aGiGkwh4SgZXO4nlKZxnnzziG+Gva4bJrRXuACGLHvrxjDVf0vPbzz/6zO/bvKbZGLNkaGiUhpIPzHm4U7PH9YNX6vPYGcaHTXw6dZYroi49A5Uy/BUCZhKN4kqzN/JZanLRgpvo5/KZwTIsi2V6rtBPm/PGTlTi/cpGiQGArwNevnZT8nmr9TbvYd3mYofStiFw/pANv9KtH6KQbWNksVne8r5EOiIXw3jBLk9q+OuESiuFbkEGeNEBo8S3oXmyhH25eQbHAFnbAMo/SaWOSwBQ5ZCZMQY2hppz6ib65xB+ynN+YENn/IpLHZMIlLOeXYbId1g8LheHWl5kYVQsBiEK261A0nI8BqgwqEc6DWbzAf3jWienA70SoilvUNjfNofCtCYzgAvM+trBbwSHJQ9xRVNHNRefW7/EfDP80Uby3qCEnJGcl7AM3lW2BX+Mgg1TQTspKq8Lu4AoBdkM3qilHO+343YE7iHjsSb2TmqgKYCXzes86cH3oD/+jHvXNPPS1GuzDKcFVhppDiRSQsJuFJilLt10AjMeIMaNmUYqI/kVz7lXh4jIMpRmE51omUlyRXDr5vXjsYcf9Hd+eLaYxt0dLqYDD52VTz1s9Qzo+Knz/u4MHd2zBHUAyhF9XY7iIUvIooOxMY8c3szzq1//bvz2jXfG50e/pA/49inuj5tuAhfSjS7JTjKJ84+wf04yRkv1wIUL9ko966AsUH0N0MlBUw84LuRkxpjOTaRlqq4xklwBf++Dj8cbb703Pv70M8vmRavoCx35tDGwfgHwpJGzDiqIzJJ7RrhZA9R1b1kw4PDM+gZ/7RGuWQ4ySQ8ejCSPQeb5+axiIO10Scf1b8ZyBsdIR7aO8mQZ90P2a8e6XBuWociMn/KJASSvyrXKcZW3CAWTNDPHeTZWLm0KdHS7F9io6ned+yG5OKe0nD/h7w2pg6WD3gMPumu27RfkTHKKbQGKsrrEt57GgdQZmbYPrssC8FUWEx6mBcnXwR9tJK0QShQgmzTopHRiEgfm4kwBRAkyG9cZCc0s748B+FMAWoJh9KoxWLblsuzmJtuvxu4d28fTjx/x5nW+T0NjRR+KdAaWp+zjXbp8Tcbg2HjjzbfHpStXfdc9DaY3xBuUqzrH73TJVxB3QZJcRFhejIBH+xJtiqJtR1RvlJNX9m24LeTpJ5/wY29adbsjEueiLWD24YsC4r106cp45533fY+bbKYMKJ283yWoMqTBVOIsJbdu3zWuqo1+8vmx8ff/8JPx43/6mZ8MuXT11nhg07axadsuvwmIp06sPAnLLfUGoo7CyJce8Hy1bqNmejdsdHj3oJqN6LpdLEAyYkCHZoS8nHWz9/lYrnovNgpbX17btW79Zg0Cl8avfvv78ZOf8W3qd8bZC1eVXr7o6G0DhIVtFVC/dEANSNhe4OUK8PHylQ8//GSc54NlUjh7dqv6kudbmhkTx4s10Bnj3UaSeBt9Gdf1PGvtZQR8mO4ZiKe8eATvosqHd6d664dtBDOQrjj4iy5l3Y5TyjszQ55aUn/QbB2ytCY5TuVPv0l7qbEzOpk/csF5THD4bsgsf536Dx/30urmlvK5npdT9IXCJZ8FWc+0/5QNtxyxUuE9sNeu84IMbndSe0SpuyC6uV+gGCLJoHCuF/1d3mon7l/yV6oKZ1IBPmWn6I5cwpqs/tFG8uvAelHIa0YOdLCyVehon18AXFfIvcAViPAFQN85yEiVeI6tAxXOdzAuXTjntxvzclW+U71RBe5X1ld6zdPAW5KpHL5ZwicAeJnoth07tRTnFopUzPSzjMixf00egquAYKUiFn5IIht0RYjXeHuTFnqyec9H5HkxB3uuzz3z5Ni5Y6twFx23BCevwxbNJpk9Hvvy+Pjwo0/9kSg6P1e7oQFoxDhexsGXEG/dXucvWGJouMH41JkL4813Phj/13//yfj5b97y6+14JI3ndv2BfrYlVLa+Kiq3rLL1qg8u/myX4d2994DvJHjz7ff8ydOrWsbz+VzXI3kUvR0C9GewI8x9pDzDzWY+9c+9gtmLvKO8bBobN2+T0T3u9xp+/sUJv8j548+Ojf/z7/7R38r+8uQ5zY7zrk1u0PYtI0pjSk+OA/2NZR7vhNy+QwPBxq3jvQ8/83PK3PiN4SQudQJTAH1p48z8uODCa974eD9X7vtzuDpEXxlHvlPEDBcchtVtBVD6+DD8DNonTp4en3z6ue+nJG22SnIBjT+HtI049aPq+Ny2wxt/uBhz/sIFf4tIJkWGqPfZnWNDp90XvDgzk2MwIo4yYW81jwuHPvUzy+DiE23s3PnzLic+lfIVZeW6LbrSUZ6UOSI4K3nOLhelwRV2vqjIC7XVLZRfBuIZ3A+ET1nmQ21uczgInE7Kxu3RSAftnFr7OYcrPK2b6VbhPozkLMVCpbjLgvSVWByxsz9hYCIsF+wfA7PchjXMFkdGNVrcuuG9vl0a1Y88fHg89/RTvj2B71lQWdCEv2XQeLf45uV+XIyZF0bDI+Iyb4sf0PjKmR0wxRfC5240AqfOgfKDq+MWNACyARqGb3MS5+6d2331/qEH9w9NTNyoGTmnRknqYqMR0Zi4mnpUS2Z/KZIvpamzuYGZXIQi5rVd2NrPj50c78o4fPLZl2q9m8ftsUEd9aq/CvhLvoj4xrtazh71bSHcDE86fmxM8jBAuTIrvzoPMwTE83KLY9y7KWP7zrsf+YWy3H7Fs79Zrt0NzDJYavLs91bNJDFsJIYxAHgYgHq7dPm6v2PENgmP1vGuQ2a9fBT/d29+oFnw+95vZvuAiyYMSnQgDCKGgTd0oy9bAeCZbfBm+U8//9LvSySvvCsRY4DxSXX4YHD9i4eZL28s4pVmLLlZzXj1UrS0O2774s1E3OCPYeDqrIGsxefZKO9kvCgdeMjhgw/yAl5u4GbQw2Cx9cCWSlYZaT+ejSkuL8h4YBznccMv80Jjyph2HN0LxBcjfce3GnFzP1sTfuGz9KKdEYeR3LFzh9tHjJSEWFCcjZHS5sIpz7e/9+HHfvkF91f6dXBqD7TB1pNzyj9P/bClQQFwmxc6s/eLUWf2DO0Sui9QF7xbkmfV0x6ErzLsPDo9u4SJhL+3XIrM5QBM4XvAv9xItiacSxHOnuZLYTadKdxkaHYOtkKtqNzagmjo+K+DpQwcoznL/uiQ5TidgNd5vfLy82Pfnu2KV6eWfulmSrfEowMzIhoTtzt8+MnnckdtIFhyZWkpQB/S6/wYFb9HM+dlmZ8eq74GFNnlt6TDb6NgefPSnLTYr+LWGW4deuKxw1p27/CN8365QgSaB0A2BoxH37gl6C0ZqeOnzqojaJapBsZI7S0F8fEqrCsyIrzAgJeOMKLzXsPdfPFQHY/O9vs33hr/+b/+3fhvWob/+vdve7/zKo8/btDycpM60tZdY/M20WtJvn7LDuE1O7/B0v3L8Q//+LPxTz/9+Xj/w4/cYT2jU+cBqigF0Z0jF2S2buYluvtsxBgIGsgXs1heDIFRx5jx/SNeXsCMkVkM9/69+96H4x9+/BPp+0+eGX9x/PS4gr7rpe/m7WPjFs345DZKVz7wf2fdRt8S9s57H48f/+Tn4xe/+q2/5seeNYYp9dtgLavTyQBqeb1/z67xqO9lzZVs8AD5ozNjLFgJ9JvTeWwvsbNc15cMBwbsy+Mnx89+/muX3w3N8Lfv2ju27dwjfbd5Ns9MmqUtWyiEt+3YrTLYbVq+ufPRx6rHc+edLtsVUzrKBz7uBmEw4o1OfjHKjnzPPjfusxeeNz7x5nvfA0m+yrAC3QcwevQfnqvmIQb2hnl5zbYde9QeVL6a7aOjFLa+9CnuItmiuO07945bX633c+E8UsvbifIdJ9pmt4zoTZi2v1UDDf2a25u4mR3bAw3xVFEvwzn3kj19dnYzLP33hvt/C1B/44YR2Dv3/fkGXqjJSBQlaViTgz36q6A2jNPnL/u7u2cvzK9KI1PLxkiGWMrwuvkjjxzyg/E7t2/2bTTJYGideUKL9GjAjAOMhGfOnB7nz5/zvomK2jMRz+5KBKYCYET2W5/Ft3//AV8U2LaFW4lUGfr59oNFIXupyUipJQbLI771cf4SH1riBaU8ZwttKg/glh5e3XXkyMN+1JAX5fZ9YlO2J88MTlKOtDHmjKTcNsEs8dSZsxq587ilkzNEBqJocH4BhRo/sxiW6fv27JbB5WbczKKPaRRn1vXzX/1+XLxy3bPoDByRw0wrDXf47USnNeJ/eeK0Hd+dPnrshM9faPbCJ2bz5crP/NVKLhwx02MWy8uISY8lWpd5QOkoLa7Y95vi+eTC97/zrbF5o+qSNwypnNCBmQQzlQ8++nz86ndv2fgxaYvhZ2aazpF92XVexvGwwHEer9MgcUw6H5PxY3Zr3eV4Rjxf2vxYnfUzG0eMMLPHDSrXtKlSFWAWpzR4GoibtR999PB46YVnfFGt34jkwjJTcsrskfYAmr1O7h7oPU4MDb8GBkl4eHyVmex5vh+jQYz9SvZypZpn4wxyvMWctxNRb5Q776fk21EXL1/z26n6tWlT4yiduF8Xo83TOY9Lf4w371KV1TE9xgedt2zdrtnsRX8ymNebobPL1hCd0R/5XCDlpnRmhlz0usrdBkygnLRkasKB3tyXyZ0TX5486xUOqwxmoKzm3O5cj+FB3bS7y55JP3z4oMr6ubFPE4Rrly/6Qo/7v8tbfxjQX0GXt6ZFtF/uYmHLhJvQj33xxbikMmVbZ5MGyUOPPDkOP/r02LOv3gJUZQTcn5Fcp6Xf1UsykstXpakw1Dh4M7nf6C1Kz4Yqky50tAYjP52EV6StGElu5VDjWwI8GEmWMo9iJB85qGX0lhhJxDkfyYyTKw9RzCgfUOEwUl68eN6b73y0SOO+lyYmysGA8WFPhyuvdBAMETM1HtxnqQtt8lH0OCpTeVGGtKzDSJ5QWlc9YtKQ0CQqxsdIfEMd6DE1SiqbJyP6jdoNnQ1DZaqPMZJ5C8s61QPGnI7OW1FMYX2gjpIeTdWomWnyLDf85IeX4zJTYFZHo/hQozgN9Y23P1Cr2Oz9Qg9YlqOZgvJCneHniZ6Ll666o59R56Fxn/AnGM6W0Txlw3NUszzOxF0QffYQ2cJIB5vaQx0Z1FgSU7c8EPDC88/4LTg8JMAr2cgT9UN+MAAY319rhnjlWpbmXmoiUwK9VyY6yhwjw3O+vO6LZ5S5Un3y9LnorPbAXukXGEzN3DCcZzQL4gKCn1RSh7VBl8xl+8XLgEe75ekh3gP69JOPquPuVL+4oHq+Ljq1ZQyZuZJPJhTMTPmYGu9nZMaLXMrXUMQxqHkL/CUZP9ouV/C5DYkXfrCFgYHmgiOPn5In8vG+DDy3fJ1SWJWvgTOvM2tAd1Ylvn1MYZ7mQvf9e3ZqBjx82xJKYLCZZbIa4wNaLkOldcrvoWRioLa9kOuX5lp2Xv3HRSfeMsQ+PwM5gzSPPfIGJNoORpcX+PLKOO4q+Vz9BmPKCzzSb6pVVFnnrVNXNXHZ4+sMT2iSsVm25/KFc2hqWswhOsDjsBgxkBzJB2XBHRoMPMeOfemLY8ya//WNpDqmZ5LXLvmiAe89ZF+MV3ndEO7WTUZRGkgnASRBK02OBTTgM2tmktzqkULpZiWQn9t6bCQ1i+QTlrt2bPGTKDMViVXhFH/LSCXn8S4a3CdqQLfvcMuBDAA8pgIymqMXozUzFZ4r5S3bNmRsI4gqjkYUSJo1k/zsqGdSF+rN5D3amsTDBh0rTwfxtmleSntIM0kMJ2XWyxigdbPDb5eKx5iwzOCFqdt27JKROuN9NGbKzCYxECsgpf0iBXWaC6KhU/MED3tRdFhkfvrpZ2qsR327D42EvTPKKBok3+hA+TDA4DAezG6YNdCJWdqxLD+rM1evmVEwg2BWyoWH+XaWlkh+0E04+WkDfuZXbeyH33t9vCgjuVN1fV0zSw9SImaWIQZ/OIwZ3wcffoJiKmveBM9VbEmSYWog39ZXOtCxGSyYCfOmcet8/oIdb8MhL6FnxsESMR2/dQ3QTh7wDdZ8kZHBiher/MWf/UDLUg2mapce8KjLKa8RQxti4rCTD7Yp+rqMx/ETx12X+SBY6jjpkU50pwx53yJ7didPnNAyXO7L4+rox71y+fSzL7yPzhNWX8rIY0j9WQwGFOnaOrTufG/m7Nkz/qwCg9C3X31Jyt3UzEqGVcQeYwUYU+g9kEoW70o49uUx42mpGHbqs8GTDOHgwQif0Qrn9Okz4wR6nzop/dH7pO8i4UXDH2vlxTYJAwZtlrz6mf1JHuWRssbISqPx1BNHxuuvveIX+TJ48i5Ta8ABXUp52wDp6a0//diDpowZSHkL2BdfHPNMkjz9ISOZnns/QE5QRGd7+SnQe2e+T4k408QBLtQqWKNM5GCLNMwqrvqBpX8KdRpypq80MEC8jJb3AT75+GN+UQRLDK50U4ihaxk6SwQjDrKOHj3qxscM4wF1MmYVvjWllRQkSR3E6qwJV9ImQKOZAyAUPVvnLp/ErHEV7/0vwtLbV38lgKUzn0Y9fHDfeIArvzz3OhnbWRMMHlsJzNSOqZPxhbuLV2542UYZsZf2rZdf8Buld8sw8UJlXqQ6vX1n4egEdpLJIMT+4qpjq0FOnYvlMbRq68VfChnK4HiWcMXp8ezun/3o++OZp5/QimGzP8bmpauAvDPyM6vgivezovnB914bhw7s1krm1rh4Id+iSSmJXmmRHobJA6Ac+tCRW8/WdaNmueiLYUKnuyrRkPzzHDOPu3LD+PPPPTVe//arY89OLfW1ImDGm2ePBTqQflwGbz9Fpbo7qBnRi889OZ587PDYvnWTOuxF604dYxjg4VIrOrPHiZFikGG2xUyeWTzvdjxxWobonIw8qx9ZXhtW5Ye6lrZoMYNkX758adxW+ns14+XTulwAfEDt5Y4M+x21A4y72xuWWUpwywwD145tW8aRhx8cr7z4rFdXDFqs8Lp9LIHySxlzoYvZ8E1/0oTZrfU9q0FUhpFJCw0DA0besvIMpLz4gBhL9mtuP88//6y/h79n1zZv67E14E88qIzyQTqKvH7KQ0lyKaQ+grczpmm+Ge7fSFYyPqMQfxIv4+iYxXlWGrUFDgY3FY1p5lnaBEGXI93w3QVNI0AGjr1EZrx8D4Tl7TNPPTl272I/j6ch2F+docR7NkZFMyP65LPMsDQH8BJ6kcSicVAR9VvTYKzFkkmA11Q+JD8reSKPKFLnpXO0nC9UyVjyjO+Tjz86Hn/kkBqyRkDhMDolvM7MDmQk1NmYtfFqrLff+8ivm7rG1W7J5SmeV1583jO4xzRjZynDDAdjnJcYqPO4bmc9yCudgfLicVD2BLlo4rPCXIAgniJh0IzmM2DMMXg2fEqDmS1vg+GDV49Inw2aUV65eE40tV+rXoBBh4eXZPDSjx99//XxjJa5vJOT+kTOLWbmt2+5fFpXkkaEZxTSl4tZ0VP6yk+YwREjanIPNLPOyEI2M1Fu8uaCxpFHD4+XX3xuvCBjw5aTX3OHQRctbOFMmyBtjsi5oU6/U0bnqcceHi8++4RXKlBHd8qaW5xKgPTnnkuMOrpyXyhbLNyPyNV8njDioQGZx7FeA7nzpXz4yrcoyX/rTjnjKOdnZByff/Ypf3qDj5/dvsmdE8kzRaajNUYPLubw3oqD+3ePV/kWlGagXMGnXdBGOPekCCCfzAgpV8qUVRbbV+h75fpNP/3Fvioze1YyvlDDwAQ48dzPyFNZlDdtaP/+feOll14Yj2kFxneE+pWCvSJUktbZE4lSBD2WhrfbLjTO3h8J933h5uZVLacuXciepHVU49Fyuy/cUEWMgvk5D6VXzfQ04p05x3L7c+/NcNWWxutRlJ8bFqMJy5LsST7y8EGNZgc1i1heuCHzke+ywmNcIXWm87BxS2WxL8ZnKk9qCcDSkSGKNEMcQAbsLI9uMytQA3j44cOqUI3QimSjHhw6euahyuZC1Ceffe43ac/LbW5TaYhyNCi2Cnj92aMy2ly4wQhw4/GsQYDcJR8pw4apUXjUH74CTSe4eIm3rWsGqIboj0mtMjlIg+OCDxvwPLrIa/D59gidhHwcOiRjy2N1mm2zHPFNwpp98CErysmGluQn2Xj+GLc46Yy+1Cuv0Kczc7XyRz/83vi2llJ8I4e2dP3qReeRhu46WiRMOfJsMp/x4Ar4zh28+CMvaM6sDMNK/TDrhYdUWoUc731ul/LHRx1wawyyL1w4N/bu2e2tgL/5d385uJjI5z8uXTirMtSMB11hLj0dijcgoeQdOt6Ys0eyGFjoFZQ198LSFzLrzYw9gJCUA3uB3e5YCnv/VWFfKK3EkrzyrDKhvpHLbJ23+7/6yov+OigDi6yN+7E67ZSW8zDlw3/vXxPN3QNbt2+3cbuoFRoy/dis6OG3sTNv9DC/cPR39M3qAn3VZ4q2CZEBMNvmu9vMVHmyjBfBfP+7GrwffUh2RSuGc6eVrzySm3aROmpHGc8zaQV06hUEFw3zHaXj3iZiUNq0efu/wYUbjOQV9iQveMahupQ4jVL9SVk1qC400qGx+Yi+CoPHqDCTefPt931bCg2bDDML8GjNvqDO7EXwASD2Eh45/KCMy2FNt7d6uUN5dEZyDFBQ02jhCB2UMLfycDEGA8F+CVc8r1zL3f0ZZZk55RYIzjRmrqixQb59+w4/bsZSg/xZPpLdaNVAlZ8PPvzIy3NmajzdoiormXLMbiSXfbrLl87L2POxrIfcaFn+2Eiiq92cm6hfTQ68HX8GkGTQBtHPKA+/9ZoLFKRHHm5pCUgH5zvX6EGeWC6yL8cMY8tmGUZfPErH9R6uDCTLWfY8N29Wo3Zj1CxOHYkO7NmlGpcbpTSwq/LodQAxYCgnZr3MRNHB+45yVB43Ve/ds9Mzwlc0Q/GnCvaq46oDeHZDO5KMdJ7kFz8hpGP2MCY8SsnMkquzLIExPv2GIdoTbxGiPMijtdQh2iKh9Y1MfujMTKb19acSlC5X3HkxCbNH3g3AnRaab8ug85XQ2lO2fpIZsXWqgIE0Z2BJiv68Go3bglhaewYs49YzPz8lIp1mPuSnTrps0F4sLmdm0bmbgbfz5+LLbrVb9sApZ7YpDh3QwKhZL3t6+XRy99eSJ1mkR5A0rJMQtHUmM7yIgm8YcXeLWUTNbU/om5kls1JhS04Jsix5jHNZS2nzqYzp8xlAht/Ef/Dgfj808bzcEfX9fNufGST71tK3Bk63PcpHrttH0gEtvfXL1lDuy+Tq9vEykqxMNv7bGcmL6uwXVWBUrAyfOilGkmkwjduzyGqoQHcijApWnpHvxOkLNpKnTp+3IfKmrehyn2McBc5VMj59ySOGPI+9e+c2v/k4hUJWqkBwVVhzelR+nhmmEfDGZ/ZYuLDAhje3ITDKUFlULI0KJwHm491/XO3Gz4fvuXDEzM+PYorHI5niMMDc+MvNxzwnzfKHkTIvK0ijIV+M6lyIYG8UWYcPHXR5scdDcXUlkzHOUxh/uT5WFqUbV5/zFT5msmeUPg3A5aEf6SZvCqGHyoLH1RitGal5TyUdlKwwQ9++fYtndocO8fSIZpXqDDZy6gDsEWHs/REpCl+JkAa6RJ/qAAoEl3Sht7F2p7/li2lcFGOp+vprL4/XfC+rlsy3ro7zZ5kpqLNY3Jxr0gGMEqRTXrcRYEbMk0hcuefGaOqa9uOr5R4cogc6e/+q9CyR1hOdRWI62gBGJjd8f+WXwT6u2f9rr740XnvlBRvIr27njevspeYiF3IkAAVLx4YpSJQK2u0BgyAU9yAe1ECF7rxAgziMOmXNbVs9IMOMr0Mp3wxE2Gcbd3ils/dmlY+NMgx8KI8LHq++/IIN/IF9u2zYuX2Gi4gYZlZVHvBJA3lORSHrq4OCbr8aeNGRLasHD+yXseTGeLZmqAtNalTevH0dGS5r9MStS3tgy4RzyjqOPu4BXG2SeqM8uLD5ggai1zTrPfzgvrGJ2fr509bXS2zRWS9AMvgRJgdZeRAXvFcjWu5iJFn+c+Hm+PETbv8M9n/ISGoVhcr/EmAWoOn7qS/GyeNHx85tmzSayKDcuTqunD8xrl06PW5oKU4aKBtIgiSFITBehuXo8XPj5795W8ayptaaCns0E1gpkVHRLEN48oL9mxefPTL2794yLl88b3kpjKrYcknWBwM+5LE5zFVW3rT84afHx2/feH9cunbHBVdMArpPcQvHbQtsIO/ft3O8/Nzj44VnHtVEh283y/Cp42UWqWW1lg9v+XvEn/uq/XiAx/+4yuyWgTRL9uxE5cP3Xp596jFfsWcfi5mTBxb9oCMfOhTnAgrneAN7Vpo5qeHcvLNh/O6tD8bHn58cp8+e814PSwwguUvjidG6bcPMR5teeeGZ8aDyx9bJtWvq8Lb73EKDcfxqXL5227fMnNSgxv2Rvnqt2erlK5qx9swBIyPaSS0l6EarPNEB0Q/DuGvnTs0W97qDHfKdA3t907jvjtAgy9vZMRLSYJH3u+uGUphnCcwc0Zf9xAdkFL8aF65c9zdycGxB8NQKKxKW+JlVpiNjXCxLP5oA7Y9BnHJDX5bWLOeZ1TyoQZIbxrlIxFchubrKDL4yKwkohqQZup7cTisCrw2f/qTnesdAKQ/Xbt4Z5y9dU1mfd1lzgzZvDWep33q7rIuf1PrJG2ZLtAWuEjNQ7FOf4e3mB/bprAGIyQWzdHRne4VtMcthdFQe0AuwaOuNAyqiwtC5nDQL5toL979Szrzpn3s/0ZcV2PWrSkNyPCDo7JLRH13Xa1KBvh7gN7I3udm67t2D4+b2nRr4to4NMo531E5vc2sSkw20qKKsElegztYzumbQI5h0WV2wrbFjx27fzfC73/1es8kTnlVu23VwvPqDvx2v/+h/GY8/8/LYvGOX+CiT2KI/0Uh+7o+kb1qvjnrn2rhy4eS4fumUHwkkGy7MqgCApJwNHTA8PN1w8qwa7o3MsryPQKSclRK9Rxo1Dm4P4jOwu3doCah+z/Im0LKrk4IRf9JwlIG0qVjfysAs6orS1nJfNsudayaNjvaRfnV87m/bu2ubGpsamjpJDAK06szKIz4aB/fvcWM3H0zqmXS0CphPy5u9mjXs1IyNJQuzJq5KozP5MbVkN1dXkcsGvJw7mYI2qvIzG+ALiecuaCamTsa9annUbi5/jikbeHhj0tWxRY1nr2YFLG82bJAR10yBZ6OZGfuWjA2blPkNvimYp5G4MTu3z8joqLH1t3o8W3UHjn6k4Y4kvfoKOJ9YZSbPgMdsYZtmJNu0tOc+UfZpmWFTtszaK8c+dklYdyOSRn4FpKd68FcVbdyHLxBwjx735uUWqfOePfiqrNqA61YOncXu+rK+ag+0t127Y9D3+ZPFqiuW8orn7d88EOBlqop3Wvahhw7WyjpaM+vtBCaEnEkqLICG/TL2srk5HJ0pa97Aze1OGHg6dC9lnX/49U85MxBRzjLuKlvKmk9A7NrBI4V8jRHjr0FffZMntDJT7/SXvkDCa/JgoLy4K2S4rBlIeTiD78Zz/yZX3mkffkEHy1npy8yS9mFROlBe9HXrzAqI7RIZ9f379vnaA6sb9OWpKyYQN2UgufpOvZAwctAhQM9r3QpE4DoFLxmkvAEjuXnr2LFzt8rzwvj979/wvqSN5G4Zye//GxnJE19+rpkk+xKapbWRvHzGMyWWdejIY1YGKjUe/yk07p/jZQI8EkeHZs/IUHlOI+Zu+Q2eitOp+ZwBBUchU2CQIjfZWFupScsxkmPDIvDexBYVmEYVZkw0usnoUDjoqkogfTos6bAXd+WKGuqVSwgTKZ2yKkx05Id9Sx6NY5+JQibHPduxeNFTHhtV2WxVcGsSG+reL5EjD0sjQ7rkIjOrdAbnBTpwikeHdBrC612evgqqhoZemXUoSnx2yES2QvCw9dAXC1hi+tX91tnFUKDRXh2ir0QywDGDZIuE/U32v5IWeuWcvGamQOOm8zIr48oqz3Vfct4129DyHm2gS4Ld+BUuXeloxHlJqJiUU9HBxlmH5Zl6RF/qmZvCmRFzv+0l5RUjyT4ldOQFeZnxom/qghd+7NqZ5S+Gkz1zjCNLNWhQl5SkCR4B+pZX8pCpv2k7wsVuSBxuCfDQbvpRUgYp2ifly2DEPjLv4jSb+fGlnOFBf/Z5vce5fZvbBvvdfBSPvLM94XxSrsiwEHvQaNInenJY4hJelju8Vlk6sxrDyNNOGIBYdnNBB78H0JCbbZr5oot0t5Hctk3GkVvsbuWCEAORVhW0HfM4HXyR4zaqxEnfbaciuo9D674sJOljjClTLlZyf+wbGEktuanPrbse/Lc1kru2s9yWuNsyYFpuX9dym1GWTKB6F65T4WDl5VWjJQ4DSCPEH2MwZ7ILof3eS1PnxOB5aUV80ToNyZyyUzh5wk9FEScHL4XPkkoDjQvRkkTXhi9p92iUJSr7U4zkSIYo8UkFuT2au2NU+v5ZFijltzqBL+bIcQsF+K5QaK2n+UEFR7gbA0E3VvgcFkJ/gBkb6ZMukKjoCTX5M94HyjS3DFlHY3WspAk2bxs89DRGRJQa5QJX9E/Z2Ujq7DxYAdqCyqdlKIrOwMBH2ZupwF74yVs55DmPFWdY5MO6l2v5aEVeGeT87L380GZApIOhLe0uHcFMEem2IkLxzvn2Df/SF2eeok9njb+UXwRSXsDUthWFkYBnzpMcLIBxufm5r/5Cp2K2oSeMTMrF8pvRxp40mOVVOYiPvPRsLgYO/mrnxJcKpNl+i7bcjozfepCPJB0dpBPBtHvKmn342YCZxuWV8jeA52SayJO64hedwrcoa7UP9HUOxdtn87gc4MeRp4DTiq9cpaEfkzAGze07dspIXhhvvvHWOHEiy+3/QUZSlSIjeencbCRFFFWnzJAMuGQWSAbsi3+hSud3gVrxU8k9arRhg6BxDcih4iyfyjOudFAAfBpwwBWBB3pjBNA6NzAYo5M8NBDHBZy2nOVDr3865CRJcZmtuCOShuNCC1jPeA2OxyGz0oJi4osm8lVYNMSx9A2AD1grZJAGIoUjtsQbJgMJNGvHKb9plBgflkvZUsgtHm1wqiGbAx7lXzNUVgl2bC3Q+J1g9DF9MxgW7aT1BWu6EJqvcNDnJL42kvLHuCqgeDqwOzHx4nU9yEVnS/APwIDfsUHMI4N04NY38gqSkGnwc0IG6ETCl7ZHG+OMGBsDAfRwNC0ADWWW9CIP+pRvDCcyk4cqI5qS6obb1frCI2XsNoY+oiGV9I3wxFCX7gD++BTv4xRn/qLN4Bwapw2J8JLaXtOhY08aonPHQ5AzOlIuvriptoEGTFqQbyCN8nBGhgdl2o9+kCLMsorKOpVeqBp9s9xmpstqj+2LN996y7cBcs1hy84Hx7e+/zfj219jJHO8b0C1VjINANd4g07Bl+JVSIA7mpxiJxxgWnBy3ZDBMTpiEPHPo1V3BjQQtF8ufpDBN5in+J3G1IFKF0POpB0dHJx5Gc0AIuZIx3dlGTslu6CptK03KH7Fa4C0yO2tRkagaQH8nXd3B7cwgWhZek0GwfzKm/nlkqhxKU9wyJIUIpcOYJbiBhcUOUMvjB+GhMc3r2lpxfLZ9+OxLL2SJ2hYThPP7CCdNuki2Xmpn3sHQg10AP1KB2gNxBcNusYgUJZCC2/jIz9l4vKAUPhuP2DQg60FdOKrlVyoYp8OnXn0j3zwPlIMZco5ZZwZc83QbDUVNbWhVQBnJz/6wUsAnPWWsxHzbwbL0j91Tb3EOU4yuAvCeqtcKVuXL9sdmpTcuHFV+dKSWvmTIJeFDZQMK+mjB/gSvQrWFU2ijdXQwXnGRa3Emln1Q5sIuSAGq+lUQBxt/Njj9h0d11TW6Ipzm7hmvAci6dZtlXLt8iMl90udW5+kkPbR8eSVdmwETmBdLGdqCXVuJyjalEcF7gHJzX3BXIENHhlwaxtPe4veijsDCxrFpTHHUCWTafDJrIk4CFJApO/CwV9uTkMM8hIyP8hETQBJxzm+w3XucBp1Ey2AtEJciIA7QPMIlDPrmrxVJ5ZzdOuLa5z95TFfHNBoZ0YBOKYf4crjJL8zzalkTPKghyiHSU/CPQgYp1+VuJzqiAjTUI+dV/YNcWmULMYd153TaQSsa/+WeGRO+IRTVnObAr/aJgCI61wn4ipktSNrbnfWWZ1YUxjJjt7WWY54uNNxY2CNKRmOtz9nQ50alILz7rZesrIVoFTqAleY2gWWoRkLRG/0dJrlXO6T/pR74W9LPxs4hbu+Lab5oheO370gLPTFile4247LpAyoI8o1qWntEcLlMLeNuNX0O40cxUviHpyTBvFxRUBaOqbtJS5tZSIQoET0suSiE5Uxrg3HfzP8CUaS9DuBWTF0XM1MxS4QeOeGPuO78CdY0hQZp0XQhVBFYJfMx02+Jlahhzo4SfZvmc7koIcMfze2ewDYpePQlTXxlI44YEqj4wHCnCKlfOWf6FpCn+VTlGUXiY3R0q0BFy8HOacgGrqWEP4DcE1pG4Ixm1oMhjji4U/8Mi8lps5IWpUG8OVIkCtlIAilnDLkH51A5Z/yLPryI9/5MQjnfgc/7J2rOR3X48rPUQsoWn46z/J9MK4NT/Nxbhcw14RI/qrsdJj0dXxoIZnLoc+BjpvO4ORazhLXSPxtzENLuj0Bgaf4OBOecI5eAEojIxGUZVZVnQ4yislZsaRygaQBXSEE3c8rC9O5iVo+kDwEn7TknJZRqdMaN3zgP9Gl3PEnv9WOaCeWocMira+DP8FIkhgVkRBZbt0aomxggZ5mO+BmY6IMIE8OsO7LwpLrZYMdexhOvztQ4SvNLJ3h46ezDkmlD+gcME03KhMWAblqHSpu0kh+0mva5EEgAryW1QnhL9dguXKmQqj8PlmAPMhY5lf6hQUq4kNEmIbrxls8uEkWVIWzg6Z4XW7yeYbjDpR93mCdmH0p07hKPdFexhNAbsoPstV85tzx6CSNrbf1g770cmANWBfSgnTSQzrDv5jpGa00csZpyUkKxef2gSMtBCxhklW0U5mXXpU+EFl45EAWHj83qU+w8MKDPM7oOl3cazkTEI+oMEOfc/kLH71mZ6j0lIrzaRA9ddtAmpOhtEOwg4JgAiXbv+iDcxtbZqz8rtvKn1Fy+GOoC29YpoHM3sqSv6I4dxqzBsJV3pvbiZRr/fIThdOLgyJ1X+19Ua/mLr5vgvs2kikEEkuCyYwSs8JzYTYNYIzjKwtTXMkgDI2gGz+/xAkpF4wJJhlEOj7oOggK3+nD4HC8dhyneLF1gQM22IqLHgHyYyGCxkVoKoS06XCcoZqc4jt/lm8XPEh4bXR0NoBfOSttGxPCOXeDsnagFY/LLApJpFf0K2d8TlF/yndKtSDh6Ba+ds0PjTE6gCtpk3PD1DKw9Q1Ebhhb8/wQ1Ol1Gn5Kw76GhKb6cBAezoFOv2USR1FzSLlDFQbXUxkR0qZ8ExdaYqyNyx0qoOh9zLld4lIuTWA5Qq+WwwKa2FYCaH042GtoL+fI6xDH6Je2adQcI9w0+8VV3Ox0hG+CNf5JL4FJOeSMHg1GL+Q4zsHOD+nbK2h9YlyJgL7loRPxth1BTeeGxMjp3/2gr1e0rMgLJ15cTxaCTh3n8PXwJxjJStCpVcI6W5kalYEUhjVSRGXCVIV3/EzXtMms6CwHAkZHClN4j4iRAq6kC+ej/ZFlT2Q2kf0VdlzQ4ZPrNBXRBt4x4CtsIP0kuAKgurIC4ekfMqy7oskB4iyxeXCdxpRWTjSqZojMAvwOr9I7WDIaNbf5apjl73w5zAEnlPH6o+sSnJriUkaK16BW3DnD1o1xwW8+9qPSspPngkpKEBw8+MITaBxgSW6DAiE5N90cpv6qA4EEiigYjFrJodMqzvVj4xkhwYdpWa9Lo2SsaQohsM+F3N2sZArMqoN/ZpvjgMQBhS96Y6xD8SmOc+vYXInvfEXX6NvxAvmNinc6r0LpBG3t10568LMu0QfoOINZO8y50isZ6NbbAiUtkkrnlsXJfielA67l1A+Y6yZ6OdyuIO1VacLjqEp1JrkL7ttIOl3LjvRW1j+m3vqt6kihZBnjLCVffYqyIXTme3kyAVHloJtGDX72wydXfOABF6TTxMjO6eDWAjr3MguABt+kM3ycvwnQwYrAgUSBmThEHvetVRKINBDuBm1Y6BhxHBw0OEY48taNf9YOwhCv1dgxaiTOpxdns1DSiKxCiNU6JDGfcKEj3TX8+nmphwxRekmpc+tAfHeA7hzOl2HOLyKNdpRwDuvQuujsaMvK4Gl+pYetSW07tY6aoAeJTtv8nPk5jkP4WresakxmXDsjij60tHnyoXyj40SnjsbAXuWxrGdH69Dtfa0LkG8U0KlwSScZm2mXLgBJtlOK1kfBJAev+B1SGFp+wvsM3UpdEZZTHvAi1bQ9EJgmkBSB4CyqZIFDp2wBhBItokvFFZ62kj5TbdCHVfr+GWt60oF2TmMykMhRONL/MNy3kUy218CkRNyyI+hfUOEKTZlegONpNNVwnKGimeThb2ecYyu8cKABB9Ih3FF0dtANVuemJB2HZzC5dDFhA/ztCJeCpsU5LgHOeKdacVyXE+FVx6mBvBtMyDmnZXqOa7qJnBg5nT1pK0eYUwJQ5Hcv6PxZZPPKJRDe4B0luvxMYpgbYmQpv2ZIOANS6jiw4C8X/hybygRFFLmRioHEl1AgVHKmm9NPOuAS3+Cw8eZaOAmvzDRf6saJyuXqMhA09DGKceqota0xlYpldFhO4U7fmJbPMaIFzc1xqWfTNwin4FJGU5qn0phgJbAKye+qQ1L8oYlkgdNLvGXOiidqSmgqhUDJgnqKWeZHfuIwdPMgo/jJgnV/Ah9Bk34JgghOP0teKmA6U90F920kI7Q95IEU5RQkLU+l6QRl6IiITjRORv/wTMuaFRCveDyrmaBkL2TiVtMQTRXsjBNKaZA6g1/LJYoOGj8G0KSVDwEEOAGYtfrgW+pRXOaxce8gvwVN02GcKSPoIy2OX2QQRp+uInFCW84NifKrMxCOhko3Eu8G8TQekQ1z/sGv8jpp6TXjinZxTn2aOa7SsSx4jeoGT93N8loKRHPaE7bwOuH1L2BcRSQurnmJI52+t9agKMuo8JxKcOlw8IYfWGhiyAwl8XHQNNVitWOU4i1bMUbIzaSR43j6hgUZJtngBJEFA+WXMkQmiKRV5Q0qLBOvwfKmKEP0Kai0QsOZY0Xp5/SmX/ktM+3bsz8YyqU8OObcFwknMh3gTd+SDOGdjyWP6LMqgTazShihJQ4P7O7LplIY+cjlFi+XUcfN0PIb1sY33L+RLPkoNxWSwnOBJ5Mr02no1FDdMXwuf/HPMDcwNCduauRIJW6iJM34JQXinEFO+PIv6Do9oyqNpQ74plCnVzROH6e8mQY8p6VrefonacLyAJPCobEzFzij5WLAcZ1bKKBtfLMANATKJw1F9NV44kQaEQbLmMp9xiWBNLw05E45x4quQ53LqRknW/K3jv45jTB0uc3+uW0AeEnRdQ9i4i1+/SybdiAUvO48Ig6+Os9EmzY2pb/mZ119qHjSJ+3JNW61m5BmP0qLVAARcdKDpd6Ubhx+nOXZUIQ2xnimS3qJN19vHpgGgKANgnBmSEzkEeSXsPNfdW2YZBMfVqdXCMswffGBVyy+khCaljdhLckTx7lvo3fkL8Eqlx5IVTJhbxmmp/50svjgGg8YbVBYAWjthKGtm1bKNF7cwvGU0UxnrOjwL91auH8jWeDCmyQnE3NCVs1naKaKFfhI2G7ZCO4GouaKWdK1NJeKz6tSggvM8XE6mmcGrwxKwJLTCgALescrzNlsUTKhyV80pgsvWPOWmwCWSCrX3kUe5amY4tVRsju5lNFMM6eQ84xv+lVcIOnAMelccpt44sUZU+ms4HJu7QMtL7K9R4f+xlUaa6GQ1sXsSGypIOQUMM600IEnDA2RRd1RgkggbooWNEG7GcIXXMqFci8ZhsT14GOhdpzAZYZoloLWJXgi5sjoF0hMh3O2zA45Y8GBSHoRvkzvXkC8KYuuRAhKJrj+IbeiEldMgkLNApaGuVDmQEY7MD4nDMxlIlAeUmyTgGS1iIzWwXal4puudY9SoQXh9LDKU2QTxju5Bdy/kawEp9Q5rgZXAeXspIOUcD47sx5KCKr5GdUZXxVG43ShMEIpTAFGHnxxgNmKr/Gmr+OEj2cK42cUBEM4U/zSxVTBOx/4gwoUjrR9NrLkyNkgQANBIuycrgHGOZ2WbnqQtbfTuiFvOUsH7EeGypPOih8O0JXbFbCc8k8Af7kE5/K2IHGg5TTghcwncMxok+5qmmDMUTSQEN/qd1zPQkqs01zS3QusqwWmzpgJG2d1U/cGhFhQ0oEEf5xgkYb18TkhwKxyjlMePFuqdLsenO50hq6cQmnTpBsaIGxNh694ZxKD5ZO28F32/IwgnoPj0GtmBu96xgVlWIbS/xY8ol1e7HE+pz4amTnOMgD0dnkATjPmZdKWeMlhuYxMknTKVZahIWymeLqcoRcSvdMvo1fLcvmZoth0gLbz3vSZ5TNjB7+aF373gvs3kveANAAyA5RiKI/W0qg7NUHnpqEy0YVIJiInBcc2l9/GoiUOcuFPxXYBCKdwDAMhIHHwg09BF4+jdcS1fuW6QDnCC3h/A0SiAs1X0D74MYrzdoHShpb0y98l5PQF8NqZvOTKT7Rl9LLBv3sDucpPZWxhkeM6cb4jL3mF3mJnWOoimqmxAx1XMgH0im7UR8rXcRbcsqClDmbe5o8fHgeMm3iLH2ge1yENXLikG/nEhSW5b3rC3ssiUkzQ8m/Aa36dLc+JzxBpxUv6U9tGfnVcwhFkEBlH+1dlLmX1ldqpFQgUa3qB9cfTvPcA8tc/5w+eKTclK3oESLi9obXuKzTwdJqtw4ydYsFLfusLXadtFhPqIAeGLSCcwfiZBx1CrjZrw0f9KY62pJ/JgzZT7EJc+KLHvG2zcAs9nRb1hVwScCRUooOvTl8Hf7KRTHIB0rcOhnhaKXRoBzi2GCZc0YYzYeOKceVWhiJyRhswBhNeABF/N2YiOrJ4WoggaQcqBf3TKTsJ/JMTfRuShQbxu+BLimiaNjmLq9XQhItMo+zPocQUIr/QtdzEQURJLH62uEJXw4rwJBrqu8E6TXItWBDKpK18+EhY0HkED72Crh/9O/mG8My81t/1VfXfxAQiYqazqwZuOnOYNxKLySjo6JQlZKKtg2VV2DhB5cMRxhFOhwUxp087MsZ4n9qfwAJmXDpy9IG3ZUVOxTm9OBMKWmKrFyiZOB06KjoWbskgb/JRtPih7XYBYiIPYefXjPpPg75jIc8P6HQjS1BKuf6Fc7snbqmThIYvPOjrwUzQPNBMo3jT8neUwokxOEkdJg1NigLltytPQ3nNV2l/HfwJRrIV5xxM0lImy2rjAqp8Hdu1SktcgwtsxRhGntMSpCgir4HwLFWgSPOt8CKzRhyFM1oFprR8FECik9/fJ1/k402e73KKWuqL0yGugFhrXnSrINwaNFJn+TkbrzMjMLORfD+HMp4HmgDy6HApg8gIL+BjEBXgFD9BdMzIfm+wnHKRXDzlnD7oplvGJ7ZgYSCR5Y5LvLBFa/xCBkinaXziwRirsvCMkzh+lqfyiTgkVHlUmRnviImX3xIQ7/Lz2RhJIS/Z7kBmxyOrl4Lglu0/x/wSLL+h4okqVNISgGi/YcknUDy0ptchfORNVBbGmaiUSyD8BIMiDG/iOc39F1nKU8nLRT3ROxx/8i/nH/w6V7+zBtBbUhy8STMQ3ywHmOTwa7zTNKnDtH1cWFqm5JQPmp7Fts4zJJ0/Bv6FRlKCo9EMlbAzUUDGDOhFWHHtGm9oceVCU2EDhGkEWW4tZJhWDm+HfcoZMLf062VX62LjKQeP9W/X8ZwJCBWyojXS6Jl+cQQ63OlMvAJ0sRag3IiqAnGQLOiAoNTQ5AmnfokykFPinVbN8ZY4E7NXoX/rYjyuob1rUJZpuupw9VO3aAJICSUdgXlsmMIXmZzbEa68WK2S1RE6d7qRgWgTBjhX3JTGEprWUaIpeXYmaFHQpTPNsoIOYVMD0MYY4iANjyMLIrUhxdH00MZgGKtIz5qm9Bc6LGRGhlAYK8UtJwoRHYLkbIEHU8GcO1xpCGDNRMRBgfDFA4BHT1BxiYQ9g8ncdoFVOaEF5faiSPxzHokHJ6xnzQ1lUNFLDtq0PyOVRg9IsQVOv6KBSC3PAl/YCT3roQC6OZ+dw3vDv9BI3g2dzSnxqGJciicQxRLn0wImDpNETmQF8BLuhuKYrsQljrAPFapCmBxR0Ms1Dbh24LqD3hEi1SZQpSzpLdehAFFoUKkarFO7wjUPOGRmuVlIAZT5CSbiHAjGVdoVD7UNpNNBf/n9E5ihGzt0hRfM8oRDD0PO5kce5SSopEoc6YtO/6XxBuHO7M6TeICscnCeBbOs9hUhAJtpSwbg9IqWeJ/RsMBRCukc3fSTf6LDwyEesI63TKPX6AZ6whttWoaH4NfGm2txBtAhDpp54FCME3fqErKUJWcKoGQv4u4FJlmJah2ap+Rw9jE+WtO0qgKnCJMZ8EV3zuYJo/6pY2STJyIqO3EiC4MllIGMHGiTF4gAUxd9IYs0UaTGT0HkPMBnYFqfah9ugMG1jEw2EjSmkglEB0cI33Ux63Rv+KOM5FxJyxS7IAWK91t5rDyTF883FnymnhSaFDUIX7hMnVMwQNMmFXg7k4XTuUdZgErxKC1ofBvEyJ8L3VdB5ToP4OOKTm4FHBk8MpcjuyuxtITfWOMWZ4HlWlcaV+kq4sicHemAD38FoeFXZxM0TLhA62Uqx5nEzoBO5RxX5TSnAW/zEZ7rgDNHhyeBAvICmD5eQ/EbWf7V9CKPNhO9EjZ5JEQXEBNGRCXLZ1DlJ6oOhUo85zZW4IWxfxJpnnYNU6RhaiuWETntJzD7TSao/Ewi5/iJtojThoKnbdmpP4DPJyR4ga4pQlN9RYc5uYprGY43lALgHZ/+EugwtG0wIjN6J96DH5H8fU46ncbclwjDH3yg6YIz30p8wBSKQ3dU7vJu6PQQFSPf5ivSwEcqntkFB1R7B99lAqwmcxf8QSMZgQuYFI8CMwi/FiXoIGfHGVEyOMn0543aax2gc/7hIO1KvykQOhVeoQwktsQRbig5YJpvkgFd0U5ZXQN3pSUwxrwEKlYCXNGVFnh+dAfw+RXePI2Zzy1STd40akKWAYRCoOB0oQbOVtzMoW3o4EQOFLlhgWw5XS50FuuJ7sQt+KIxCFxrKDDdLAsgrh1x1oV24N8injTtCzht3BLng6gcNeOdWpIujRIfitBPsFz2LfCzzEbCtxoGlmVhHvBN4ohEOn3cHFlQNCZLWUVkfoGSySmJxEFX9IH2pO1wCD2BhCOqdEnQDmj8RI+c8gGk5RliJRgZbXxLVrEjK5jwTbpVPIc6yXFwrGCVtkNxnXbFT8DEA6cYR0XYKmXpOglNLL9vgvtebqNCZ4wkegaXQku8lcBPwOcUSpRaFH6CBRO25MzhicxyFzH4cYvZidE+VEg8zW8ZgozWim/+8gOrTWMVphj0kCPsWWDLqdmgK9MOWvhKNuFw4XGSuFTX/CO64/RX5cZYFtsCLDBcFo6b6RrT4aVMlJlnAXKLE9B56pkJruOaamIt13QNXQ5TeQiITfo6y6XImi/Ovw6brXH4G2IMzEtwEUd6y2XlMjLU4F1qJcNRhlmPhvJ7QAd0njpl8pZk0M9amirxkdeuRSmm3Ayhzyyp9TZfty+Y4Zc/3PzwVMj80QfoVZH+5gtW4aW8AoeaHkTJyBGI3JUyFSETv/lt6yWHn4J2IEsn85k1aZAWbdp6Gj2nFjDWLL1S1HGS7ZiFbAwlgFx4jAumeDhXWgLrE0qH7wV/0Eh24neBE0uiQNN5Clz0rohJnVUwfsEPTx7XosGmU5KAMMaRh6Uk+xe8+JeZn2hLF8fH5/OUbuGhmvPgGMfZFefsm2lb1zYiQNMgOUsVzkusjtVIgc4jP4eEbvJZJ5wRkARMR0eFs5Hg+l48hAhf8gjjVhqlgHP8Vd7Qgika8xGtdL726q3JI1//xONXrI9TnPzOCICMyFmWH/K6I5qnsEu+CWfRlZZkQQLfEiyWeJ1TTnIWUFKKp9PLsnzGrQVwHljMGFz4ko9AIpAz52stgF+4u8jQQ+Xisim5JlsQSrbLyOk2vnWuOOPnOP+cr5yXTz4Bpo7ikQSNHYHEZcsE+cFNYLFNj0xoQ7+EjgeQt6x/xfjc4PSmcqgErWQlZwTBroO+wXyRjvzZEgx/Lua2sV9Nby3c90wyUJpOrsCZ4pSzDws9yExo7AMRN2WZxlooYIrXqfhMQAarELrAO5mW1GD25lnKaECGT8TL044TpPHqrF+RGExX8gSWYZ9AKHc4NyY4gTAX24Jv4iq60NtVlPGNFP3kBSJWhwkjXKQ2akoDXdr1z+FEG+SfgrNqxk2u+AlN8uQgD0tRcsJX5xZHODIERurgAIfCN65c1ZKPgYlKQPqLcw4gBOKZmb4Gmrb5SmqjDchZCFLcnPfCGVpGkMvOCF1ol2Hy2zI4lMwOFd4nYKHDnPacBjDRroHgV2M7D0sgdLeM0ksRrU1UmdONr9unQiBaX5+WftF0QuonBIw2jhT4ZaKRi6l3A/S46JRzoBCKnOpsjqz0iXToa+FPNJINFFocSqwUeJ2iR8fJytfP/8lhHKGUa5y5AsSYfzEqkXlPwTUaepaDv/BTxQDw6TRhEA40/eQvA12jpMngxfkXXPQgBITPcpBR6SavqlzyCw+yccTbgQuY28L5Vzo4y+AsV5MFywCvIBB6U1dafC2Pr8wlLwAaWTd8yBBdz3wmI77GzbAmT5UaohgEci9a8cjdVQZQV35nCJ4fOs2jOn2lXmYi2XmrEOUGR2CSXdhegZAG6WUWkY6lv+Msh/j64W+wjjgCJiOuyhgBhuAgAtUuM2Ho4MP1TDsOHqf/tbMWwuIvGfa33CACJF1BywuKAEdD0olfUnxelk0A+a1z+6sduIEF4O74ma74iLVIDlBXGuYhmPqK/nPe7RyOfNdPKPwrZAlJOk4XtJwZl655JoBeR6KU74gTZ9H0KihEuAT/ENyHkVyV3J0t2RWg4ARkJr7l1biGqXCU4ckPiQqKgvUVT+FcUHLmh5alDk6xyzgkT+f2Tw2gaBZ05lsbJ2cIUXDBCKJrqRla/V35UycM9LkbhwFyDwScZxqg0+GYeM6lW/0SEXorUS5oHSoZ0ps31wups0OFbwc+45IO+jtPRTfh9KOsUsuTAvZZR5dxjJ07hPCz/Bk6tEwjxtFY4y1ff6M4mLZxIIyUW0JoprpUaErfggQmSRr4LcntC7Ty5jzkLULRb6YNTdyUpwqbVAEnRZulHUyJBkIXeaFvmhlntMM5N8ZQaSrWZ07wdfsFIOl23rzJf9pk8Gsh6ZNoykvlUfRLGbSl6Fn0gqU09Oq26nCdqS986Z/B8yPGYLLUU5b8xobfcQLrRTyy6lfyIUq9BWc0tPUzhXCTfSAATdF1en8I7sNILkEJl2/2CEpRA3qVYq1jtIsBNARpKNLKROI7g86kAKwbALCIc3y7BSzjpxj4l3i5DvsskvjxmMPAfp3TJ4r4IrA2xbsE08YrCK3Tm87G6IcJilO1Fi4ckYunJMm/KlcACXjK3mUHykx3QaIX3Auyzj9giikYzxxdebZvBuO6bhxqv+jK2/RuJcIRTlk2lF+nxFWg8AlHdqLoxEXRHsqhfg3W2AwC61gyYCm+1iPnRQlWuHl8mmMLOrzEhw95Ea1D8XYawFRkEx6yIKcoARr5B41lhhZIGrj4AXgnKfrP1Kv+qd20PJ1m3oDT9a/wXYZChC0ar3VmmPQiaGKD4wuWdQUQzk/+EpR8zfyNa0NsgDgMM5CuZ8ECxXkwr0GhxS2lLuE+jSTiItK6tELWbV46zcpDGxrFKn59aPQjrmd7zuXCmQ+3BPA6WVql2zKSjkB4YpheT1PsBtE4Dprm54C/wg2Im1LHUyOWDSXkoEm73SK8AitB4qOr0RLG7846DONt+/khHx1xDR5tk/P5XLJJMukGT4NIXBEIEpT0CYUfV/qAFztmejUPlFnJNS1OAenm2ZNdlSfOskRgosgRxmfEQDeVPbRVroDTUVxzNeCLjvjCG2RTgWsnWJD1TIOgL7h4thcgvc4DIcS3LhEQ3sYAySZx8BpjGtpwLpiBsyD77aYf4WW/iLzIikzX3QKMVVyXWQO6px8lDcDy+ZHGlO/o2Wn3D0Bmy0BIdJIrXRpnNIAedQ6tAwpWG0hsEhNYCrQEdHBdkz/907YTZ1kK9oosBqyuYpu3PUVbaadMOlwEDcT5P+tlX9mFNpL34FyBNRbkD0ErIyDN0g8cP5/t6PB09CgGQIaBtFIlBkeERRVtoSwnBA7YLePmpUWB+C1hISdT8SxHAGJahundYVIE1huZDkUfP7oV7WY8B2itD2fxVGM0iM9pFI0OJSFQXAkICY20FCZHzlDlr0MzAk4DJv3RdcqbcJ3vShfK+MHOQub4jvNhIYJD0UBgZ4zj3LAWNIm5R30Iko7ZZ6dD6iV8kdXx+jm9nNsB1EOXZNrKfG6YOl2l0QNn3ILWiUVujgLxkre1MoEiLUAWOAsJCjAuXkSg71KMpVp28wqmtEi7+XUImSFtyxQJ45rfkPglnzCmC/XibEEigk4OLLKmG8VBt04OL/JqdJW5HLh2gPVrWhvB4Csmx+JPOHHFNMmCbdahaCgDZApBHfNJXvfdpsPJH8NHWJSue/IVCoPaAIMTbc/iBJ2fUE2UK/AvNJJrwAlVajqRwangCg3YK5z1KYzpmkgRK+qVjIWISUa7Zafs7C3poaGgPGITFIHPxY9rPvMWncH6UKEUeuFgmb0lh38IHNcEAuKTdskV2eRvmCLagUNeGWUdOo+OaqRIypTKJb7B+WhXFEuYQo7SoRCkuoREt4yQAm7kTUzjrbSmPWdB85L/lg+EDfqiLfopcYXzw5/olglAttRziinPrFvaRzpD9GvAv3QLKQWRQf0vwwRNrcPMn7ABnmYBZ38jgPJPRGDwW6rDfZ46+pTAkmYGaTC3sYpuvSaQn7DxhYouco2velwL4Qm+OOxKoPkXQhMUXrXrX5CTb1UIy7E5xjBjaP8zn/GkJ3zquIyhndGFT4kCna9OP67bRQ8KYZ657g1/0Eg6MQsErI19KJC30ESJQiftTpRA8zpDuAQVUXE5L9PpDAOWvghbhsCULVuQQlH14FpeYqqjlCyOCoBzgTmuDKZke4lesyXz2OlQyXd+jYC+dOsZluk5298polPrxRlcgTyuJBnHnmlbDlHQcSiY/KTHRjZsCkpi5Jk3fPG0X4eItZu8RUfKeJMe0oSDoHH85OEHOsvrNB3LTyLmg85lO+XXAgpIvJwgUYl0GSxgpQ1YjrHWwGnQsauulwNmJwYvsqFxKpYBpuXhik/nVWg941VhJyxAAnxpB/NvJq42QgddQGgKprxVPqyDIyY36QdaYBId+muJ+F3O5A+82KZ65GgxHIhelk+gU4IU+tQstCBWaVsOEL2cggV0PVmG8cREOmG/T5ItCOPRs/Ku4DSwKjzNAhMVR5yAfPETwuVlPlMEzCfovknI6TSuHUQ6TNtl5b4Omi8t/RtgytQacJIkFvWtQNQoXym15DdOhZbCSUZNXcrgN4h+8pf8SYOm09mnhQM6jnOSnThXJJEeBQhtT92JMb4b7gSzjAmEmuXRICrtCRdIxZXORlecEDxKaBlETq75JbOjLLwJwt+hlUaAIzIkE0Azj6DBOWXRTaRLfh3kjfE1QaWpcvHAOHXMyHB8PHD4TDgo5KYzcDaf6aHJKQCftbLcAIqU9y5Ano+TkE4bdgYRpyO3XIYZU4dOJlwc2xVUsOUaFt4ldPkDkY+vBBSTo4tuKuugHA5dO+Qsy0IQtKHjEt/trwgKF8yCqdKtBIMr8aZsHCeTFLfp+2xMs8EVOtMqjrT1bzwAKrHgqv+zFnJ8aMIXFzrh7ToaIeSz2jJnOUuos4nx6zSVT2sK/wKCX8WthZbxB43kvaE059zpoFmBlS6HcjNJZUyZdFy5iRYXwils3kUGTVF0k7/CDTNNMml2O/xkOYWd0b5pHjCfR6p6T6MohIFNZ8srfYBEGSJL9JWvJBW50GEbOAtTP/x3g/PcaS6c5eOI0NG8TjPp4nek+QORVSB/8lXlDliID8YF3/mLX4WwMuqiQb5nPMtxfjqvpjGycCnTlt8GPST5NdPMlzgAUvM6lHBRln8hBzFGypE2v9KLe0bnd5RCK6PJ2TRIibx2liE3/YRsvVcA5hIwDQQLfMszqyPWyNO/uCec0aad9Q8VSEcQM8U5Xn9xunwTD7QscOaIBIU7HcAxTiP4KaIBWk7+cQZIEx4nHD6HWlYADqung7E0VbdZdAWRMuo0m3UuS+HVAGeJAvCW0e1QrvB4Iol00UX1PNW70SSZsONBrki/J9ynkYxgMhGDkuk02GUhGaT8WsOIrktnbYsPup6pNL5xbgQ4wVTwgu58iZkBHMYOA9GRywIDZT5XGmeF0dPxyMRfehftpBtg9boSil6OENotfyYW2xQHD4GkZr9xClon0jB98TscPA7WduDpAqbTmZ/RPleD6caiP3llGcQvlEmnpAVIjh/pVflBs/aFyNbTxAvnyBxCqaPjHBDII5SzKzy/5osI/O1WtDKKaOfJelSsScPTelmMIIND/IbyN91dIJTRy/h70M56oQuzVXmLzrQmsKD81sgItv3LA3WGf1nWOA4OFpn4abvOnwl89krIdbZa90iyimZVO8ZnZGKC91EuF8Kcfsl1FAyQ51BQdJCSdgiF620K+rBOyHBMgNCcmqPllBd0F9as9iUOcD5wTmzGQzx7w2j5Qrp8cGZwFNyTLAe+Ae7TSBaQJhm3pjlPYdIuxQmvGDgfBQscMPlaecEkT5AMlQsi5wKoUhTyVZyLs8haVsQ5xme3p65cEZseR9g46Mtvt0TpUAj4jCcsSApg5Lx2LgeUrOga2gmmdMrI4DdATYfAKc5OvOWKJKwLcZGuXxWE1eBs14xQtV8E/i+EEBZ/70UalJB/nEmz0MZPzgg50sdfdNAvPBM9P/tDZ2e6QHsji0O7QAa7lE/HRV7jViEoDnPcpEOFAVMUYjrntKICcUlvlmG6CTf7lwLSth01OQha71keEeWWeMeFp/EdNKpiDUseOavvuk1GGg/M7QaHlIUc44DglnxLqimghpd2SkuLa2hesws9xRixcPonjnD8aQurkFiBEizORWozGFfEk5xmKPjTjOQSJJRM9qg2F27wdgSEa/wEFEQ54nh/nmngkTyg8R7djCkgDG3+k7HDDx7HnhQAvjeRJ3yY1LmSTtLIcizlBIFIypEeKPzukI2HA73lhBYy2AAMCk+OU/QkOJGQVOncaM52C4T5PNpCXvlfAeVP0eSB30oidQzPHIbGZDghzNmypzBxdKI574D1mULEIysDY2Yswmo2UwIcTueXs79kVN31z5EdgsiIdsDSDyhtycieMsll5mtd1I6mGdcKiLbSbVl4HV6QTvFR3+GlvK6D1nXCl6tgsxugBWBd1gcQ+TXjdzpJy3Jha8epUIGqN7zQ8yu+BUv8HaCccLRfncEnTeJyoQ71mmfiQzZH44KcogTEpp2kP07Z67MAuaas/AUnZCIUM4PTMW38gPucfzMseVbAMuFHSoDzHAKWkgJ/mpFUonPjINgFXcYHvAobmOikIAVHCBwOXnArHa/OSwC3ghc9zrIqQR9BOxQIWQpnBgxl6INvV7SOj37+uaGkEaXDQ52Ogt4Bp26wNKcZLHwNkR8aIuHnezrOvxnagKeDmwz2aQpYsqxLdAIm2oUeAeGJQz4GwUbB6x/TzvkEU3TmEwhp+fpHRPR0FOXQkEg8csjzUefkw6B4dwanP5OblvTNU3zQO1x+QzPoj/MyEjllQCTXdUTZCZov8uM3XSXsM15FTmVYBikROTlsnllmwyRPf2RkEM8v8aGBYC2vpek/0SCDn/UpEoFS8Nn4orUzFnzF6Wxjh9+yfRQUpfUQQMOz/S6nGkRKJuHI6sGl48xY8qLDBCuzNSgq1QVJUKJrAR2GqAiVZKULqtMEHOFTUClLHIB+k/7l3CZMPWu0lDnVkyL6vAKLcFrTvwIsC80JoisNLihnfkp3okXDNdopzp1QzlQVb/8ST7Bd4RvMUWGoVxr9zLXGAaF1Cs1PeksS69MuaOJ5aUWTmdSHBUx8gZk2fE6VtMBZYGLncqUiXZ0VDv/yDEyptAw7EIHmLvErYBTkOrQugWq4/KosV1kVKsEr+FJmmWbLAapqCzrQDHNOoePiWf/UsKwfwrp8SqJd/0xbMUDeNQi2+I0EH+9St0Tk1Chz2980Beix4IuRkVeoLstA9Jph5kpCM0wsBSvhZUBspGdY4VGgwpBbjwQFZprcFA+BUZkQEIQrFzELOq0pNnzOIyhFz/JCA/hYrI1NDOemDXR+Imema5hoJ10ERUxM5DWqaO8FZtehzw0LL/CnGclZE/0XDU/ADMtvhxGONO00cmHBJ5DXFh2nIH5krCxj5OxzGimEHBRTtCsjSUcr3vSMhDVzmZIG79PMA+BHnokJ1yjqNBY6+ShZPZOxc4wggu2dOgtQOANIBY0qNGRpHEnP95eRpn8hcHwJNF5l3rfkQNNl6XgJt5O/y9euaFwP+kdO8hme5HPJD9jvcrREq4GvKaIbCGjmsvo6iB40P+jBRK5lAH1uvFzEd32Qbx4BxGgv2hF6FDP65mo8WkZTOx1m/UI/4fR3+dBWS44QcYqnvJs1nKEHwHc42kZm6BMGlnFWCPpKgyD5M4Bitmd80RoferMs5Catu90E5Z85AsgBmtb9dL2cZ5rokz6cZXeIV8VWWqUjdTL1l6Jb6hF8zayntLvN5KkaG+pEGG/uTtvHsKJP17253TYiZ+YNP2WFiM4D0DK+Cf6FRjIJAxmUUcJBCWIvrhowSKVr5bugTRviLnzCNqSCzuQEpbh5ipd4p4GjEsi0l75FWw4wtQMpROviX9G1noDjcgYc7/TKwBNfcXQ69jW7EWQFrB8GlbczF97YSp+zdZ7cTEMkZTnpZhS8xCfdSjrp1I//5AoWsTOUrMkZ1ToUiQ+JJ00STJoKT/gidnxCxuNpBQG8HSxeOwxsuPIvPMRh70YeV2RxpuVMGXUC8OGWHbdlKraMC2CcBSnss9GW1apbog5d1wnPfqDYQizo9Jb17l+dDRYU1/IsSf9IDj3touVD07JxjbMM5Ys2DzZROsyBma/8UsvnFu5+C5gA13HwhPf27VvZuydOYC0ha9qgjQPaeFZujCOcPtd84DP4rLcBTB7d9qEjfwq7nWCUiSs8MoiDpPtyUNCSQQdD1zxKwwwAaSQqQfjkmu8Pwb/QSC6hUkB5nXp/Koq31igbbytm5Qg3LrWYHBAWvlgSLpzB4fC1gUuB2ONwIIYpPhy/gNHIqTPQcT6XHoaWAU4OtNPGINIpHAuSvyPjwPocvyU7qjpD0dBA7JcjbacfSR0QLDvE1wNcFHvLWwK4CYO/HFwd0fHRI0dTTLTCtJKOSJyhwsVgkhwExW9an4204xd/oFkcZ3pwc7k3pD7si06COY2EZ1nExQXgIbZlFNifuPwCM0kEhHeGpKu2kMKvtOYBqCVMwbVABDz1W8KUJ0G3wYDOxje9BeRk1/iCips0D5Fd03MGMngygaB9B5k8zzyG9uJQzcgA5EtjFsL4XbbCO9SyBFO5CjeVn1xho4nFhN9QNGvzS2w7w+QpOWthQi4IF/AvNJKLpNco51GjM+9ITjEogAtMXozEykwMZ9IYEEMVQoVK5mz4GroSDSLy8tczS4UVBf0alilNoGehhNq5AgoHGA+PjWKwpR4RiZvwpD8XaSUTmJjk5dfptAwT1+hr2tDTYCKoUwl/zoho+tDagHfCE37m9BGe8luy4ltWoQPCh5WDKQgIzBWvABrqs2fIoW69uixXZcUbHA5aL3FdfpQL+NA2zPkAm7Ij3SyBmWkISxsQS3f2sMy65MQ5dyEsjVuD89CICR8Z1C8op7f8IbhUnfhBFU6ISafICpoE+E1Q+Emc9Ug8YWiRk8E22KSfuPmIjCpPC4O7JCgyOhLkHIffeayZods8eLM3P24VPPtDliBJhablVpQQXS9Jy6g6Jw9x0KXuUn+W7/aVcziWAD5pGSSjaZDLkTDOIcV3uQQfapK+F/wLjeQMFusUdNDfxtDIAAq7s5biUTZh4qJ6gLAzuFByynBREgoudFNFdLoLZ3kOBKaQ8FNFJDjRtQ5TutCELHh7HFzImHkmGkBx+N2YVamKDNodGLlz5bQsJ2U59swyFZ4aYSIDyBBT0g2+pBhCXjGkiZ9GRxgIyjRufIV2hGHG4HMqZgCzSMe8QpJG4yEruQSCbR7ym5DFwd/01dCnMmHJNAGyZghfpwFEPsGOcwxpTfIiZRnfbi0QGxrF6txuWvkUk+VSrwkKiCBRyCIjIuJPc8XftMgwucH0DVOEOXxxz/zQENVMJkKHWvZWRNKh/MFBEjr+gU7LFD43akVOtz9HN0/A+QJn0siA1g5Ug3mVgzK8iQt9E4ZvbQoCyxa0UGSUHKPtmg8anAMB0xW+ofPXZSJYsizhvo0kIlsxZ8wd8O5knJFGT9Gl3KRkAKW745t4mSkHScfci4YJLrT+2R96g/2JB8xTaUZe8elHh/NIp19Dx5tf62OrLHwkCMBDYzp5gzUPuMhj9pDOnzdXw0K8KkAj2uqMNnji8SzTKZTpCmWdOQMrDdt4S0t4gSM0lZ5xyXOJEaz6HSi+xKzE+oA8JCIZnMvSDRkCwZQRYCVgHXoLwxIUvczLEpDXLohKu0gtS47oJklcCLoMbFzt0qkbwgfNTOt4O/ljpQoR2dYT8UQZmbNdyShygcJ1tJjSK1AxiZjA2JLDD0hpo3vjUl6eBTpulacl0r98Fh6ANpJ0dEKNm+V3n5jkFe9dAEvJqJOd8fJFVskAVeA2A0/FFdcKrLRr6qDqIb8ZIse+zgGB4I1FFngOlU/LlgvpXfAnGMkZULNnAUlHSbvCkjj47gCOBc3Zfqs5gWmplIXC8UZ24ityIR8Hk89QKgoODEB3GsDnCoDvm3VhmCoCp7joUTIV1ZpaLlRGRwfji9ZxC7A8fqVLMIHgF7wV73KR8cSoeqtC/8RHJ3PaP5frBMSbBoC39PMh6QWdNAiEJWWR6OIxPvqEju2SXHkHoEtcyV1xwvkXMF3EhnZxbmh60vHqRGA9J17FF9OSF1y7lQhB8F326TbgCKeOyfcsFzBNvPcAFJFb0BusYv8mlEHS4zEbaRHIgACgB1/zc1uExtjiMX3xFMqCi9dxVVYG8Itgx0dGHLBaH8KBlqMsqONbt25FHxEteVs0/Bnks3QlwnHyl9gVcLLmbwmhb7nwIBO6xkEx1T8w4QP2g6tw4qVz0HdBNIss+9G9wl8H/ypGcoJ7KkYG8otai8zGJ/SE9XkOAbPQlBN+8Ro3SQBTuAb5m4aznGN9AKILb+KhTLmIwhjsK3WQ8zNbGFonwnY0Sv3Br+zHmomzXDIzBZvP58Kmc1Kp1UgiZYIWlwMQClzmDEkAmRkMFJAu/tiYAcaJOTOJjirocp30avLam0oDDdMa1gJ4ywsF9OVMv6JCjFTDimxOipyWZDiXj6MVUf4KR7c0YfBdtg2dtll8KESBU9bBOpiY2MhotyA3WMcG+Zd0vlJbUQbi4vGxEkt6TicGKfxFuxBA2PJBwleRkBOZOPgJcpbDqMlBOe9vB5oGX9DGrPyclGLCFZ/LuTAGp1teH1CgMYKlv9MXapKJH2e5wcNBPpsz4bhJfstFhHgTZ8wkx+nZEUg0bopXqMsNRJF9I/yrGUkynHyUEqW8lezwrOmEd0QRp5GlUoBgBVNO5Ok4GRbzN8xiBBQBIyDOQi1r0k1+0pnu+3LkjJsYgCQ3nxUxG7rweIO8ZZlk1eBBCe08c1GIv91iFtP8BaA8w5DHEhTthoXTjzR5jBJhprFsi46oEhecJaxA9DD1FLfUwKlUeZjWyDn9AOmWLEGXp5PHX25KSlY6vO2aJHKBLo+ZJ+f2h23m7/Oko8JL/cyjQ34FZk+acaLACT2X5ZKjzwu58lsv6XtPAF1RczriL4dsZmrT7B08MnW004EWDIjTPD6Dt47l+AnnwQUjKd29gwMfPE4vchrAmRce8opQyIoexyzRM8XGLX5A2m61T+uRZDjbbz5wyRMBcA2WZILC1ckDeYMYyZsPFgK52uSCBi+yWn6ngUbFMoHFoGvVWev4TXD/RpI0kmL8AhKzsnYpOIdKESsHPdC8pSFYxxRNOypghshDPuilvLlwhEMScYlwRQOTPP2b3gauptwUXJYXjLTVSMr4dVqwA+Qzuggss13hAPEBoCI3fBz7NPkFnZcgZn/rivxZD+Ll+BNuw1J8phc0rRuyfsnL8HK543CGTkcQHMIdNI/59fObgOiFzScI37JeFJSDPhIB5Id2TqfEmIcUCAQmOv1bHgKMN0V4wmLBqTPpZlmTsY1Mz6zsE0sZB5hbFyHsTFW4cCLDHkNi6ohMaEWAcfcH8Klr5FgM8XMbmlYOxZukSoYg+pbhJFHSbRlTfPQEPxkxcwuax960Z9ML3JbtK2pOkzcebz+Zvuq59AokbX6kY0NTsjl2esYRv3DLxEjLtF0OuM7D4hznfyfg0z2h6FKW6W9tvOEDIqLKA3rTShfHfj3cv5EUzMKdvH1dqNFNhwo3NGU7wH7R2pUf7FQkOgWfYDKYMI2uyTop06Zoyx8oseVfLUDA0YWPDgWOiNeJCxoVLfkVSelgsHyhdAZN9XclJixnP4fq2ObhHNlA8qUDwYoHHCz03ZDKj9OxAi3XBsQ/cLN+lZjB+nBF0umZ0RyEKhi/eZrPmILGJd9A57GdDmAjK96iLd7iC6pwAkiB6Oz/Io3pkFNRN08hjcDr1KdIQSUD3noSEG4iUTqk5XiwFYd/6pgGazeDE8NVGH1L56bjPBufqhd7w4fEprWcmplHjA4yhJynpGyUm7Zo2ms/LjyhSZ74JZ/C4beQBSx0nxJYTchhUBVKmBM/knN8cCXJNMAUFnhmuUgvHALjCcdN8QqEoumCb9mEp7bi43y+F/xJRtLQikoBJzwlnmQdWirkHMwqrSwnF3E5Rp5joTFdZDKyEp5HDDMUzOnNfDNB4/oChEfbKW7Bs3SO/f+3dma/ui1Xdf/uPcYthuQhkZBDaGwFG5smNjhEKIRI+a/zEOUBkYiI3sYYHKEEKZ3ygLCv7+nuzfiNMWZVrW/vfa99DmPtWlU1mzFn1apVa327OWcml4Kc2IlvJKyx3iqkYxHzVwbrydz5AOjyxppNMuOZtwh4J3LyGmwNdPui+6yTM97mVcAhbm7C0buqYW2Ax9x85uk7/ZEFDraQFCEKWfqA/nDsPylcsVfw+O5pyrryG3/HCAewvG9SGFOvnG0x6KbBhrE2oOGP3HF0zrdbEsPFmivmOi4bKOWMdXwiA0vmGGSyYQl+9iUfNZoUZ0XJmCGT/5YpRznByVgTjJyavwqiyS+MebvCH9vJO4zEGBr8saEzBYQLeN5bY2vpmAnobD8+9tv99AT7bplFnMZA8uwNAjHnWo9euFwvHVlRXTM+NmeuATzhyvc1S5SkH0UivAFMTWJzQzscmejsmwhdCjLghBlkYY8QpR+DZWO9uTw0bybAGxCLQ/BkjL1psEQ2Fzv/Q5p16RrOS22L4NDEacYr6MX4SETvHHXko0NymU3/LqRjnvNxj3yjfdTYxoexUubjoucpFo4F8NvzIE2vASR7Y6BgmNacE3f7EivXdeaYU4ozgHPxouemi284KZFfcor4gTwfQbePNyEHbJyWjFXFpsOnevlbIA5X5jjHhp5mNtx+TB2V48misTZbcLa9/rruYzcbEeQWSMc142FQPvLTF+rYgvgPYtPNkNyQeY7LYa59XQFWGmVqLQzmKDFN4s3AiHl4auN1Orb4H+s+dn1g80DTkfmqPka2KwHhMt99iAyq9QEaziXu5MFmjyIgHrCH9MrEGyCC5EFT68487oTnKMidh6nCZ1707gnSr/YT+PE3SZIyCEQyxExQak9qDB6ChAc4ChblBKXlZnM7lSE1A84E5OIxSf6eTE28oATkPvZucsFMoqMSe+WF3KHsv/yqj58F7l/yLmg6/xGaP7KJC8dYpHAMHNlnajCbgJ98cMnYC9xO29NcPrl7wUV02pAevLThnFgSULIgexPaAXAd9uLC3oQWkOBYUtOvje1A5dVd0fg9YpCy8qLHyTKfVztorg6RtvuGWnxxXUB90sv6Qkb/vgSTxwSb6EKN3NYpNin2cR25dfrKR+nIrBSSW+Y3XlOfR3EkZ7vhLqDymqnH1lNzr+agDw466TnR2lKfLT/tx0N1czdkMj/xt4RrQaFpDmh8QqtuMhlMmzq5VGICnahHBtSc9bsgO/MiqgswhctIDhzu4A3fJGGZZNr2204+QpH/5e2khUzdbk2Cfqr3NZo3GP5k8fUrnlw2sDxvFvjxVCOOtOLgieW3S+KQC1+XmzwyvyWaIMUVJ8EXTQVbPnrPn7gZqhy/+sh5okYOacZggXXLV/0Zl70kX28VtXvQbjz+X2F8540q/GbX5hiu5Kmnr3XJj39ogRrb/L8uxFdZT3aKs2kJPzXzlh/m5O3R4urwXf58+Zqp0Vwckw4mMaCB0gWtu5RlH558hFKxJG9p/AMLfjOv3Ub4wvRjggDkddR+65oYiNAlSxr7bbMHyMNp5pl5J6U9xhkLBX9z1Bc7xuVPQWrbLkEtC4es5WOU1JXMiOLDsZHFFr3zsFkOgGyNT8i8Ezf3TmLDR2zpvHMFYWH8rKNnKyePdYLhIo795o8+Y8k96hRtgzlI2rJGMLnRx1CwOE1j/AbWT5G/x6cyqdtV7aGYfD0+pMRaWtUmajlx9N9gkxzvK7OTaNcDbh4rSSaubRLdOl2gWTSdLPtjV3sXDmx0QXyDKgC+l38uC50vZvzH16lNPx3X/siRXceL17ZOHH9/efMYm4zJp8B+0WdzrtxQfjL18rNc4+rC5PAcqDiGDBKbBWxBZBPXuthh4DeDEeuEz5o3YPPYOkxYLUss2pGpp/yZv/wTVbOx+5AJth6f/dTxVzgSE6rRh9FfKp4by1G0WDe23cy5ZiaiYh3Qqn3EC5lDcoSHwnVLO2gurtM/EduMOXlQsn5OrP2i9rZRvbfAyIHzpV3V3oAKZO3iMdRu9Bpb3TiT22BTVcb6R6YiD9uyzgzJ/IJCk9MFYxN9vOlTKiFuhR5317XbozqwQ8TWGyRGp6H7ODNOb73NsXnAfcd89pKezs6RPFqsPUAMoUOJnwrSaHQep9ajG/FjeINN8hEogj/a+qsZThKqZ0D3Fx+cG0wWf25SYNP6h0/syybyxYmLJxK7TmJ914X2USqd/VR3QW8DU0SrIll0WYIOUSXmhhsp+7AiX/hbkgWySQrzxy7dWjcvx7emUN8UTWTsIV3zZrkbG2ojs1yYcSLIJhF/z+3chEZu2sxD/RcHRoxqGVvnjJgzX5tsLgO7HyRQrFwMOsrB9ZyvOHOfDXz4EqrjT7MxKRlrSvwol3U5fkIfYXaOrYWBVd3cajm++4Ye0N5jYYMIwovfzCXtkQXjhWj8wLaN/Tjk4TzxxwOtLSS/z4/M7KJDbPso95ofxzjLtYcP68Qo/cgrTZ1gywaYvu0HIOc2MXIuB+hNCQ7iw3f0yefgOJrGXW5vvEnu+ZqbNlONnJ8aZ/Ob+LLoRZmJD+JjffngeVev+L5ZdbVjPzx3qDALjIcyN/Ne8JGeC1jRyNObAAVx8nEmjp0pcVycIBlbdZOPG/bxx6nG92asBWXDAaaS5/fPlFvF2CA/kZit8evhHHKqbv5h0onLmNno7J0vz0M2tyzy6uUSN07Y0+dNbnqVcZT/MF3wPK4cpqTqjKsxdSvZ6kW1QMdYMi9qRFzsbtg85633g3GM4ElNOs7dckGNzJl86mdX5z06PuLzrZ7ylpamwTjLSOxlUPArXhijc1F7bVT4xtUxWS/r2zByW2ORgw/0vS0nNxdLEjl95MR7HanjxQKbPNRSdEIhJJERWaxiV+eZYhtObRvYU1FP2/3GAPjzFs1FVps5SK6JAegxZv67kvHLvNh4cxX2k8zjYa7UPd+UKWY9/BDRc2yV4Y8cGUZxPsf8FNaSfRM4sSa34yCjvg+s5EZUn4VxMWq0jBkc7ZQZuENbH9Beumr2BKhMvXC2o7bk5KjPGWf0U8diuOyFyrr0NixTmact9PPOZKcDa/jCaFYcCebXIdCFd9vRcp+ixTgPDvqG/DwvHZ9p0clgfbTuAWzFCVhUP8GcKuQWmzvftZEF2C+75hUfdMjQBfxwKDUnN2ufjYpWuGrn3Gs6MWY8W+izu0LWyGxK8AbYpHDU3jwpSMaGMzfhuhGl9009R4Ol1olGZVmfQo0cDxnd2gws0imFDSMGqYmjuO6p7+R8wqRd1kvXs02i85g8T7NOUsbH3jENpYB+HlKc0wJjmMpy+Fxt7hzbdwq2FNxXLIp9Wq92lYLtWywaO66piDwOlYkNIuLkryfxFptkMvSZbNNN5YhqreBJ2G2SomVDHJL0JD+HL8Dyp7bDWvRGqweonAlYTx33ozrdRp7WfgIDL1jXQTKTrjZ+axTiDw5LByoPOdTIfi61HvkqHMNUPtP4ZAku2VzVkBiueAW0wtNjzVlswpGxGRZjozM3ymwsqsfnRFKuDWUL3b/6TJQs0N3GNvYj3rL01Yp+HYLp9o1uNIQ3CG90KBIjDyStPdmk1Fh2Xh968+HNDo5YBmd7+C3TycWS5lFef/pRcc59Q5wCGAEPof0tgvjptDY3H8RrPhdIgMw2wzu5ofPJBkLWR8bbPA/EJHrmKG93/eRR/tH7k5ftUxG/jQt2V6126qK+szbvnVtkvZeIaT1xJ29yGaide3TPr7Fy45QY4T18hZEDR2icI9MHePNNUnEcqzl4MSqOYroEVYLaWmWDTAAlbzrzUSXLBdjKDpmMNSF1jErn9k94kbpIIb9MBAr64WUDBfnIQ9yAeuLtXNhwcxOsAaqO7eqG0yUyszk+4lyUIBfbsbGpD1yJK9iUU3NxiX7+4WK0l3DlH3t68/+VZEHAZkb5J/76iT48HmOMuBb7hkaY8S4/5yBftWUUp4Vp4xfM2MMXTLzJNzzW+Oz44u8tZPs4xMfrzgq+Tv4UJDPviT86u1zP6PXF3HAAat+U7c8YyHOkxHut4hUERW0ypuFgjY0PB3KKHVyQEiublZQNBRjbGsepwE5oyAV3zZv4nivxem4oh43zpdN2+srH+Y7K1unXxixtm3MVFPWhCIkbGWtx1iP2joNewHqKJcjxaeETVF58Ni8mKVeuEOlUGeOn7RyQh0JxsK/PI3jjTTKU0E9SbY9cb4JOGIn1K6c1QLA8sGeZ4VO+mIWDgzaiTFFaACkuWoepMUVenlwMN13MVqNc6rRDKWbTcrJxbIdUSrdqZ1NhTGzmohisdNp0u9lM3LFLLpa0BlakFO7WgLFPTqkt3rWSmibwovKgmjt+5OOeSr5ymgFdhIHHa33iEtpwvMjainCTCfeyaW+/pDjzj5w6no43tRrxeBqxiw9jT7HCJU1sWHPe3prNWbJprdgqwDxJUqj+KGDmfJkBOhbsVQczB8F5EJCJD98P0Rv29dd5sl5R3M41Fja5sZpVDyzr2JauOVLNeB7MQW0MyS+obeSZZ2zH/0lA6Trctj25K8NmXU+1H9iB6mIdm7EYX2zAjPGO4YI3f5MsJojb3gjmmV9Ul5QG15Scsy06mfXBjtaWdXA23e3o8xY6T0v7tWTxhMOaxQfCs3p841n9+JRb45qFckVs4AunYvdpNZuiOq79JiEZOoo9CU3tnFqDyXcd7vpkFSd9IXJ+LuOBcBYJsEOLIAPGQj4GY52PU/EumIPUPmO3eFIs6xtBcqFwqi4ElmNA98ozb6UZw/bZf7W0cgu5r2/eCMK13kgW0p7555BBinTQBFlr8wMbS2SzmBLONvvaw4WyeapUeoFZpMsPAROXvvPtm7BphMRop0h3LDCP/Uio521q/mDCbcloTU4e/codns6V7Yh7jE1f8Ydhw2/xFNv0GlUHHAfdcPoUTl9XSysfVO+iLp6XT2iC40qPcvKynyqvCWTk0hrMWnTpfQwm1tJVDhkh0LnxBN56kyQcMR0I6KK5Od1pysh/MSKlB781BomvnxTbhkma52osrzLqaUsrN1zt76dwZNRzkZPjTFR+CdcMajgvLqpKXdcix86lduhszy++92MvSrF68U6JnU6Cx6cLpxFafg/nW9tVH5C7OVDNOAwqlIOV/9ygGff2IX5ymFaOhPX46Seg2gHuaHJCP5tTctqobzHzxaI1B7kcHtNHEqnabOAHKdfB3zccSOf0aOJv4rR14ssgD4753wznpqOij715TBR/cyykHzuuH1dvy4NK6NfW69TxUnvDzhLZfuS25nDLnTNjRYxOxZzw+dqgyiqatYTe/ip1IcPITVM7c5BPxg6QU0B4Oi+V0Vg2OqFLLuV4hIcEHLNxK1pYsQ/94lKhbQu3VR05uzCfVux6OJyHTps5WL1JBB/sVObB9RSOlffjw6mZm1YSpesE1fUAKndLfR+9EE5Ug0eJnzdJHVFlAsIR03v51rc4eGvvEcizucrQ7UBRSFGiWQ6br7kNzOlTo+gcl/THVjYVWxE3neHUMXNijD69yEdn28JynaoLH18j6Im6TnZJ0yK7n+MpIhnrh3pgWvPqxDhkhiVjyWit3AwY26HyxrVep/Qjo95HYZsWUSC3D7Q+hjk2aaRg52KBgI/zyfX3Q3IUwuSWfjaieUDGcPSBudJy7EssYOE0pVGZN2RKFDVpFwwtomPqChzwJ/+1yyZjHFQ8L4h7GB33cA1lta6dU/NaY7OMOl1j2kdya0zUkfh8gUwn7hUry4VHvIPmhd4x2xv7i19zskyni+7EaScw9vOt8zG81SZJwOAIQLDpoubNksObD0+EJtmF66fj8Nhvc9m9AzKtypIdJcAvxQdPB9W2pyXn/KXO4Qcnp1VO3r1Zopl6LU7xTdHJtVX1tQ0edZa0OinKu5QD69o2tk/EQzYczSHS+LrEOmYHxyoo52bfBSaPQx2P3yxhl8RyA9FKpfKpBzTdxZDrnB8OxWQ5x6d+i0uoRWSsGZN1vCpwji3tlAB1rr8g8WWOFoYrPa9HHtjptY4Nnwqmn/M48RXbyctH7fc6GE+hPnm7zBpDl9XKgU3Gxr0xZd839HPvGMRyvFxPCLjpWetNoxlilrEgH66R47fsONHBpk1QugXLzUM7tguWXW2CPT+H0Fj2wvo0VturZYAmuefeW2/JOtabbmFu9XnY3I+d46PwdpukkIANzNHFtp/c4EiizXlfWpMgew9AH4AjUur+fosKA9JXhqN+fbgR1scwz8JuenHFzdhvJhRy3EpPVCfL/EJDNi+39qE+xXYxX7C9YzMH3HSTLwVSGPp2c1xIx+/HLGYhGL/wep6XTrCMeJKXK1MzG11sx+cc5xXp+2asH66nXWTE6BuNEC7VR0rosGV887fgw0dNNhvcCHzk5BMEsFHtWJzJVxKP0eujuo1wGyKh6bW3ePrm5SOIlOOKzB2oR/vwOL7Hg0BaLyg1OsaTLLFyzK8YhQvHsBvlUsLeBP3vjsbEvmPn+fHayGZAQbnWNH35kseZZ3KthWzNKw7fN9Qnp+1jm/6eH/z2fKovP8bkl44MzP7AvdrOevH9M74+P8Tir91C5UvnastGDi9jo4HIJzeSYsaNEh1mmQfLPgb/QJtkk1V0H6ufnJwGp+bjBKdukvFhU1kern2YKvwesPXV5VZy35AZoc1nHxBdUyrT6AIzzEQuxNIlpG1mfD4smkNtudM69uDJbNzblpUXUWSW29AErp2KZRhxo9Z4YGdxdHMLEi39yC7zI2yKLR9zU24Dw2OrYsZtY5ei3Zhd7ZFnWtu3If3I/YI/edQmvUiHz8XS+ENFiXH9T9sYC2Vrf4nH35iIwbUnu25keoKpEy1ntpj1kJA8R24sFwZ4IZPxIZq1fW6Qe0XPOQ8TT1b58i9C5QEyBzjHz+BKH9TfrK2DbX86xDw+YNPI17Iy4DeQiF4eVIcKnzZPxagH7uPb9vSN5gE8xrYt52v0h3+w/Qzbxp5jjf0JvPUmOQlNwIiyyKfYwomgBbL0Lp7w8+QHMeMUPg+cgmhxROeJsh92kdvEMqHtecLSxiyv8izFGGWzsnFKpAkFCI+xiseZYOWEO28a4dfBm0Pu/PCYU7rDF3KHq37lULsmV3AznNhjxyW8zCdOIQ5X4o18v2UcuepY5I45bz65No7RsZnRXMjh6u9XCpFu4M/vZ5q/vPFt7mYjz8ZwwS5Im4dN+Wcccbug9MvGdhaGJznGafKV0bJ5DPa4jy34bXYlIDlbmnVco4xjQXLy97zXL+OUDeEp/licYjkq+hgUMB6sdlxaK6MdHnT52CmZNUIJkDunluQTHbw4wJA3Rf7xkfANL7APPLr+s+4XiZu7P77+xKcanT9Fqa7HAyAPf7nxb5k8pkSmxmRH6LQMx4NnuAQYsr4/PhfwFptkJrgZus3h5HWqWEjWzo8BEdJKFpVVNF3vj3sWLcVQIbe9hZKiMHEr+8bIT+XK7OR+2tEhHCQCksvC8ak6ZG4F096y4TisIkoKFLfLH1UU7WHOIgC8tWQ+6PWidt4wXxyeh/os7vJFLFQeMsNx0Kts6fbBdK4H8OJ0sdb6xUlZ8lmMlFxjEL8hj0uUYwHkT3XkgIBVg2gKmHwQhEa+ytcdKvrTeQorCRWTZ6MbmdWDBkev22qtk2DyyIFuPhNNqYGB32ycFHNrs1z/Xig2YzxoLEyBx1eO2C+Thbyl1nbZkx/ZbaCDN9PJqVHqdyF3v9nptK6DVRm7MXLqSKxffO3D5dK+ZcD+qtzcXEsoYOlSl2mM/SqWhn/ACMZ/GTyBN98kdzxjDVg40sqX5BTLGSSayoLI6aaM/NBT6I4IYNsmiB9xetHVn48wFIBOV3LZRlZ9gi+du7WxRAKWZGSRD29w+FhxauMzh4Ha4ua8zGUxm41Nmbkc0S7xA+ACvKiMLNw1Xol3nG2/IaVk2KdENguOdqhGp5qq8qufDWkICVqKVcfHqmWdEmHNVPb4x2HGMTGRV2QM1z6nHlivU+kWoeVtmdtt97SJZZPx5lTflOVxHAOvOmNyPct8gl8bpOWpF2asPtWXdcyDobC9vjBdI6kszfi5jXobpk9n5kB2eQPDRxkePAuy3esiPuYXRl5V5OjpbOGFzuS1A77eYwtGF7WxeCkIjrh42vvkEC5RT/rjfOIt3iQ3nEyDrYmiXMBNJF0vbExyA1srgnzMC9Hc2H7icrFiZF14KqfQPwdHs7y00ePLqzl5RA5HYixv9Cr08hYVbqtUaL/uf9iOdH3ENWXtTDH/EOr4h78WLeo19sC5NB5Eudgmx3TrjLnx4jM8Nbcsc0gHeec36ug9d33nibsRP24Mes3Xbezu402O2eSnbRuVnX+vkwp84xf15pOBr2m6sV/F8nKqnjfdGefEOgEN+vVWXJuTd02KkJz6g40qZo2FTTjsES8u9PCr2NoyAZEOt30S4FCxl/j9L2fJns33NXOFoXjmI2aMJcWm89NQR/zwzVhTCBY5gC/3GT2f2paNeLMmYluxOSLaD3KqNd+qM2/jsRHf8kl/3uNI3RoaGtLZXmXp1SavzE9KGINpQxuqjBurxFbZSse/5nq0a37ijTfJcCWJfQNEFw2Bu1gqWQe2fn4md2P5MlUS6ssiDy5G8ZPUgVT0VM+fb0WG2f4eRUF7/H0W1KXtyXZBGA7gDE6OcZxaGNpma6AuhTu0LYtkIdzx8sVS4V+88drvAg/rhdlyCvCF1jH/Uo5fQ9xPF+zMTi6Z3icErOY0SrX5qpszIH66jpeF1ihSmNcG8V0EHl/9bdN6IWMZhDc2RLQLBTFcqnKjhMSe212IfJA5ltRxw7bM27DUejcikDIfWS2kEfsZ0/3HlGUWoZuVnWYZbQ8/aLspY8ttoTUQu8L53OcWG/IIDxvQ8thmtNvyeZsso+FdVhYIHid1ujZLM3UcVaXQP8zXQ+3EvgbQJ28OsCzVdRtbCwRy+VhkzrmHHHc5C+0jmvgJdMf7SJi3e5NkENog/fGDCXEKRNmRklSL+zwJmDyrPUkAuadEXX8z243yjA3xVpz4xr9+q3DC4OjHyjHsPTILJTtKePPEsxUyQqg/T8J9EKYtE5fHHRXLDthBp9bEocPyWk9JlcF627Usxe6cTAJSn37DS4kt+pTI5ol+luiH32NaIIfGgAO9Y6RLsY2O8cf9ngd/xmhbqFRib/PY03EvNkaUkkyUKuqMj3VyWD6C3dYP0bT/aP1YXx9qm9uPcv/AL8fEU8s5HhvSQNIEOXxNtPpY5DCrePgBYsozSwHmpDa5ec5m3ZfL8nKRj98QVTImKUtW811D0ZwyztEM8C+HuyVrv65uULuv3PLQEmyPvGu5slwfHZ5/Sy1Lvic56+dYV3e2tVywf0Frx92x0QxX9o/tF3nqQPJNabzFJqmAYibWhHMSbIALnQQhuqTCEy+Lcb/eU/iYoIZtJNVg5xU7G7GszLcmZvzMFT/rrE7fZ/Wp8U8NdMbU9jhMHTuQj6eRgbRqC4jvityT3/RDITtMsWOz6/jg9DisBOG02yomsGo1j48qkqqE58RwG3IcXxOtAqLY7vRbrMpo4u/Ttm2DHNEn17k2e0nR94JVGV/qcwzm8IMg8rnZB7al67o3muNtG5yZf5fmCuLLG/r4RIYYbMtrm47t60Os1bRl+Ciz9jzvzWl04Um/btFTajPzgzC/MxoWRCD53pfocKqZOdY/GizkNyzgS9sbaAwX+dDYR/rThmuycpMQj5T4mrh6JOTla6dYtsMPeXXhDYfbhf1raz+3NvB1/MMuXPeWd/o4ZVM8beETsE3OM+eRP4a32CSFxasGwUmGfJwUk7eTvhad9TWDAsjjEwo41uH2Rmwic0gX9ddGhFUYgXUuFRSPTgx5qYI9delO1GYW0Rwbh+cSp58cuKkC/IHXgk/uYumzL+AybqV6eOLATXzeyEG6OyYYvuEY3Z4jCZzGDhqbxDlSFFBYuZpbV8DJYbOj9jmIft/gg9jofEd6MbvzGdMs/PZr4r4nk/K4H9L5BOY2DfXdVqyxoyaCo0gJb2xiZ1iVI5t35W1nvtG0HjfnGJ49isYy58YajhA+2J7A8Pqkc+jG/aJfNhc2tQ/Z5BlZ0fbJO3kBy47xLZ2Kr9lwnii9bdMMxtft6N0YDira5X2M/677KN5ik/QlI0/OzScy4AF1FycR/5lUfZLsfiua5NnVwSwceM0tM/uqYYlOqyDhS6F4Y8gbhQSJZJu8rVKQR2PdI4eDCdiay37k4zA584Vecm+UiJvbAjbesLc+mCd0e26kMx/lnUkNZm6An+4q6DgYCCrb2CBMw32PsQXmIP/O18xdfI+Y7vcaWETDUehcQE5rbIeJ58rcyfviKTrsZ2wZH66xc3GfGt2hacXo/ZG18+c8LW8hZdVgajhDnLWL0YwZsFHO9xxjmtjmlVKR+hbSa1a9RnCJB/DPJyFh+MpvD/nxwxr/wIYYEDRWOAP7tRjOl9GnNsZnCqKDAx8s3edEv/Mmw20neC6HF0iJXmaWMt/zVzfEYBwUo7yW69r7r68sLp/k4zP5he+JLWnsagt/xOpVZrlPA+Ugu/l0stfHMaYfAW/3JlkkzwwA7BRIfmQ6bHfb/8irQL02G2QRBwxofe+Hyb5Oqk3nsU/lCegFF04qA79uCuYwiU5u7wLOiYwZutkUY7POaVwhmRl0cm0/+rlgEQaEXLGHa8l640RUSK4xSOFeLnzG7bFpjKf1tE1vPqdhH+cinGficU1A7HQTMPflTj7D3xwv8QByB9ym4ueg6yIdfMTwL543F8vdSmwMkMxGA8eJmhzIHBOanN0ozH3MqbnUtLt1iTOxXGya3EcwuVfpypzpmhBO8kZp326KSMn3/HiNdXIrbzG8FOeE4IL6jLxxwzm+8YuN6spzL+1Y95hIzpGEPaeSliv+13hg7C1r7Xb9kkf9dLJOGN3ogfs0sMMYjH/jrBhtWzd61ftl545f1RnrKbzFJrkD+lhxOaadhToCN+uzhAzj7NLQF8MjuQzzYn1FBdgxP0PlsmJtOL+RH7rpevMRzOdDbUT2oW7R6T4X9+OeTi+Yed0K7GlZpFnE+wZIVOR7IdOe/y8mZuMN1FrxMrZwbYs0xcdGF4KYs5DOWngqF+TzkHLI2gOL7BO/sbfIssihsxv6VMXkgaWEKEbnduMCbKzuEbVQvUDrgV6n5JX2IDac26ftebqYCc7csG5qt2No2TSE3MjUlVnOrM5DYXMCm4iw7qrVot+CxB74HnKOoQqvgL31VPHla6G6awaC5S0VnTATunlIdIATFtC8+Fb5UBZfMDFPRCMQRhXltFh6NVbbxlm52MK51v3ij/XJ9RTeeJMk1oMb7h5Oio8aKbWUbbY/O00BGLhkIfgfEeA68LCT3K/j/o/7908CDXO4IbMe4nDRERDXrOk272B0QPLG520kUx04jO3KGoEtspFS8EcQfcL4ZDgjbzbaQLTIspGo77eHsWs+cFg2BaTtOVQzb3jhSDrx89NzXR/mRbZqpyRedNHjt8Zmm81FWxLXnLyBLD9udq4n+m7qtR3+sw38MYyGZMSwH/lY2VwamH+z0zrFtKxIjBQ+mZw2WOVPJp2hxxCPA40xsWc+8pGs+T0KyOTZPJ3HWBNKMrrERro+5sViLIvaTg9/1e6LgGP8hnsKwI757swZp24VJyO2mmFhHr4FptpixwtmTqjPotPBLxvk7oWT8+idl69JePCQMnGxobZlYDf4bBu+ZStMLMrIpm+oYRvHqw3FfhJQoxCIbG6N3/f42D6BN94kLymSQ3uW+CNyS4Nnokesj4WyZFDGfGQGyIbI6t3xYZ5wJYLOatOH0+46uS2VJ2NywFCgy41qV9t3g6o9TU+2CvBChwcDwZuPCrC0/PyFz+TnPmKr4hu7vWH5oi7bcAwsjqGUKT6Wvc9djMhZHLPRJtamjA/yjWwQU5bNmDbW1gfhDc+5uVimcjAZ43qO7+SblBTF8uFDvmLZfPu41XguyMrJNXNe6q+D9nYPVgxXxqotZ34qkGZ0QXpnHv6+XjedkRmQOP5ZsoY+eDX/YDPmxCjX6U/VJsDXcQVMLje5CjqXxopdbGwnbH3qdR0pXkPjY8PoTi5qHbknBLio3Wzc2huNe8ISnVZONac7OmBxlSsHnwX1VzzBDyPua2E9XNV2zscDgWwTlmCL7Um8xSZ5QqFXsgTdgacVHQXE3qX9dEm/ErWziVQg+A3GG0KesFyi8JfLG1c4Eg9kcmy3ROo1Maxtq6/wReHNZzhsPz6xT5RwDyxfBcnm21Af3RRAfua5tx1E5zzdHFv1Jx43necm6vW2jtXEEaw75OZciQzu9CpUCQtB9PvGyibJ4aiLDrt0sngzhlWsARNv6wyH4pTuUxgeGOe6nVyLDzR3JJE6SGqKFXM9grR2P5HG/9SoxZcF0hKbw7W7LpZr3i6bj0+5Mm4PTn1hHxXPOD71W4C/fiBzeNiMvjbObxWLyhm/09YYPl6G0Es0/gbttGKbRmtbR7+M4h/UTl1zzkY3QpVYpo6filNRThRJvAbkG3QsALlLumGOzvP0CD5yk9yJ36OJCebVCVNL1ZgdPMqk4CQl9BPUm1kGBGzLOYYqOk0xpsYyG2T+uqAT4eBh8XTIjxJrdFYZkSdH56Gv5VMb+5yQIuNKIfb+SXwmHA+/EE9cneYmWPH4PTb5O542jflot39KCiNg00muBOfhnjkD5IoFfXiUi5+g45x8wMm33zQhjhR5+CLYfhlfxNiT8ROognHS3PMIWQjhsdQGsR241TEYzNcUd8vrcymiiA3X39h+tNeYONFWDD84rA4jtl2pAlzbf8S2gTddu9rdwC76fLxPLtT0/W0A+yb2zI1jqM2Yfe3CFL/ywQt8NscjsF3q0Ts14rjQTMyJsfjB6Ja9vR+AN0ZsieJNa/wHxPf6Onhd0l2wnatLzgP3K4fLcz/xzNcHLfcS94PkiaETXdaCZb0nVJsHezhseozTgdKUNI1H8JGb5Mfh4TCZSD4CkutV5xSQVX4OjtLKgDfto67BDGXeKgOk1TSGzalbLr4xoWXhnjQ4c1Hm4CZigjlsb4x9eEa7LwAXJzpjavwsZ5YSd2InT7fc3wgfsMYUufiRoDt953KP7ClIuXymmpH0vPQqHdeJ+bUuw7YsKDbYQy7As35abLsaLyQePhdfGdun5QILI7V157EdNzfEA1f5APOOO7JsShOTojZ5rFxaOwY8XhW2NR8cWouUvYmwYVqbdPA9SkSqR7bJzJdm2g9gedu7YXk8R5Y44Qf4RZex0fBXbEZWeByU+l/CCqY69ICWqdpz3+2rr2MdfgPbmDh+M0errfrCI8lcw/PlzNyUO1wkD9WP4iM3yccGMZgJXHXlhuWxWXKoVJx7JAJ6LLppjM8qu+8OlpXxH3BZLti3pJms2reYg2MFxm/7jrN5/TRy18hmzMKvwKbtDI0LY+gFHT4OHNXNRbM4MlA5XedoOUY1XDU45LZPobN9ZVGz0QXjG3/rVEZL3yJqnfJG1Zu8Rk4/7kKEfrJXVrPUtkURJZxewJ7bcPrbrNZWxKlB9vxdYamFnKqtz6Wtr9N3+P2woyNwrYD7Y2weXY/0YiGZpa1RDh/Hdg63N1wB6znMJDltHgJ+EDTWolCx56o3O6XWG+PaeCD9FDrLftlEYi7iTw7Nx9qRE7/F/iq1DkYnRN4x0cHcGmH4tsSIGHlwNGMpgXPqG6H7p7wy4HnX2trXd0pRO+Pw92HdoX8Eb/0m6QSd3PnkZKE1cW6OyrGdiV2bT/XR7Q2KtJfcN6171rl1jsvxyk/NwUY58DzEgXxkiBFCy4jLRyP+g/lMIJpMIBbw8ibkG6B+0dvb+rZMvbDMdWP49wAp1igPcerj9/k7o/B6DCp5M2FOcU8uIKaxd97Hn6Lh77eZ9k+/QXQqEqOiC89cP+xtEYoLR2ThHz9f+/JxTTBBlt9LS/7ojHLmbVGA48gXAW18SW42lAaLfW0gdW54qW8G9alPPvywyn+3EN3khu/5C+EeJ8LGWGsFift5iDpeuQBu89HZfD42L4htNxpiRbqKmeClvofjHaViGp5r59S10mLOwwdY7jFmnem05adt5SdmfiZ3LGwfpeUA1+wHBxftXuddbL5AH4awCNioWrlpjLn/jjlsTK+Tzj9ILDcX38kL7O9vwWQ8H4W32iQZxXXgKjo8iFg4qZEvofo7sQzc9QBRTukIw2k5bQ2OVlwjw4B5uw77aNtMJ31lki01QoGCOgz7BxDC2RY8Jl2MJafpi9PFagI3pUKeNpiLa0junC2LHdzB2G376NsxELQpmMX9zRW+lHvu8xw80jZPGsu9XFPWjaEj7ZoJzKYP0ZkRHQY22ob284GqtTUC/eXzFKpbQ6CRTjIQ7J8ozSpzr2JN4y6oY7/e5FGG0zxsuPVAai662pQ5xta8i6M8R225sDy8HgR0riYKPrHfkYUYtU7x2zrFqtM2/u63dl/lgs6Lm+sQ4kAroC27WFq59O0Z0QfOfx5Cw9V42NlP8pWn0VzTeRLWm3MsU3NtLJ14wm5F/xjebpMEBGRjoHI7wabcg6R8cVHd2fjJS6M8gClbfGgrnx8ssEj9hBFixxNFtb9fVjjGMcHuhzvtvLGsGAJ2uWkBurGnL7l0+cY8T3EbWeaP+gY+fZOQaL+VhL9hW3RS8YIo2Yw5BgWq2sQtMU4TeHCDxnPDjcmbxtygzj2mdmycMxZNdwVZZx5cIgO0p2/WsTF/6pAkn3nSEwf9bIjSNqqArHnaxnkzv1hOjMQbXNqrsxgzlkt/IuaGAfTC7ZVJr/L4ORdfZ+XbcfitRWbWTc62rgwm1QNacPjfjZT9rC3yox5b58c80anN5tY5X+uarGunsmxVDEjQHeNw3bbLtH2MZWzirrNLBFAsW2QCbSuMGlbpmCrzk/CVr2Rc332P1RM9cyvgi97c5uva6ZqwvNn42qk/xcDEOjcrqE4IR695+a8leLBJQrFpnsaiYlBuETAlCxsrwcGrWn0Gi+wYgE8CfH0NNu2JciUUDrVDBNdxg1lW+ZpUSZIrLS4ACxYdv4jNRrmnAz2HWexynwzpIJtcqeeVP3IRO64/KlAUx3wGmeRYOUa8QHznyIV0/os5aVHUIT4y29TuAuktrQqfPBTik/+rBOX4OoJ1iTty+nvOyC/q0Qtqzrhom2NdlzHREfWEwjBeHYv7J636jeg+7bmBHvVRe2KmjsIPLm9CnfcWCHI9A/OoS7zcyEduhTdL+GJYPl1jr1/1VTxXKthMbCsdq9fFrcCpIKwiVgM4UtJLsTmO1BKQbQ5hjGq554GMEEmm/DA2b7mdyNTYjKjqK/Y8wj8mlzbrq3oXGKt3cVfSzhc6nSwDy67jR+7rdidfesmck9d1gPnogc/Tl+4wveCySZ42T9hvhesOUicHlCyTQDuGli+kxwRlwQ/MYt/41WsbBOWkXpPHIBFxVG4Vp+kfN6lVtkU9cqQb6P3VQnvBbcX022oW/KhzAXrTCKdvRliZEeUlByZyNDohm4U39i6rn8rx7HpwVe9r47ystczG9N292gdqL1260w4//YR0yhRhbBNzZOGf4oUbsytOzjnMQ11COKTnvDjtdQUcI8fGQEjlxHLNTh6dLHG92qrSWv5BdCtPHRGHyz1O9DnMl9heHzMefTWEkXbsJ6fRQ0cBU6MbW+t1ss5jvAd8VGH093pr9yDGnbv19ks+sSculU6t73M+YZM0i8Q/Zs/+lL35bd2JXENQVlPJNpQPfOiPzB46OVfBOjmRdV5UTuvgskleVR+HTpLDDhy9bUHtlQoN+i1j57evjmwmyE8T6/HfPpEV02Zy5s3gzjb25VGlcw/8OBUS5O3IGmE2vu2R1/nc3rkYfLOYCwOxdOO/ODbILh81KZjElqfc/JTefIwFAyExw5cFoJzUdqlu3ugA4+ecpyf5JI/JE11AndjJA5u8/dJeMVzsIGunkZa+SDE55YZ3bBukIEscIB4O8zUvtW1hO0xq40OQOHOb64rAlrVPLsHkCpxJY9uydsl1dNjveQNEXfNmvs0b7uTLyZTltQohSrjNv1Gz+uW4vB4XSFwa75IHbYzEvezoU8vAv40h5D565jE6i9r7fvJRP/QUz++R87TjvN94izMuiTk3cxe1dTzPbzQ+Szfzf5a93uPrsdtfXui4Z44XkRVLwDef/HaOhozGDu5nB4fR/MYKHmyI+Yq/gLL4ykmUR3EX+nF0QBTsZ/A7TQH9pR9uF4t1opbdFHd9BsmEHhNoG2LoImOzPo7aKra21heTmO9dIpf1ihEroIy9YOBcap1SZFBbc+gLOYv4gw/zy8MuYzQOMXWJzFHSr7XFQnKLxkKV9ZFDWAvJThYJta/vqJzi2KMy3YyFjmQ60awHDevi655lqKIFlQnr5hK82KTy2EbWcjgLuSEszJeNnFOaqZsnZW425toW8p8YQfmAbdNExuHaPnP9wz+/DVALncoh2BMftaETa+TIOu4zRx9tb/R66BSbcM23TGzbz9Onr/OZVNyZQtyMYXIDUUVGgOEKmzDc1OeDKco+JLH+MGuMlvpLbp0wMdU3v64HMZ+RE2p0JyzUyQX28BrDQZ8aEefa2ecOS2KO+G3fATkmzykD243vQiySYtZ+W66DqR/ZJE+zj4JzbW3YSae7gVpdW2CtOuuBim7IGnn3QzcLgWCuokkOOu0LDqg1YfJZG0x5UcWMRiyD2NBfTzL3YhHvnMmADdIb5fr1nZSxIEgyLdq0FPvlQ35ZbHQ9lrXpwscFzMVf8E+8gGqalMWprsUz7oiZH/h8rm3Njcim03r4L0CQMrwZvyRrrkMROQW5q9jUHx02tlM3LNuXAv+8VZ2IS5hOXKw0T2Oz+FzDp4130nB1PZJw/GClWxHa5LhKo2LbUjehPD5Ts+Hn4UevlMHMzQRrmYe8WtEPkLXAv9Ztg6WKzMX9ArPDfq6bBJXd2VePLg+t+FzyAXSxdYmIAD6Gc/in2EKoy5mLy8RepwGdCFYe694I1xWZK/hSxSul1vafsvHkm+TH4UrDgNNyiHl6U9AdAwJOsEkuR8FvdMVIZwCm0imTOxvJuHOaks3x2bP9z8j7poApAbePG+4cGGYwPpywpx23ucggGQpt5K3henPb/rKZMzL4UyD37+DJhl5kIUwsWupHhIEr5GTsI53aHLYHwoWRCVvPBgJLgOvOjbJ9hiPWKR2N2vrI3z+/RNM0G7N9y4b7aKsk5l6WjkKszk1osjGM33rTQt7c7Nk2+VA0SFnYy2mPHZhMdivcYDZrkG+bmCHARgUW5jAPT+Vq1cGKj/vU5eHtNOrU2LgX0PNHTvt1PFHZjpKPnAKxD72hDn3Lqlv94r5/wnMuPyxs4zZVcknHX0XyH31MMiL3mRtq+iPDSMVWHT/n0aO7ABvPh0rVdxYLmK1iAe34rxcoihGjx7g8wyieCvSRUIZsBvuNghpx+ik2cyELJ2nLXYxJ1olq0toNL5jJKeysU/Xu0rD/frKyYRl2nZsrcCYS5G0Fu2gzgZqaFS5cAJ881dEzffuCctjGfvhws/Sw3tpwC0tenbkdOzbUhB2b+BAPObJIBrZ1Y50OwEluPkVUzsRya6s4LjwoqgRqTq50Vo4qy2pcLUafm+TMYUxOmLcsrjGyYbitXdydf5dHDuLqsJ9Oy7e5OmdblOOQTQaxi27glvrhFWdzRrL6LXNDcoDzDXx4FrPsLkB3FPqWVQ2uHtXd2Ux72cJTLG5h9GdMf1wXg8fSTXvYj5e3+NpUJxWGcqjVyTy46e6xbtAteWrgKOhBbS71tAVyqmVJ0KSEhzIWdzr72uBBeZdqcLY/FgTjq4NchWNqzHqmOOf2ZHT4bKQdw3hVW99VC6ObaRouzizE+esIYAtOi65E6J3HtkXlOXYHNvScQX7Nx4vFzxgudGiXewcaD87ZLIEvai8e9n77GO75fl83SGzA4ne/Mg787BjZwLb4WHci/KZWO1Fn4e+NMr4nv6TSRU+HMrlGaFtuJn3NX7fgjD9xqPMwQlG3w9dW1S3+NCwCkURKL9yC3R3FHDwY53uAIHT1tG2K9ePH0fYFlsU23PHR6bCEmYdmYiRW4rJBTgG4epP0RhlBqs0Gd87YULJ+clRbP/dEDX1DWHePUSXHchQZd2XLsDLpMmZcs1aiVVm2d8BWVSKpxrgYF3M1YasbA9TL58kNjK9t1fE8w3Hw2BYRn0qtQwDEA9cUJNKtpWqbx5ERvwWYiCNPRVO4FTihJwF/bOnipZw47d1Cf9q0n4mnZMsA97a0zhsSezd1yk9NsYluTXQ5rZGdCwaSWzvBLB17FRtNPwuK2MALqtzh6rgOhF0gnnOethtW7RzHF6/6WTbyEyO/1+145lndye20Zw4iQ+XidsqMdcY0Ke5+BOlGNvr2apO1EVsbXGwGngfyLwd2y5a24A2y8++hujDOlLGlmC0pGpPLiiNU5T4h/H3o9jE3F3OgAxl/fgqQe266GVLPG2SYC2K1LK4JKuQTzgFsDoPkMjmPRP0+yPMAlGb0+KNvm2J/ioU+PUQ5duRtufMul4ke4XFs2ZRrI6zmcdmyAeZIzDA2OpmFfm0u3MiZd+85EY3OD55ejysSJSU4vgso/9Y/CkIzRHh2Ah+Q5OLYnoRsNH6F5aOLx4iQrclzt0bCbgm1dfg6zlwZJpTewuQKl5dg7SLjRLwlFuIzWPnYKAv8XBiIA0ZyL8/NQ40Lfv44JkmsYrf4k1Fqy+TbG8ch5WUr1BzLzx4tPervWoc1dhxdy9IGi6O2EaQ99mO3BzL2tGu+Rigc/suoiO3wYhO5Z2koxu/wz2zn2IlkfjTqvM9L5DcgFc8/jUUVHsB1WT0atXdjYebeztZQPCcU2ke/vSvFCftIb9tguMEeFw8DiddNLpkHo4K8VrG8IlkJHZ974yuPyZv2cFitGt35ULSwVSQ6y9g+7tZu0BgJnNwj2blcPOBqKaMN4h5/l2iEw6ZzY+02WBjdeWzDI57gx95VJDxCuhFLTPIxcYwZcJgu7jbXyUJOscvA6YrBu3omf+tiGxNspiDV6fAfjI3RyeWIzdiNX/L3zYPf0pfHfWxZOKm5u3YeKroQyZdprI1LQxqTg5v2u3wUbJ7ZKG1pOAPHSc/+riMP4ntybu7odLKln6iaY/8QwwsIqnAxfrhzfqToNLY2tXTD8rbRNWQcB4xv8kGsYvXiBM2Vw/Lwpo+6xK6WkzkQZf5yDOLPJpmNktcCX66xkYjWGc9Y6hzA16mvFUgmHfecIHOvMmtZBldeHFRO5+qp0496QHs44PMcsg65lnMdD4+0jnN9Xafrk3kKZ3XkA9zlpOL1TV86ryFsXOqHjb2AhW0lNoyTuzXInH9+nWhiu9Ipt1vtq7sHvL5/nQcRJiwxw82an3SmXFG/NktzAI2ueToHHhg+hYO1yWY6SKbZqNtpScdQX3r3ln8qLD34LoDNGQN4LUFu33BFGb1Rl6E33Id7/t56K8+L4YkVyrSA+cTN25hsfMPEctnbvVxjH2EgFdqTy2r4bJDa+Ug2v2ZENx+fsqGOk7npN/+MhRb6cBkjW4ITsQXE0iklAmn3m2u4c1UXlRqeEx88fMbeitVeP4yy1RQgCXE8rynxiz6/7yo/ZBbpJGrnQM0JaWOhmYMvCjdetBM9MYlDBX++38a6m/8CtZsvp9pfS2L7Iy1rAZn8NrIZmVvFNOXJTcxYJwcV1LUdWTxyqikMEsgGQprIyodoIg1HexeMPHOkAjH9+XieruHcvCH3dyrRL3mu1fjMtxTGB8vxiddDeI4a92oTnoF1xBFmTo362dTm9zz0WD+qDr4FqaEK3XhOrVitfwzsIBNTQ2nH4hEe7aMvZOD2Wk8NymEi1MdV9BcsYxO0COL2BUovfuV2YQ2bMxhWpvWcWqe8FjGCyAeJyBk98YiLfQKYyarkYwyXm7lR8jCQn47UaWPog0XXhXdkF17rFK+LcQpx5qZJTk4EDcqW5Dl5bJvWLtwA4afvmGNTOGbtR7/KHM5hF530dcjNH3kKXzoZ1GbJeJp3tlodi2vGgT42H374mrtWTdlTJKO95kbFbyLIzYb/6PVw6rzbx2VzWWbuXSRZNjrZ3/L24xMb+PMARF+bw3fsU8Ym9jOWrOrqmuvEGs70g8SQzB1OWVH2dWn88cG283TyxAv15vcGx302Poe9MbYV+24b+9EVw29b+6TYYux6X69cKGOj8+SzuQ6/hejnnPIQ2iTr/IbIANuBi4WhkguJvhPmfiaFzQCz5KUTT2EKfTADtD4mxmHCdKywwB24T3msOcO3OjrNxDgfJ4MNTzP+RCl5m4vFgwD9eTQ/23UhZdObhQYfXsk085RYMaHGPr+Yvv5FIefSmBR6ljcObbjgef369rr/mdRamC2L23/2KJ0OeM2ng7F5fOabPF4fm4nk/X1H2qOfgo/5Gs/xVxleYsT39etXyuWVdPLlQE+O5Gc+cqNk3viJ6BqnxxKejFOlHP4Pn1qy8VTvX/hPXOQ6md65nZzlmjyTy+ZwDMYBb7k1QZ4j7B2bun4ZQ3P74FXGrdpjhdMx1JYff5KavMkN7vi573ko19i/6lgaQ8Yumzvlyl19S13MMMg8dSz1Gd7wZe66nKUiTxV7R77/so3bP/rcKYLa+d1Z4meOsPWbu0h4a3fc5aNj4tid6wOn/OGrTCe/+VZgWeTqw6/inJBblP7kGTL0HdsTeIM3ySuIlwBKuMEojk/C6q0E3AeRzOKbSUU9FiaW3QycY17ll2Er+/s40A6mjmMbMNlsAy4ef652/mvnxCcF83oBc4HCARe2r7RouQnWBmfb6LIgdwzfhKrjP2NGFR01hzRZNPjLNhc0f5P9WnbopuBPkuE8x4lkuPlVqOaDbAo6eJx3ZKD3h+GcVq7hCn9jcT04xlmwToV/wPiV50V2tqEO19jFNnyOhULI23V8bINv84j9tU8833qZKvvEN4xuT0EgG26uD2fudA4fGcYvHImNX8B6vONWwcbXTP6WkocQ281jOKbaqv1xcQqQDfPt66s1lH9WLRkR6TxWn5gNYqlqz8vpZ3VsZy0wx69d0vYhO889m+bIEVqXXDxGuA5Zcs19MPZB/E8/S5HVd3j2PXPEifWuiVv+4fBD0LaSl3/ms71d1xesDdMXq/P/BPTioJn4GKMNmX74XPX7t//zvW/dvvvtP779489/8vbpn9ASff3y9sPv/93t+Xvfvz1///2EbiJrcJO8Ksvcq51qZLaoj0HInCqjhNdqusZqHJCNzRIf2/Ebe7jN6ztMwAUbfbGI/STGF5Xlza2y5CSxvz8pWMX3bvRknV8H0cGCw4Lz+ICJ1dMFvoToy+l4KGir4Vmr/8jX92kEPLDDF57JP/5ZvCB/+VE/HIrE3H2a9MwViUEfOa4zNi9ctR3zhPqTo3OQHXAGI+eI2PYQDy9dx7PMooXlb0WV9k/TSS+n63XA6OwNYjLjMIFztfTwZ7xrDPry5ur5jWzkEHreR7Y4yCdzRkEFrF6ux3U0MgeTh21oqM+8zveA6SM3d/P3Gxh9fCnxTJ8YbTvSEGOPP76y8fjiRjdN28SF2L5/kMCFURg31PWGKDvfMxLZ37bB4l356Nw4qtZ6Ys7xc/bjHmcVBCmv9PB5/8Wr2w+fp/zgxbu3X/zl37h99ev/5valL//q7Sc//3mcCrEpsGk+Dk6QGGuT/Pbtr/7ij7RJfur2GW2S73zw8vaDv/+72/s/+P7txfP37bNuBooH1WT1NU/W2JjYr+QeZDeclZg3qiwgJ20XnZYB3fpg5xbcvZgcjWc7NZER2262wZfCIuCjgAp/2liZG1oc/ulmOQIakZnbul4sx4+aExTUmLhmc8IG+kh0ij6bKnlIj1zAxhRAmzpS3oYMXHuc8N5/8HtulQgL0zHwI6b9kBP3BHM3GVSTgRhuOefMITqOdITJb7tIlrEBW5fP8ydM3z6IVFsydj4LbqyeMXbOQZixXeWU7Te5DIhvC+dTH3+lXutKczjepOZY6iD3jS/hfAvH84P9kdsAX4j3uHMN5rlt4Ff95BVIruu4+2kt27bT3zZoIidPxhHdWOTjLvLco3nLC0/uz8gmxTwQBAnCiZAyjHQhpbW8ei6v7UcaOG+VVMxf9JkDDHblj/Oqo2F81F1r6jBNyLJJvtYG+fL2njfJd25f/OXf7Cb5K94ksZsYP/ImGRAlm+T//us/v/3lt/4wb5Kf4BvkvEn+/e39935we/niuRP1oqFFjup74UAjUNvGSk+TL/ZsHPQXSNFfqU3JAGyi00wYWMPJBuMLWn1dkxdi6bxRYkdMtWcRcB+sn7hhTKaW0x85rBDF5p13809VWep+2taPXWu3XbEJZiNccVTlstC+2yR75zgHHXMjrbH1mFmIXqcKiJF59IxHhn541vwh2m03202EEemg46TTPxFL5NHnpBLxQ9xz0JTtiniogLvDZXUNqOxHXQOPzRmrlsxVM6wbYA445lre+8x1sqx+mRPkuhnzAX5J7WcVHt1A7ChtXPQ1XJ6pCN1IHF+XEdFYNfLdr2TL0nHJta1c8DhdyGnrfKZfmVPUvckm5JebJJEHaly6QYXHXHHNW3N9ZvNM2bEBlP54T8EAjM3IVIhJOylobsplOTlYj6+/yqu8+XYaeoWbN0k2yB++0Mud3iS/+JXfvH3tG2/5Jrmht8QPf3j7n9/9s9u3//QPbv/oc89un3r26vahPm6//8P39Bb5/Pbq5Utbeol4U1GqKutpZG0GgG7k6fOUzgAHyA0GXn82sJ06FqdHeP3XNbKz7SlXIa/ZBOm/++wTbpun+xJ9/q25bLbdGLvxIcubqA2jU3FMDvpqn3HPEqClH263LT8hyTFnGXNyH1iH3KpwrKk5sOyElcIwL797x/apVMgkH4t680bb2gYn+YGRyeeIMXPB2TfgHbC9zNlhgy7h0MFr8QFrm05sgtP25I3QZ06OuwwL2Y9Ieo9FX2FJDGfVt+UxTbzVc6uRg7j6hF86Gfd+K5VcdTSpY2+BMXOyoE7YdCSJC2I/m0uY1Wh7268NiA2LvoXVq0KXPGM3Rmx8yOnYv7bwZMPrJqk1le9Lxm44Y7vzo3id6AvQdAxs3FdtDjo28b8TCTc1olevskn6I7c2yffYJL/6zduvfP13bl/6CpvkT8WxeINN8ocK/v7tb7/zx7c//8Pfv33ukx/cfkIb58sXL/yDDHbp2fm5pnsDYACSu0aexevwlXtRud2e3VpjRtcw8eGHrgZWZbOiMxxWInc+iGhjbCv7AOfDPo28un5FIB3jgw8Zm+iAHJC52CF8yXLLqCxfC6qKBWToU9KFJYutdFtuG/TIqHU4xwE2VNHtaPhZexmrbU+4jyGNc65cGYgec4tl7c3hptDGTAp4EDjItxQoyvPOn7FPPlc4muFxFUv6aKhTOD6SJbQxXO6q6RoTGqujL+s47Tw2Ijk1YQ0cAz+RMLaxRu5rLWRKslWe4x/bsrieakfbWpA8ymv53oKt3c1W29eQnBTmLW9B6xqetUZxY62raSvXsYfzjDN+0151kY0yefDpatlbgCxNgs4PwLwBq0/9/OVrFb3YvdQbpTbJf/G137r96m/+rt4kf229SYZCMyLiRfejoZvkX/zR7c/+8Pdun3rnxe3d1z/QG+SL20u/0jbB48I9AINb6jN8JmpSwuR+AcwFWjeqTycHutMvU8vFt6hyn2mHYNV56gm8CWAkbujd7B3qp18SbTbIsYucS4YpkfMthujHh+INj3o9Aas77JDNUxS5N1X72SE18rEZHxRtjy1+4enY28aAI+MQ1pwMPHIfg7mRRrR8ha5bgxCd7kD9zbJbdwytwZYnw+iY3wFjOtdIMHpl7Sb6Xv9i5uKC2YHPQRyxgP/xDquVhWrPi76yScaWfDCxyCXyK7ZmR/MqjW8VcD3wtgNK9zDa7YUyddDhiN2WU+bar4CpQatoDvmlHUyea17VHx9GOePxSW1r9cLiqdapXmrGBwfPjv3CtGYrarf9ydPamNYiDbd4E3dHPsTJJvlSb5Yv9Ub5QvXz15/Qx+1v6uP279x+6atfv33+p37KdoM3/Lj9/u2/a5P8kz/4vduzD7Rpvvz+7fnz928vXuXXCniJ8UJRHBLqiBByStsgFfroVaPHHIl8bC1ZvGeiM1BM44stG1va8S4QyclcfaPNRBfVeQr4cpuNCJvY7U0KSfTptD0+riFRWz4OXftcJLXXZnblGF/02EWl2nM5McJhftcaHnKk5Y3cEigiF8fIOWaWYodl6vEZeG4tykjSRVAGLbjFdYcr01MYq3uWM0p1qpqukAYaZIz7XAvGaoqLccsOPdffxmjwcwvMLEyQ2rg1MqFNuHxzCxYNVxysTzcOFS8sKbm5Hfie4SBH1BamHn/X0p9+MyYjBv2iI9sSYGbuyg1kaQnTag7uVqZ++MinrRV3+s2ZJvbewCJzCocRn+jefffZsrecMjaC1zyiM3Yq4513npkjRtAOm6ztamf3qfmZAZTsUXzi5b5ke3p5++Tti1/+xu2rv/7bt6/8yjdun//pn7bPYtNNOu0C0o/Cc2Xz/PadP/rPt9//T//h9kztD1/8/e29H/7QO/Mrbsoy5oJksBnwDFX1XRjUWbgZ0AAOXpUX+jGaELayX38qXj/HkmKi0QsyjYkR7opDZi46bEwjG58gvX1TeGxpRCCweYHJIz7DkbZ50VNXxjhGfTSMe87p0145uJs6qY/NIP2JuwY1vsXMmzlocFJnxUhHUB6ew1guFseVDPGJyeecd6pynfb72pVroU5AjozF3y/WsZay7pCk0DVQsUUTeyHKh3MVVDuNohxQ46evk5UYzttfcbTesZNzxYabUblyjjVxUXdeciPhjOUjwNeqcHDKXGwxhBFZIgznnGJsfU2ccswkQ7i9wcFQvRs+Mwdo/PMJZDY7vGXPsfhpx8iwz6JMO7YIpZUs1uNjD9dBazZtmbBMZoNkHj9899O3r//W796++dv//vaFf/7F26c/+9n6lOXH3yRfiPnF7S//5A9u/+X3/uPtJ7QPf/Di+7f33ntPr7DzJilKDzzwJCFq/+FClQ0J6zRPnwG2a5P0BGlQuJfPTfTE8waKoFzpmYO+xMEoBOfl/vjaOW1j2uhpn/2a96MzQFomiSTL5zB/rXEPv+q0YmP7A7FebGqpjY3tMj7PrQ5ag+VhUf0W6iHlpLOAfWVLJdliPuwX9xpTKpB8ZI5u5DTjVJxktEcX7/vcxtVic9FgHDw3kY4wN5gfOBKtsVcHcVuVUXquKZ1IwW4tjEj2M6a8uahvjuQwdkM7gj0P0VTqmnwZDzb04RuuFSNdWw8sbyM5CAgsrHV32vkNie0fOf2VmjBzV69DJ/lxgSy2UmWJ6ysR+RMSl6wJitU1ayRsKx81TtYJyOzv2MmHggyd70PbD994DuL7geT5/iQiyd791O0bv/Vvb9/81//u9k9+5p/dPvnpz8Q2LD/uJonpS1Uvbn/7V9+6fftP/+vtk+++un348j1vkn6N9X7hzOvSZCpDzBA8wGiKLIy56dCTiofrDn3Z0I2qJX7pcBJCntoxI594UWlD92/rR8brP3r3x99ANtTVGeHkgZA3QOSUjDH+I9sc1NjHW0COnua8SVY5NhZhZ//kiE+A77QF62SIM7aRhqudRrPQcsHfFhE6VbG1CLsKRwckDk9JGJgabqqAGe/ZznzX1kJ0eNHUsfQgP4BLblu2ebeMZlgym8ltZIIcmJmAGr2KzXCWrOp77vt4acdltVvo1spnqtKqqc44VEpv5SpCH6p9nS3ERW2V4TFNqsjiHts2A9g2Jg44Nfc+CLAdm2t77JsnPb4Yl0wWa8fi+wMD244+bLnucWJ9Q0EB9hEee2ni06TtsEemg58XeI6gtEQN78z0AYxI3/UbJHuVwX2vTfLLX/uN29d+/V/d/unP/Oztk595sEk6NXcOxkcwNnmT/F//7Tu3737rj2+foP/qvdvz58/9p2j84IaJWd+PmNEYj/BnVDbJxKS/PKTfHy1zUTL22KWOJ9gMWwdGvyEf8foYfqrKdm3LcF507Vd/2SijdH9iWCIb91UyJtpWWOY6ljmPPB2LI+v3POEzBzZZAvS94Opz5ciJIx1KZ0nNZVfMPLpFx4b0a4f9XL+Fc9aDK2/bUPpJL/tyOLPacr5nXsBXh8dxUqNwTu0+gkmFkBPL5hI85BOejHXFGXLM4J+xrcBol2xskVFn7hIPnOfDDcF0hLTa32LzmFFfm6kyt5Co50+h0ul6WHNwL0g2frQnpweQSex0Lg+2tnd3aaOvDf19bcI/MWzbtu2tH7+ea2C6rqstbIWfdOyPH/CpVwHdfueTt5/70tduX/rKv7z97M9/6faZz/1kHOrYTfLjMCbU2ST/79989/bX3/lTf9x+54P3by9fvtQGuX+6nQkiKXzib5GQiOq4H+FahGOTSt1MEAWZ+Q6/XZvBZzzWR7DRaOeYqfa5bvFyI6fmm250w3nRq6Ygj3U2wPG5eQOjLhdW/CCF3rILh0XzZKsspZwRu89V5bCoesstU45UVpej3181jQun5uHCuGZskYy8UxT04nn5Tk6gIetYL5U6Jwe3YlO5eWo7kQ7LnJf947mQR2wP1Mfr78hztSzDIN0HuIztoRHjifgpggNwHbkOZhOQ0F8+LbppUI8Pes2BRCO5zAi6Ng13kI1c8cbAtjpMJCENv5mFGTN76WtiLSmVdTv/c4gb2I5PbP1pQLvx2E4M1wV26cfHV5eGJZGD/SthgVuXJBgP57H3WYVPJWopF/YpfnjDz1BefvCJ2xd+/su3X/ilX7v93Bd/6fbZf7hN8q9u3/vun98++xMf3p6p/+rVSwXdvwy6BpU4wg6TiY1iMbtx2LTGzkwSRMYZ3l7Ydqlyy+SXnSmxkyyhwmMd8goso7RTvukCmvmm8wCjwH42lsyD6N9Pq+38TqLlV53qNa6lYhTRT3EM1f7e7NhtB+2bezOd/19mOA6HNK2bTZXS/A6z4MwbdQ2az2gdR8dc7+XVcfv70wK9tDhPMNm7Ka2+Yjo6oXEOa9uBmRtQke2mvea9Ngfrwlzz4QFI3BtRaR6TL5nP6rVCfo/le/ED05q63mN7dD2WEYA2j1l/AM8vPi7hyY+50mG5oOKxOXMVn9gOopKQds+n3pDRyHZOqdkjB+Zatj1bNr3U6xrra/gip8VGqmMR19Z2KocN98fsS5jQfq03yRevXt9evHx9e//VO7ef/cWv3r6oN8kv/JzeJD/zWbvP+vgRN0kwZtkk/9//+N7tb773F7fPffpZvi/J7xs9f99/beN/WklYN5ODJUGSviJPDZTUYz9p0U+qG7HLBASdMB22d1y1qF1s4pOb89czlaedstjv5Lug3n0Qmb3cdm3FKKc624E5FLIalT0q1xKZjflRGbuJ7VF3ruyhVR9NdBuRW8KmunTDGGzpyFOzsU4YZOFCoHN2ujrXb/JbuW2Pmth+moOxBmXy+R62MzcksTnnZ0FNeifv+D7MsVAXCfphWvMVheTpX+dxW6dSTQxVY2cLy7ZnENuZSivVSbfCszKRWpUBRBfW9foYuOux9go6B/XVnF81M04KjumrZq7sky6CS9tzaZsIc0Vqg9xhsGttnQ2XnFOkOry5VRaz9Iv8+lttbVOlq+wj/kVyau1LqPnE+/LlB94k+aXy91/ebl/4ha/cfvHLv+6fbn/GP92O/+12u/1/xmWsdlNoMdgAAAAASUVORK5CYII=;" vertex="1" parent="1">
          <mxGeometry x="-130" y="420" width="102.25" height="98.52" as="geometry" />
        </mxCell>
        <mxCell id="Vjxe_0oO2wVu7SaKX2D6-36" value="&lt;b style=&quot;font-size: 20px;&quot;&gt;&lt;font style=&quot;font-size: 20px;&quot;&gt;8核&lt;/font&gt;&lt;/b&gt;&lt;div style=&quot;font-size: 20px;&quot;&gt;&lt;b&gt;&lt;font style=&quot;font-size: 20px;&quot;&gt;(4个Cortex-A55 + 4个Cortex-A76)&lt;/font&gt;&lt;/b&gt;&lt;/div&gt;" style="text;html=1;align=center;verticalAlign=middle;whiteSpace=wrap;rounded=0;" vertex="1" parent="1">
          <mxGeometry x="-307.5" y="540" width="340" height="30" as="geometry" />
        </mxCell>
        <mxCell id="Vjxe_0oO2wVu7SaKX2D6-37" value="" style="endArrow=classic;html=1;rounded=0;" edge="1" parent="1">
          <mxGeometry width="50" height="50" relative="1" as="geometry">
            <mxPoint x="52.5" y="480.25" as="sourcePoint" />
            <mxPoint x="822.5" y="480.25" as="targetPoint" />
          </mxGeometry>
        </mxCell>
        <mxCell id="Vjxe_0oO2wVu7SaKX2D6-38" value="&lt;font style=&quot;font-size: 20px;&quot;&gt;0&lt;/font&gt;" style="text;html=1;align=center;verticalAlign=middle;resizable=0;points=[];autosize=1;strokeColor=none;fillColor=none;" vertex="1" parent="1">
          <mxGeometry x="32.5" y="490" width="30" height="40" as="geometry" />
        </mxCell>
        <mxCell id="Vjxe_0oO2wVu7SaKX2D6-39" value="&lt;font style=&quot;font-size: 20px;&quot;&gt;t&lt;/font&gt;" style="text;html=1;align=center;verticalAlign=middle;resizable=0;points=[];autosize=1;strokeColor=none;fillColor=none;" vertex="1" parent="1">
          <mxGeometry x="802.5" y="490" width="30" height="40" as="geometry" />
        </mxCell>
        <mxCell id="Vjxe_0oO2wVu7SaKX2D6-40" value="" style="endArrow=classic;html=1;rounded=0;strokeWidth=5;" edge="1" parent="1">
          <mxGeometry width="50" height="50" relative="1" as="geometry">
            <mxPoint x="52.5" y="440.25" as="sourcePoint" />
            <mxPoint x="132.5" y="440.25" as="targetPoint" />
          </mxGeometry>
        </mxCell>
        <mxCell id="Vjxe_0oO2wVu7SaKX2D6-48" value="&lt;font style=&quot;font-size: 18px;&quot;&gt;任务1&lt;/font&gt;" style="text;html=1;align=center;verticalAlign=middle;whiteSpace=wrap;rounded=0;" vertex="1" parent="1">
          <mxGeometry x="62.5" y="400.25" width="60" height="30" as="geometry" />
        </mxCell>
        <mxCell id="Vjxe_0oO2wVu7SaKX2D6-56" value="10ms" style="text;html=1;align=center;verticalAlign=middle;whiteSpace=wrap;rounded=0;" vertex="1" parent="1">
          <mxGeometry x="52.5" y="450.25" width="60" height="30" as="geometry" />
        </mxCell>
        <mxCell id="Vjxe_0oO2wVu7SaKX2D6-64" value="&lt;b&gt;&lt;font color=&quot;#ff0000&quot;&gt;时间片轮转调度算法&lt;/font&gt;&lt;/b&gt;" style="text;html=1;align=center;verticalAlign=middle;whiteSpace=wrap;rounded=0;" vertex="1" parent="1">
          <mxGeometry x="732.5" y="440.25" width="115" height="30" as="geometry" />
        </mxCell>
        <mxCell id="Vjxe_0oO2wVu7SaKX2D6-65" value="" style="endArrow=classic;html=1;rounded=0;" edge="1" parent="1">
          <mxGeometry width="50" height="50" relative="1" as="geometry">
            <mxPoint x="52.5" y="620" as="sourcePoint" />
            <mxPoint x="822.5" y="620" as="targetPoint" />
          </mxGeometry>
        </mxCell>
        <mxCell id="Vjxe_0oO2wVu7SaKX2D6-66" value="&lt;font style=&quot;font-size: 20px;&quot;&gt;0&lt;/font&gt;" style="text;html=1;align=center;verticalAlign=middle;resizable=0;points=[];autosize=1;strokeColor=none;fillColor=none;" vertex="1" parent="1">
          <mxGeometry x="32.5" y="629.75" width="30" height="40" as="geometry" />
        </mxCell>
        <mxCell id="Vjxe_0oO2wVu7SaKX2D6-67" value="&lt;font style=&quot;font-size: 20px;&quot;&gt;t&lt;/font&gt;" style="text;html=1;align=center;verticalAlign=middle;resizable=0;points=[];autosize=1;strokeColor=none;fillColor=none;" vertex="1" parent="1">
          <mxGeometry x="802.5" y="629.75" width="30" height="40" as="geometry" />
        </mxCell>
        <mxCell id="Vjxe_0oO2wVu7SaKX2D6-76" value="&lt;font style=&quot;font-size: 18px;&quot;&gt;任务3&lt;/font&gt;" style="text;html=1;align=center;verticalAlign=middle;whiteSpace=wrap;rounded=0;" vertex="1" parent="1">
          <mxGeometry x="62.5" y="540" width="60" height="30" as="geometry" />
        </mxCell>
        <mxCell id="Vjxe_0oO2wVu7SaKX2D6-84" value="400ms" style="text;html=1;align=center;verticalAlign=middle;whiteSpace=wrap;rounded=0;" vertex="1" parent="1">
          <mxGeometry x="52.5" y="590" width="60" height="30" as="geometry" />
        </mxCell>
        <mxCell id="Vjxe_0oO2wVu7SaKX2D6-92" value="&lt;b&gt;&lt;font color=&quot;#ff0000&quot;&gt;时间片轮转调度算法&lt;/font&gt;&lt;/b&gt;" style="text;html=1;align=center;verticalAlign=middle;whiteSpace=wrap;rounded=0;" vertex="1" parent="1">
          <mxGeometry x="742.5" y="580" width="115" height="30" as="geometry" />
        </mxCell>
        <mxCell id="Vjxe_0oO2wVu7SaKX2D6-93" value="" style="endArrow=classic;html=1;rounded=0;" edge="1" parent="1">
          <mxGeometry width="50" height="50" relative="1" as="geometry">
            <mxPoint x="52.5" y="780" as="sourcePoint" />
            <mxPoint x="822.5" y="780" as="targetPoint" />
          </mxGeometry>
        </mxCell>
        <mxCell id="Vjxe_0oO2wVu7SaKX2D6-94" value="&lt;font style=&quot;font-size: 20px;&quot;&gt;0&lt;/font&gt;" style="text;html=1;align=center;verticalAlign=middle;resizable=0;points=[];autosize=1;strokeColor=none;fillColor=none;" vertex="1" parent="1">
          <mxGeometry x="32.5" y="789.75" width="30" height="40" as="geometry" />
        </mxCell>
        <mxCell id="Vjxe_0oO2wVu7SaKX2D6-95" value="&lt;font style=&quot;font-size: 20px;&quot;&gt;t&lt;/font&gt;" style="text;html=1;align=center;verticalAlign=middle;resizable=0;points=[];autosize=1;strokeColor=none;fillColor=none;" vertex="1" parent="1">
          <mxGeometry x="802.5" y="789.75" width="30" height="40" as="geometry" />
        </mxCell>
        <mxCell id="Vjxe_0oO2wVu7SaKX2D6-104" value="&lt;font style=&quot;font-size: 18px;&quot;&gt;任务2&lt;/font&gt;" style="text;html=1;align=center;verticalAlign=middle;whiteSpace=wrap;rounded=0;" vertex="1" parent="1">
          <mxGeometry x="62.5" y="700" width="60" height="30" as="geometry" />
        </mxCell>
        <mxCell id="Vjxe_0oO2wVu7SaKX2D6-112" value="50ms" style="text;html=1;align=center;verticalAlign=middle;whiteSpace=wrap;rounded=0;" vertex="1" parent="1">
          <mxGeometry x="52.5" y="750" width="60" height="30" as="geometry" />
        </mxCell>
        <mxCell id="Vjxe_0oO2wVu7SaKX2D6-120" value="&lt;b&gt;&lt;font color=&quot;#ff0000&quot;&gt;时间片轮转调度算法&lt;/font&gt;&lt;/b&gt;" style="text;html=1;align=center;verticalAlign=middle;whiteSpace=wrap;rounded=0;" vertex="1" parent="1">
          <mxGeometry x="732.5" y="740" width="115" height="30" as="geometry" />
        </mxCell>
        <mxCell id="Vjxe_0oO2wVu7SaKX2D6-121" value="" style="endArrow=classic;html=1;rounded=0;strokeWidth=5;strokeColor=#00FF00;" edge="1" parent="1">
          <mxGeometry width="50" height="50" relative="1" as="geometry">
            <mxPoint x="52.5" y="585" as="sourcePoint" />
            <mxPoint x="132.5" y="585" as="targetPoint" />
          </mxGeometry>
        </mxCell>
        <mxCell id="Vjxe_0oO2wVu7SaKX2D6-122" value="" style="endArrow=classic;html=1;rounded=0;strokeWidth=5;strokeColor=#FF0000;" edge="1" parent="1">
          <mxGeometry width="50" height="50" relative="1" as="geometry">
            <mxPoint x="52.5" y="740" as="sourcePoint" />
            <mxPoint x="132.5" y="740" as="targetPoint" />
          </mxGeometry>
        </mxCell>
        <mxCell id="Vjxe_0oO2wVu7SaKX2D6-123" value="" style="rounded=1;whiteSpace=wrap;html=1;fillColor=none;dashed=1;dashPattern=8 8;" vertex="1" parent="1">
          <mxGeometry x="-300" y="360" width="1230" height="500" as="geometry" />
        </mxCell>
        <mxCell id="Vjxe_0oO2wVu7SaKX2D6-124" value="核心0" style="text;html=1;align=center;verticalAlign=middle;whiteSpace=wrap;rounded=0;" vertex="1" parent="1">
          <mxGeometry x="-20" y="470" width="60" height="30" as="geometry" />
        </mxCell>
        <mxCell id="Vjxe_0oO2wVu7SaKX2D6-125" value="核心1" style="text;html=1;align=center;verticalAlign=middle;whiteSpace=wrap;rounded=0;" vertex="1" parent="1">
          <mxGeometry x="-20" y="610" width="60" height="30" as="geometry" />
        </mxCell>
        <mxCell id="Vjxe_0oO2wVu7SaKX2D6-126" value="核心3" style="text;html=1;align=center;verticalAlign=middle;whiteSpace=wrap;rounded=0;" vertex="1" parent="1">
          <mxGeometry x="-27.5" y="759.75" width="60" height="30" as="geometry" />
        </mxCell>
        <mxCell id="Vjxe_0oO2wVu7SaKX2D6-127" value="&lt;font style=&quot;font-size: 30px;&quot;&gt;&lt;b&gt;并行&lt;/b&gt;&lt;/font&gt;" style="text;html=1;align=center;verticalAlign=middle;whiteSpace=wrap;rounded=0;" vertex="1" parent="1">
          <mxGeometry x="330" y="810" width="100" height="30" as="geometry" />
        </mxCell>
      </root>
    </mxGraphModel>
  </diagram>
  <diagram id="7q8-uAgqosyDbGGhYYDR" name="线程池">
    <mxGraphModel dx="1877" dy="629" grid="1" gridSize="10" guides="1" tooltips="1" connect="1" arrows="1" fold="1" page="1" pageScale="1" pageWidth="827" pageHeight="1169" math="0" shadow="0">
      <root>
        <mxCell id="0" />
        <mxCell id="1" parent="0" />
        <mxCell id="Xpzfz-bJCE3QQffhiiJ9-1" value="&lt;font style=&quot;font-size: 20px;&quot;&gt;1. 创建线程池的原因&lt;/font&gt;" style="text;html=1;align=center;verticalAlign=middle;whiteSpace=wrap;rounded=0;" vertex="1" parent="1">
          <mxGeometry x="10" y="130" width="210" height="30" as="geometry" />
        </mxCell>
        <mxCell id="Xpzfz-bJCE3QQffhiiJ9-2" value="" style="rounded=1;whiteSpace=wrap;html=1;fillColor=#fa6800;strokeColor=#C73500;fontColor=#000000;" vertex="1" parent="1">
          <mxGeometry x="30" y="170" width="560" height="240" as="geometry" />
        </mxCell>
        <mxCell id="Xpzfz-bJCE3QQffhiiJ9-3" value="&lt;font style=&quot;font-size: 20px;&quot;&gt;&lt;b&gt;原因：创建线程和销毁线程是一个很“重”的操作，需要 大量的内核时间。如果服务在执行期间在去创建线程，这样会耽误处理业务；&lt;/b&gt;&lt;/font&gt;" style="text;html=1;align=left;verticalAlign=middle;whiteSpace=wrap;rounded=0;" vertex="1" parent="1">
          <mxGeometry x="40" y="210" width="540" height="30" as="geometry" />
        </mxCell>
        <mxCell id="Xpzfz-bJCE3QQffhiiJ9-4" value="&lt;font style=&quot;font-size: 20px;&quot;&gt;&lt;b&gt;因此在服务执行之前就将需要的线程创建并保存好，然后等待业务到来之后，在直接从线程池中分配线程去执行业务。这样可以减少创建线程而占用内核时间。&lt;br&gt;&lt;font color=&quot;#000099&quot;&gt;执行完业务逻辑之后，在将线程放回到线程池中，而不是执行完业务直接销毁线程。&lt;/font&gt;&lt;/b&gt;&lt;/font&gt;" style="text;html=1;align=left;verticalAlign=middle;whiteSpace=wrap;rounded=0;" vertex="1" parent="1">
          <mxGeometry x="40" y="280" width="510" height="90" as="geometry" />
        </mxCell>
        <mxCell id="Xpzfz-bJCE3QQffhiiJ9-6" value="&lt;font style=&quot;font-size: 20px;&quot;&gt;2. 线程池的模式&lt;/font&gt;&lt;div&gt;&lt;ul&gt;&lt;li&gt;&lt;font style=&quot;font-size: 20px;&quot;&gt;固定模式&lt;/font&gt;&lt;/li&gt;&lt;li&gt;&lt;font style=&quot;font-size: 20px;&quot;&gt;增长模式&lt;/font&gt;&lt;/li&gt;&lt;/ul&gt;&lt;/div&gt;" style="text;html=1;align=center;verticalAlign=middle;whiteSpace=wrap;rounded=0;" vertex="1" parent="1">
          <mxGeometry y="450" width="210" height="90" as="geometry" />
        </mxCell>
        <mxCell id="Xpzfz-bJCE3QQffhiiJ9-7" value="" style="rounded=1;whiteSpace=wrap;html=1;fillColor=#60a917;strokeColor=#2D7600;fontColor=#ffffff;" vertex="1" parent="1">
          <mxGeometry x="-10" y="540" width="560" height="240" as="geometry" />
        </mxCell>
        <mxCell id="Xpzfz-bJCE3QQffhiiJ9-8" value="&lt;font style=&quot;font-size: 20px;&quot;&gt;固定模式：线程池中，线程的数量有CPU的核心数量来确定&lt;/font&gt;" style="text;html=1;align=left;verticalAlign=middle;whiteSpace=wrap;rounded=0;" vertex="1" parent="1">
          <mxGeometry y="560" width="540" height="30" as="geometry" />
        </mxCell>
      </root>
    </mxGraphModel>
  </diagram>
  <diagram id="SjcQksQo9EhkYikcmvTv" name="线程互斥">
    <mxGraphModel dx="1877" dy="629" grid="1" gridSize="10" guides="1" tooltips="1" connect="1" arrows="1" fold="1" page="1" pageScale="1" pageWidth="827" pageHeight="1169" math="0" shadow="0">
      <root>
        <mxCell id="0" />
        <mxCell id="1" parent="0" />
        <mxCell id="I5yNZKabXsxCDYP7CTUZ-13" value="" style="rounded=1;whiteSpace=wrap;html=1;fillColor=#1ba1e2;fontColor=#ffffff;strokeColor=#006EAF;" vertex="1" parent="1">
          <mxGeometry x="-10" y="350" width="520" height="180" as="geometry" />
        </mxCell>
        <mxCell id="I5yNZKabXsxCDYP7CTUZ-6" value="&lt;font style=&quot;font-size: 20px;&quot;&gt;1. 代码片段是否可以在多线程下执行的条件？&lt;/font&gt;" style="text;html=1;align=center;verticalAlign=middle;resizable=0;points=[];autosize=1;strokeColor=none;fillColor=none;" vertex="1" parent="1">
          <mxGeometry x="-25" y="140" width="430" height="40" as="geometry" />
        </mxCell>
        <mxCell id="I5yNZKabXsxCDYP7CTUZ-9" value="" style="rounded=1;whiteSpace=wrap;html=1;fillColor=#1ba1e2;fontColor=#ffffff;strokeColor=#006EAF;" vertex="1" parent="1">
          <mxGeometry x="-10" y="190" width="520" height="120" as="geometry" />
        </mxCell>
        <mxCell id="I5yNZKabXsxCDYP7CTUZ-10" value="&lt;font style=&quot;font-size: 20px;&quot;&gt;1. 如果代码片段存在竞态条件，那么不适合多线程；&lt;/font&gt;&lt;span style=&quot;font-size: 20px;&quot;&gt;该代码段也称做为&lt;font color=&quot;#ff0000&quot;&gt;不&lt;/font&gt;&lt;/span&gt;&lt;font style=&quot;font-size: 20px;&quot; color=&quot;#ff3333&quot;&gt;可重入的；&lt;/font&gt;&lt;div&gt;&lt;font style=&quot;font-size: 20px;&quot;&gt;2.&amp;nbsp;&lt;/font&gt;&lt;span style=&quot;font-size: 20px; background-color: initial;&quot;&gt;如果代码片段不存在竞态条件，那么就适合多线程；该代码段也称做为&lt;font color=&quot;#ff3333&quot;&gt;可重入的；&lt;/font&gt;&lt;/span&gt;&lt;/div&gt;" style="text;html=1;align=left;verticalAlign=middle;whiteSpace=wrap;rounded=0;" vertex="1" parent="1">
          <mxGeometry y="225" width="490" height="50" as="geometry" />
        </mxCell>
        <mxCell id="I5yNZKabXsxCDYP7CTUZ-11" value="&lt;font style=&quot;font-size: 20px;&quot;&gt;2. 竞态条件&lt;/font&gt;" style="text;html=1;align=center;verticalAlign=middle;resizable=0;points=[];autosize=1;strokeColor=none;fillColor=none;" vertex="1" parent="1">
          <mxGeometry x="-10" y="320" width="130" height="40" as="geometry" />
        </mxCell>
        <mxCell id="I5yNZKabXsxCDYP7CTUZ-12" value="&lt;font style=&quot;font-size: 20px;&quot;&gt;1. 代码片段在多线程环境下执行，随着线程的调度顺序不同，&lt;/font&gt;&lt;div style=&quot;&quot;&gt;&lt;font style=&quot;font-size: 20px;&quot;&gt;而得到不同的运行结果，这就是存在竞态条件；&lt;/font&gt;&lt;/div&gt;&lt;div style=&quot;&quot;&gt;&lt;font style=&quot;font-size: 20px;&quot;&gt;2. 竞态条件称做&lt;font color=&quot;#cc0000&quot;&gt;临界代码段&lt;/font&gt;；&lt;/font&gt;&lt;/div&gt;&lt;div style=&quot;&quot;&gt;&lt;font style=&quot;font-size: 20px;&quot;&gt;3. 临界代码段的代码，需要保证原子操作；&lt;/font&gt;&lt;/div&gt;" style="text;html=1;align=left;verticalAlign=middle;resizable=0;points=[];autosize=1;strokeColor=none;fillColor=none;" vertex="1" parent="1">
          <mxGeometry y="360" width="570" height="110" as="geometry" />
        </mxCell>
        <mxCell id="I5yNZKabXsxCDYP7CTUZ-14" value="&lt;b&gt;&lt;font style=&quot;font-size: 20px;&quot;&gt;保证原子操作，需要使用锁&lt;/font&gt;&lt;/b&gt;" style="text;html=1;align=center;verticalAlign=middle;resizable=0;points=[];autosize=1;strokeColor=none;fillColor=none;" vertex="1" parent="1">
          <mxGeometry x="20" y="565" width="260" height="40" as="geometry" />
        </mxCell>
        <mxCell id="I5yNZKabXsxCDYP7CTUZ-15" value="" style="endArrow=none;html=1;rounded=0;strokeWidth=5;" edge="1" parent="1">
          <mxGeometry width="50" height="50" relative="1" as="geometry">
            <mxPoint y="680" as="sourcePoint" />
            <mxPoint x="680" y="680" as="targetPoint" />
          </mxGeometry>
        </mxCell>
        <mxCell id="I5yNZKabXsxCDYP7CTUZ-16" value="&lt;font color=&quot;#ff0000&quot; style=&quot;font-size: 20px;&quot;&gt;&lt;b&gt;银行卡内的余额&lt;/b&gt;&lt;/font&gt;" style="text;html=1;align=center;verticalAlign=middle;resizable=0;points=[];autosize=1;strokeColor=none;fillColor=none;" vertex="1" parent="1">
          <mxGeometry x="30" y="773" width="160" height="40" as="geometry" />
        </mxCell>
        <mxCell id="I5yNZKabXsxCDYP7CTUZ-17" value="&lt;font style=&quot;font-size: 20px;&quot;&gt;&lt;b&gt;我和我的爱人在任意时刻只能只能有一个人进行消费；这就需要原子操作；&lt;br&gt;银行卡内的余额就是共享资源，也就是存在竞态条件，是不可重入的；&lt;/b&gt;&lt;/font&gt;" style="text;html=1;align=center;verticalAlign=middle;resizable=0;points=[];autosize=1;strokeColor=none;fillColor=none;" vertex="1" parent="1">
          <mxGeometry x="-210" y="820" width="680" height="60" as="geometry" />
        </mxCell>
      </root>
    </mxGraphModel>
  </diagram>
</mxfile>
